G04 DipTrace 3.0.0.2*
G04 Grupp7layout.GBL*
%MOMM*%
G04 #@! TF.FileFunction,Copper,L2,Bot*
G04 #@! TF.Part,Single*
G04 #@! TA.AperFunction,Conductor*
%ADD10C,0.25*%
%ADD13C,0.33*%
G04 #@! TA.AperFunction,CopperBalancing*
%ADD15C,0.635*%
G04 #@! TA.AperFunction,ComponentPad*
%ADD20R,1.7X1.7*%
%ADD21C,1.7*%
%ADD22R,1.75X1.75*%
%ADD23C,1.75*%
G04 #@! TA.AperFunction,ViaPad*
%ADD33C,0.8*%
%FSLAX35Y35*%
G04*
G71*
G90*
G75*
G01*
G04 Bottom*
%LPD*%
X7429500Y4000500D2*
D10*
X7699373D1*
X5842000Y2397127D2*
X3937000D1*
X7524750Y3063873D2*
X8969377D1*
X9128127Y3222623D1*
X6429377Y2984500D2*
X5159377D1*
X5111750Y3032127D1*
Y3619503D1*
X5064127Y3667127D1*
X5143500Y4889500D2*
Y5207000D1*
X6508750Y4619623D2*
D13*
Y5207000D1*
X6921500Y7874000D2*
X7429500Y8382000D1*
X5953127Y2667000D2*
X3937000D1*
X5238750Y2032000D2*
X5778500D1*
X7651750Y3143250D2*
D10*
X8874123D1*
X8921750Y3190877D1*
X7762873Y3238500D2*
X8810623D1*
X8842373Y3270250D1*
X7620000Y3333750D2*
X8747127D1*
X8763000Y3349623D1*
X7731127Y3413127D2*
Y3429000D1*
Y3413127D2*
X7826377D1*
X7842250Y3429000D1*
X8683623D1*
X7810500Y3492500D2*
Y3508377D1*
X8604250D1*
X7810503Y3603627D2*
X8524873D1*
X7826373Y4143373D2*
X8239123D1*
X6873877Y4667250D2*
X6889750D1*
X7366000Y5143500D1*
X7969250D1*
X6889750Y4810127D2*
X6953253D1*
X7048500Y4905373D1*
Y5159377D1*
X7064373Y5175250D1*
X7112000Y5445127D2*
X7985123D1*
X6873873Y4921250D2*
Y5111750D1*
X6937373Y5175250D1*
X7112000Y5619750D2*
X7985123D1*
X6794500Y5000627D2*
Y5175250D1*
X7112000Y5778500D2*
X7985123D1*
X6667500Y5000627D2*
Y5159373D1*
X7112000Y5889627D2*
X7985123D1*
X5667373Y4032250D2*
Y4445000D1*
X6096000D2*
X7810500D1*
X7635873Y3698873D2*
X8429623D1*
X7699373Y3778250D2*
X8350250D1*
X7731123Y3873500D2*
D13*
X8255000D1*
X5191127Y2508250D2*
X6794503D1*
X6842127Y2460627D1*
X7079507Y2269887D2*
X8302623D1*
X5302250Y2190750D2*
X8445500D1*
X7063633Y2079407D2*
D10*
X8302843D1*
X8318500Y2063750D1*
X6635750Y1746250D2*
X6985000D1*
X7000873Y1730377D1*
X7111253Y1952420D2*
Y1968500D1*
X8318500D1*
X5572127Y1873250D2*
Y1571627D1*
X5556250Y1555750D1*
X7222367Y1888927D2*
Y1873053D1*
X8318500D1*
X7175497Y4270377D2*
X8159750D1*
X7207250Y4365627D2*
X8080373D1*
X7302500Y4714873D2*
X8001000D1*
X7239000Y4794250D2*
X7905750D1*
X6683377Y571500D2*
D13*
X6524627Y730250D1*
Y2095500D1*
Y2889250D2*
Y3111500D1*
X6826250Y2936873D2*
D10*
X6889753D1*
X6969127Y2857500D1*
Y2412013D1*
X7016013Y2365127D1*
X7777933D1*
X4095750Y3444873D2*
D13*
Y3984627D1*
Y4873623D2*
Y5508623D1*
X4460873Y8001000D2*
X5318127D1*
X6873873Y2794000D2*
D10*
X6222053D1*
X3730233Y2841327D2*
D13*
Y2158773D1*
D33*
X7429500Y4000500D3*
X7699373D3*
X5842000Y2397127D3*
X3937000D3*
X7524750Y3063873D3*
X9128127Y3222623D3*
X6429377Y2984500D3*
X5064127Y3667127D3*
X5143500Y4889500D3*
Y5207000D3*
X6508750Y4619623D3*
Y5207000D3*
X6921500Y7874000D3*
X7429500Y8382000D3*
X5953127Y2667000D3*
X3937000D3*
X5238750Y2032000D3*
X5778500D3*
X7651750Y3143250D3*
X8921750Y3190877D3*
X7762873Y3238500D3*
X8842373Y3270250D3*
X7620000Y3333750D3*
X8763000Y3349623D3*
X7731127Y3413127D3*
X8683623Y3429000D3*
X7731127Y3413127D3*
X7810500Y3492500D3*
X8604250Y3508377D3*
X7810503Y3603627D3*
X8524873D3*
X7826373Y4143373D3*
X8239123D3*
X6873877Y4667250D3*
X7969250Y5143500D3*
X6889750Y4810127D3*
X7064373Y5175250D3*
X7112000Y5445127D3*
X7985123D3*
X6873873Y4921250D3*
X6937373Y5175250D3*
X7112000Y5619750D3*
X7985123D3*
X6794500Y5000627D3*
Y5175250D3*
X7112000Y5778500D3*
X7985123D3*
X6667500Y5000627D3*
Y5159373D3*
X7112000Y5889627D3*
X7985123D3*
X5667373Y4032250D3*
Y4445000D3*
X6096000D3*
X7810500D3*
X7635873Y3698873D3*
X8429623D3*
X7699373Y3778250D3*
X8350250D3*
X7731123Y3873500D3*
X8255000D3*
X5191127Y2508250D3*
X6842127Y2460627D3*
X7079507Y2269887D3*
X8302623D3*
X5302250Y2190750D3*
X8445500D3*
X7063633Y2079407D3*
X8318500Y2063750D3*
X6635750Y1746250D3*
X7000873Y1730377D3*
X7111253Y1952420D3*
X8318500Y1968500D3*
X5572127Y1873250D3*
X5556250Y1555750D3*
X7222367Y1888927D3*
X8318500Y1873053D3*
X7175497Y4270377D3*
X8159750D3*
X7207250Y4365627D3*
X8080373D3*
X7302500Y4714873D3*
X8001000D3*
X7239000Y4794250D3*
X7905750D3*
X6683377Y571500D3*
X6524627Y2095500D3*
Y2889250D3*
Y3111500D3*
X6826250Y2936873D3*
X7777933Y2365127D3*
X4095750Y3444873D3*
Y3984627D3*
Y4873623D3*
Y5508623D3*
X4460873Y8001000D3*
X5318127D3*
X6873873Y2794000D3*
X6222053D3*
X3730233Y2841327D3*
Y2158773D3*
D3*
X6222053Y2794000D3*
X1587500Y9223373D3*
X2365377Y8461373D3*
X3175000Y8016873D3*
X3794127Y8270873D3*
X6096000Y7524750D3*
X7366000Y8842373D3*
X8175627Y7016750D3*
X6397627Y4619627D3*
X1111250Y8255000D3*
X7032627Y4699000D3*
X7493000Y4127500D3*
X6873873Y3063873D3*
X7603327Y2539733D3*
X6064250Y3175000D3*
X5730873Y3571873D3*
X5127627Y4191000D3*
X4968873Y1555750D3*
X3571873Y2000250D3*
X7412847Y1761940D3*
X538100Y9405083D2*
D15*
X920973D1*
X1238026D2*
X9461847D1*
X538100Y9341917D2*
X931515D1*
X1227484D2*
X9461847D1*
X538100Y9278750D2*
X748208D1*
X902791D2*
X978396D1*
X1180603D2*
X5995516D1*
X6196483D2*
X8921849D1*
X9239150D2*
X9461847D1*
X538100Y9215583D2*
X684708D1*
X1220291D2*
X5948263D1*
X6243736D2*
X8921849D1*
X9239150D2*
X9461847D1*
X538100Y9152417D2*
X667097D1*
X1237902D2*
X5937473D1*
X6254526D2*
X8921849D1*
X9239150D2*
X9461847D1*
X538100Y9089250D2*
X677019D1*
X1227980D2*
X5954216D1*
X6237783D2*
X8921849D1*
X9239150D2*
X9461847D1*
X538100Y9026083D2*
X722783D1*
X928216D2*
X976783D1*
X1182216D2*
X6015359D1*
X6176640D2*
X8921849D1*
X9239150D2*
X9461847D1*
X538100Y8962917D2*
X8940452D1*
X9220547D2*
X9461847D1*
X538100Y8899750D2*
X8922221D1*
X9238778D2*
X9461847D1*
X538100Y8836583D2*
X8931523D1*
X9229476D2*
X9461847D1*
X538100Y8773417D2*
X8976171D1*
X9184828D2*
X9461847D1*
X538100Y8710250D2*
X9461847D1*
X538100Y8647083D2*
X5937349D1*
X6254650D2*
X9461847D1*
X538100Y8583917D2*
X5937349D1*
X6254650D2*
X9461847D1*
X538100Y8520750D2*
X5937349D1*
X6254650D2*
X9011394D1*
X9149605D2*
X9461847D1*
X538100Y8457583D2*
X5937349D1*
X6254650D2*
X7346999D1*
X7512000D2*
X8941941D1*
X9219058D2*
X9461847D1*
X538100Y8394417D2*
X5937349D1*
X6254650D2*
X7316613D1*
X7542386D2*
X8922345D1*
X9238654D2*
X9461847D1*
X538100Y8331250D2*
X7253982D1*
X7530355D2*
X8930530D1*
X9230469D2*
X9461847D1*
X538100Y8268083D2*
X7190730D1*
X7440438D2*
X8973070D1*
X9187929D2*
X9461847D1*
X538100Y8204917D2*
X7127602D1*
X7377186D2*
X8942685D1*
X9218314D2*
X9461847D1*
X538100Y8141750D2*
X7064474D1*
X7314058D2*
X8922469D1*
X9238530D2*
X9461847D1*
X538100Y8078583D2*
X4380358D1*
X5398641D2*
X7001222D1*
X7250931D2*
X8930158D1*
X9230841D2*
X9461847D1*
X538100Y8015417D2*
X4348236D1*
X5430763D2*
X6938094D1*
X7187679D2*
X8971582D1*
X9189417D2*
X9461847D1*
X538100Y7952250D2*
X4358902D1*
X5420097D2*
X6841728D1*
X7124551D2*
X8943553D1*
X9217446D2*
X9461847D1*
X538100Y7889083D2*
X6808985D1*
X7061423D2*
X8922593D1*
X9238406D2*
X9461847D1*
X538100Y7825917D2*
X6819279D1*
X7023720D2*
X8929662D1*
X9231337D2*
X9461847D1*
X538100Y7762750D2*
X8970094D1*
X9190905D2*
X9461847D1*
X538100Y7699583D2*
X9461847D1*
X538100Y7636417D2*
X9461847D1*
X538100Y7573250D2*
X9461847D1*
X538100Y7510083D2*
X9461847D1*
X538100Y7446917D2*
X9461847D1*
X538100Y7383750D2*
X8971954D1*
X9189045D2*
X9461847D1*
X538100Y7320583D2*
X8928794D1*
X9232205D2*
X9461847D1*
X538100Y7257417D2*
X8919740D1*
X9241259D2*
X9461847D1*
X538100Y7194250D2*
X8937848D1*
X9223151D2*
X9461847D1*
X538100Y7131083D2*
X9000976D1*
X9160023D2*
X9461847D1*
X538100Y7067917D2*
X9461847D1*
X538100Y7004750D2*
X9002588D1*
X9158411D2*
X9461847D1*
X538100Y6941583D2*
X8938220D1*
X9222779D2*
X9461847D1*
X538100Y6878417D2*
X8919740D1*
X9241259D2*
X9461847D1*
X538100Y6815250D2*
X8919368D1*
X9241631D2*
X9461847D1*
X538100Y6752083D2*
X8919368D1*
X9241631D2*
X9461847D1*
X538100Y6688917D2*
X8919368D1*
X9241631D2*
X9461847D1*
X538100Y6625750D2*
X8919368D1*
X9241631D2*
X9461847D1*
X538100Y6562583D2*
X8919368D1*
X9241631D2*
X9461847D1*
X538100Y6499417D2*
X9461847D1*
X538100Y6436250D2*
X9461847D1*
X538100Y6373083D2*
X9461847D1*
X538100Y6309917D2*
X9461847D1*
X538100Y6246750D2*
X9124751D1*
X9163291D2*
X9461847D1*
X538100Y6183583D2*
X9012510D1*
X9275489D2*
X9461847D1*
X538100Y6120417D2*
X8985349D1*
X9302650D2*
X9461847D1*
X538100Y6057250D2*
X8986961D1*
X9301038D2*
X9461847D1*
X538100Y5994083D2*
X7081217D1*
X7142782D2*
X7954342D1*
X8015907D2*
X9018215D1*
X9269784D2*
X9461847D1*
X538100Y5930917D2*
X7006679D1*
X8090445D2*
X8987705D1*
X9300294D2*
X9461847D1*
X538100Y5867750D2*
X7000602D1*
X8096522D2*
X8984853D1*
X9303146D2*
X9461847D1*
X538100Y5804583D2*
X7001594D1*
X8095530D2*
X9010277D1*
X9277722D2*
X9461847D1*
X538100Y5741417D2*
X7004942D1*
X8092182D2*
X8990806D1*
X9297193D2*
X9461847D1*
X538100Y5678250D2*
X7015733D1*
X8081392D2*
X8983488D1*
X9304511D2*
X9461847D1*
X538100Y5615083D2*
X4076129D1*
X4115366D2*
X6998493D1*
X8098631D2*
X9003580D1*
X9284419D2*
X9461847D1*
X538100Y5551917D2*
X3991173D1*
X4200326D2*
X7022554D1*
X8074570D2*
X8994775D1*
X9293225D2*
X9461847D1*
X538100Y5488750D2*
X3983980D1*
X4207519D2*
X7007671D1*
X8089453D2*
X8982868D1*
X9305131D2*
X9461847D1*
X538100Y5425583D2*
X4005684D1*
X4185815D2*
X7000106D1*
X8097018D2*
X8998123D1*
X9289876D2*
X9461847D1*
X538100Y5362417D2*
X4005684D1*
X4185815D2*
X7037313D1*
X7186686D2*
X7910438D1*
X8059811D2*
X8999611D1*
X9288388D2*
X9461847D1*
X538100Y5299250D2*
X4005684D1*
X4185815D2*
X5082331D1*
X5204668D2*
X6447581D1*
X6569918D2*
X8982992D1*
X9305007D2*
X9461847D1*
X538100Y5236083D2*
X4005684D1*
X4185815D2*
X5033838D1*
X5253161D2*
X6399088D1*
X7159153D2*
X7908701D1*
X8029798D2*
X8993534D1*
X9294465D2*
X9461847D1*
X538100Y5172917D2*
X4005684D1*
X4185815D2*
X5035450D1*
X5251549D2*
X6400700D1*
X7178005D2*
X7276306D1*
X8078787D2*
X9005441D1*
X9282558D2*
X9461847D1*
X538100Y5109750D2*
X4005684D1*
X4185815D2*
X5057402D1*
X5229597D2*
X6418684D1*
X7155681D2*
X7213054D1*
X8077423D2*
X8983860D1*
X9304139D2*
X9461847D1*
X538100Y5046583D2*
X4005684D1*
X4185815D2*
X5057402D1*
X5229597D2*
X6418684D1*
X7388225D2*
X7916887D1*
X8021612D2*
X8989814D1*
X9298185D2*
X9461847D1*
X538100Y4983417D2*
X4005684D1*
X4185815D2*
X5057402D1*
X5229597D2*
X6418684D1*
X7325097D2*
X9012386D1*
X9275613D2*
X9461847D1*
X538100Y4920250D2*
X3992785D1*
X4198714D2*
X5034334D1*
X5252665D2*
X6418684D1*
X7261845D2*
X8985349D1*
X9302650D2*
X9461847D1*
X538100Y4857083D2*
X3983359D1*
X4208140D2*
X5034830D1*
X5252169D2*
X6418684D1*
X6598815D2*
X6781576D1*
X7999040D2*
X8986961D1*
X9301038D2*
X9461847D1*
X538100Y4793917D2*
X4017590D1*
X4173909D2*
X5088408D1*
X5198591D2*
X6418684D1*
X6598815D2*
X6777359D1*
X8079903D2*
X9018339D1*
X9269660D2*
X9461847D1*
X538100Y4730750D2*
X6418684D1*
X6598815D2*
X6781080D1*
X7072337D2*
X7146205D1*
X8113514D2*
X8987705D1*
X9300294D2*
X9461847D1*
X538100Y4667583D2*
X6406405D1*
X6611094D2*
X6760244D1*
X7009209D2*
X7199783D1*
X8103716D2*
X8984853D1*
X9303146D2*
X9461847D1*
X538100Y4604417D2*
X6396235D1*
X6621264D2*
X6780584D1*
X6967165D2*
X9010401D1*
X9277598D2*
X9461847D1*
X538100Y4541250D2*
X5613648D1*
X5721101D2*
X6042273D1*
X6149726D2*
X6429102D1*
X6588397D2*
X7756773D1*
X7864226D2*
X8990682D1*
X9297317D2*
X9461847D1*
X538100Y4478083D2*
X5558953D1*
X5775796D2*
X5987578D1*
X7918921D2*
X8983488D1*
X9304511D2*
X9461847D1*
X538100Y4414917D2*
X5558085D1*
X5776664D2*
X5986710D1*
X8181975D2*
X9003704D1*
X9284295D2*
X9461847D1*
X538100Y4351750D2*
X5581277D1*
X5753472D2*
X6036567D1*
X6155432D2*
X7094487D1*
X8236049D2*
X8994650D1*
X9293349D2*
X9461847D1*
X538100Y4288583D2*
X5581277D1*
X5753472D2*
X7063358D1*
X8271892D2*
X8982868D1*
X9305131D2*
X9461847D1*
X538100Y4225417D2*
X5581277D1*
X5753472D2*
X7071791D1*
X8314556D2*
X8998123D1*
X9289876D2*
X9461847D1*
X538100Y4162250D2*
X5581277D1*
X5753472D2*
X7714357D1*
X8351142D2*
X8999487D1*
X9288512D2*
X9461847D1*
X538100Y4099083D2*
X5577061D1*
X5757688D2*
X7380858D1*
X7478142D2*
X7650733D1*
X8343205D2*
X8982992D1*
X9305007D2*
X9461847D1*
X538100Y4035917D2*
X3995142D1*
X4196357D2*
X5553744D1*
X5781005D2*
X7321822D1*
X7807052D2*
X8993534D1*
X9294465D2*
X9461847D1*
X538100Y3972750D2*
X3982739D1*
X4208760D2*
X5571728D1*
X5763021D2*
X7319466D1*
X7809408D2*
X8207846D1*
X8302153D2*
X9005317D1*
X9282683D2*
X9461847D1*
X538100Y3909583D2*
X4005684D1*
X4185815D2*
X7366223D1*
X7492776D2*
X7623695D1*
X8362429D2*
X8983860D1*
X9304139D2*
X9461847D1*
X538100Y3846417D2*
X4005684D1*
X4185815D2*
X7610177D1*
X8439447D2*
X8989938D1*
X9298061D2*
X9461847D1*
X538100Y3783250D2*
X4005684D1*
X4185815D2*
X7563296D1*
X8502203D2*
X9012262D1*
X9275737D2*
X9461847D1*
X538100Y3720083D2*
X4005684D1*
X4185815D2*
X4964509D1*
X5163740D2*
X7524353D1*
X8541146D2*
X8985349D1*
X9302650D2*
X9461847D1*
X538100Y3656917D2*
X4005684D1*
X4185815D2*
X4950990D1*
X5188545D2*
X7530802D1*
X8624366D2*
X8986961D1*
X9301038D2*
X9461847D1*
X538100Y3593750D2*
X4005684D1*
X4185815D2*
X4979516D1*
X5197847D2*
X7608068D1*
X7663597D2*
X7697287D1*
X8675588D2*
X8982868D1*
X9305131D2*
X9461847D1*
X538100Y3530583D2*
X4005684D1*
X4185815D2*
X5025652D1*
X5197847D2*
X7703815D1*
X8724453D2*
X8982868D1*
X9305131D2*
X9461847D1*
X538100Y3467417D2*
X3984476D1*
X4207023D2*
X5025652D1*
X5197847D2*
X7632253D1*
X8790185D2*
X8982868D1*
X9305131D2*
X9461847D1*
X538100Y3404250D2*
X3990057D1*
X4201442D2*
X5025652D1*
X5197847D2*
X7532786D1*
X8861747D2*
X8982868D1*
X9305131D2*
X9461847D1*
X538100Y3341083D2*
X4062238D1*
X4129261D2*
X5025652D1*
X5197847D2*
X7506617D1*
X8929340D2*
X8982868D1*
X9305131D2*
X9461847D1*
X538100Y3277917D2*
X5025652D1*
X5197847D2*
X7521996D1*
X8990855D2*
X9029896D1*
X9226376D2*
X9461847D1*
X538100Y3214750D2*
X5025652D1*
X5197847D2*
X6489129D1*
X6560120D2*
X7565404D1*
X9241507D2*
X9461847D1*
X538100Y3151583D2*
X5025652D1*
X5197847D2*
X6418808D1*
X6630441D2*
X7456636D1*
X9214842D2*
X9461847D1*
X538100Y3088417D2*
X5025652D1*
X5197847D2*
X6396359D1*
X6635774D2*
X7413972D1*
X9251801D2*
X9461847D1*
X538100Y3025250D2*
X5025900D1*
X6614690D2*
X6759128D1*
X6893371D2*
X7418313D1*
X9295457D2*
X9461847D1*
X538100Y2962083D2*
X5062611D1*
X6614690D2*
X6715596D1*
X6983660D2*
X7484541D1*
X7564958D2*
X8983116D1*
X9304883D2*
X9461847D1*
X538100Y2898917D2*
X3633365D1*
X3827140D2*
X6193209D1*
X6250796D2*
X6358284D1*
X6637883D2*
X6719565D1*
X7043687D2*
X9000976D1*
X9287023D2*
X9461847D1*
X538100Y2835750D2*
X3616746D1*
X3843759D2*
X6116811D1*
X7055222D2*
X8996883D1*
X9291116D2*
X9461847D1*
X538100Y2772583D2*
X664368D1*
X986631D2*
X3640187D1*
X3820318D2*
X3911550D1*
X3962330D2*
X5927675D1*
X5978569D2*
X6110609D1*
X7055222D2*
X8982868D1*
X9305131D2*
X9461847D1*
X538100Y2709417D2*
X664368D1*
X986631D2*
X3640187D1*
X6058073D2*
X6149677D1*
X6294462D2*
X6801544D1*
X7055222D2*
X8995891D1*
X9292108D2*
X9461847D1*
X538100Y2646250D2*
X664368D1*
X986631D2*
X3640187D1*
X6064770D2*
X6883027D1*
X7055222D2*
X9002092D1*
X9285907D2*
X9461847D1*
X538100Y2583083D2*
X664368D1*
X986631D2*
X3640187D1*
X3820318D2*
X3863801D1*
X4010198D2*
X5107880D1*
X6838429D2*
X6883027D1*
X7055222D2*
X8983240D1*
X9304759D2*
X9461847D1*
X538100Y2519917D2*
X664368D1*
X986631D2*
X3640187D1*
X3820318D2*
X5078114D1*
X7055222D2*
X8991674D1*
X9296325D2*
X9461847D1*
X538100Y2456750D2*
X664740D1*
X986259D2*
X3640187D1*
X3820318D2*
X3841537D1*
X7055222D2*
X7715721D1*
X7840166D2*
X9008417D1*
X9279582D2*
X9461847D1*
X538100Y2393583D2*
X682848D1*
X968151D2*
X3640187D1*
X5955630D2*
X6752059D1*
X7887791D2*
X8984481D1*
X9303518D2*
X9461847D1*
X538100Y2330417D2*
X746348D1*
X904651D2*
X3640187D1*
X3820318D2*
X3846569D1*
X5932437D2*
X6931521D1*
X8397527D2*
X8988449D1*
X9299550D2*
X9461847D1*
X538100Y2267250D2*
X3640187D1*
X3820318D2*
X5220617D1*
X8527132D2*
X9015983D1*
X9272017D2*
X9461847D1*
X538100Y2204083D2*
X747216D1*
X903783D2*
X3626668D1*
X3833837D2*
X5189487D1*
X8558262D2*
X8986341D1*
X9301658D2*
X9461847D1*
X538100Y2140917D2*
X683096D1*
X967903D2*
X3618110D1*
X3842394D2*
X5200898D1*
X8546851D2*
X8985969D1*
X9302030D2*
X9461847D1*
X538100Y2077750D2*
X664740D1*
X986259D2*
X3653581D1*
X3806924D2*
X5135413D1*
X5881836D2*
X6412483D1*
X6636767D2*
X6950000D1*
X8431262D2*
X9014494D1*
X9273505D2*
X9461847D1*
X538100Y2014583D2*
X673546D1*
X977453D2*
X5126483D1*
X5890766D2*
X6434559D1*
X6614690D2*
X6971828D1*
X8421712D2*
X8988945D1*
X9299054D2*
X9461847D1*
X538100Y1951417D2*
X716210D1*
X934789D2*
X5161582D1*
X5855667D2*
X6434559D1*
X6614690D2*
X6997625D1*
X8430766D2*
X8984108D1*
X9303891D2*
X9461847D1*
X538100Y1888250D2*
X5459486D1*
X5684763D2*
X6434559D1*
X6614690D2*
X7018957D1*
X8431014D2*
X9007177D1*
X9280822D2*
X9461847D1*
X538100Y1825083D2*
X5469904D1*
X5674345D2*
X6434559D1*
X7057578D2*
X7129834D1*
X8420844D2*
X8992418D1*
X9295581D2*
X9461847D1*
X538100Y1761917D2*
X5486027D1*
X5658222D2*
X6434559D1*
X7109792D2*
X8983116D1*
X9304883D2*
X9461847D1*
X538100Y1698750D2*
X5486027D1*
X5658222D2*
X6434559D1*
X7109792D2*
X9000976D1*
X9287023D2*
X9461847D1*
X538100Y1635583D2*
X5478214D1*
X5658222D2*
X6434559D1*
X6614690D2*
X6944295D1*
X7057454D2*
X8996759D1*
X9291240D2*
X9461847D1*
X538100Y1572417D2*
X5443859D1*
X5668640D2*
X6434559D1*
X6614690D2*
X8982868D1*
X9305131D2*
X9461847D1*
X538100Y1509250D2*
X5453161D1*
X5659338D2*
X6434559D1*
X6614690D2*
X8995891D1*
X9292108D2*
X9461847D1*
X538100Y1446083D2*
X6434559D1*
X6614690D2*
X9001968D1*
X9286031D2*
X9461847D1*
X538100Y1382917D2*
X6434559D1*
X6614690D2*
X8983240D1*
X9304759D2*
X9461847D1*
X538100Y1319750D2*
X6434559D1*
X6614690D2*
X8991798D1*
X9296201D2*
X9461847D1*
X538100Y1256583D2*
X6434559D1*
X6614690D2*
X9008293D1*
X9279706D2*
X9461847D1*
X538100Y1193417D2*
X6434559D1*
X6614690D2*
X8984481D1*
X9303518D2*
X9461847D1*
X538100Y1130250D2*
X6434559D1*
X6614690D2*
X8988449D1*
X9299550D2*
X9461847D1*
X538100Y1067083D2*
X6434559D1*
X6614690D2*
X9015858D1*
X9272141D2*
X9461847D1*
X538100Y1003917D2*
X6434559D1*
X6614690D2*
X8986341D1*
X9301658D2*
X9461847D1*
X538100Y940750D2*
X6434559D1*
X6614690D2*
X8985969D1*
X9302030D2*
X9461847D1*
X538100Y877583D2*
X6434559D1*
X6614690D2*
X9014618D1*
X9273381D2*
X9461847D1*
X538100Y814417D2*
X6434559D1*
X6614690D2*
X8988945D1*
X9299054D2*
X9461847D1*
X538100Y751250D2*
X6434559D1*
X6628457D2*
X8984233D1*
X9303767D2*
X9461847D1*
X538100Y688083D2*
X6445969D1*
X6691585D2*
X8982868D1*
X9305131D2*
X9461847D1*
X538100Y624917D2*
X6505128D1*
X6782742D2*
X8982868D1*
X9305131D2*
X9461847D1*
X538100Y561750D2*
X6568380D1*
X6796633D2*
X8982868D1*
X9305131D2*
X9461847D1*
X8959960Y9296290D2*
X9232790D1*
Y8991710D1*
X9193723D1*
X9203705Y8979514D1*
X9216191Y8959138D1*
X9225336Y8937060D1*
X9230915Y8913823D1*
X9232790Y8890000D1*
X9230915Y8866177D1*
X9225336Y8842940D1*
X9216191Y8820862D1*
X9203705Y8800486D1*
X9188185Y8782315D1*
X9170014Y8766795D1*
X9149638Y8754309D1*
X9127560Y8745164D1*
X9104323Y8739585D1*
X9080500Y8737710D1*
X9056677Y8739585D1*
X9033440Y8745164D1*
X9011362Y8754309D1*
X8990986Y8766795D1*
X8972815Y8782315D1*
X8957295Y8800486D1*
X8944809Y8820862D1*
X8935664Y8842940D1*
X8930085Y8866177D1*
X8928210Y8890000D1*
X8930085Y8913823D1*
X8935664Y8937060D1*
X8944809Y8959138D1*
X8957295Y8979514D1*
X8967266Y8991683D1*
X8928210Y8991710D1*
Y9296290D1*
X8959960D1*
X9232321Y8370051D2*
X9228582Y8346449D1*
X9221198Y8323721D1*
X9210349Y8302429D1*
X9196302Y8283096D1*
X9179404Y8266198D1*
X9164460Y8255084D1*
X9179404Y8243802D1*
X9196302Y8226904D1*
X9210349Y8207571D1*
X9221198Y8186279D1*
X9228582Y8163551D1*
X9232321Y8139949D1*
Y8116051D1*
X9228582Y8092449D1*
X9221198Y8069721D1*
X9210349Y8048429D1*
X9196302Y8029096D1*
X9179404Y8012198D1*
X9164460Y8001084D1*
X9179404Y7989802D1*
X9196302Y7972904D1*
X9210349Y7953571D1*
X9221198Y7932279D1*
X9228582Y7909551D1*
X9232321Y7885949D1*
Y7862051D1*
X9228582Y7838449D1*
X9221198Y7815721D1*
X9210349Y7794429D1*
X9196302Y7775096D1*
X9179404Y7758198D1*
X9160071Y7744151D1*
X9138779Y7733302D1*
X9116051Y7725918D1*
X9092449Y7722179D1*
X9068551D1*
X9044949Y7725918D1*
X9022221Y7733302D1*
X9000929Y7744151D1*
X8981596Y7758198D1*
X8964698Y7775096D1*
X8950651Y7794429D1*
X8939802Y7815721D1*
X8932418Y7838449D1*
X8928679Y7862051D1*
Y7885949D1*
X8932418Y7909551D1*
X8939802Y7932279D1*
X8950651Y7953571D1*
X8964698Y7972904D1*
X8981596Y7989802D1*
X8996540Y8000916D1*
X8981596Y8012198D1*
X8964698Y8029096D1*
X8950651Y8048429D1*
X8939802Y8069721D1*
X8932418Y8092449D1*
X8928679Y8116051D1*
Y8139949D1*
X8932418Y8163551D1*
X8939802Y8186279D1*
X8950651Y8207571D1*
X8964698Y8226904D1*
X8981596Y8243802D1*
X8996540Y8254916D1*
X8981596Y8266198D1*
X8964698Y8283096D1*
X8950651Y8302429D1*
X8939802Y8323721D1*
X8932418Y8346449D1*
X8928679Y8370051D1*
Y8393949D1*
X8932418Y8417551D1*
X8939802Y8440279D1*
X8950651Y8461571D1*
X8964698Y8480904D1*
X8981596Y8497802D1*
X9000929Y8511849D1*
X9022221Y8522698D1*
X9044949Y8530082D1*
X9068551Y8533821D1*
X9092449D1*
X9116051Y8530082D1*
X9138779Y8522698D1*
X9160071Y8511849D1*
X9179404Y8497802D1*
X9196302Y8480904D1*
X9210349Y8461571D1*
X9221198Y8440279D1*
X9228582Y8417551D1*
X9232321Y8393949D1*
Y8370051D1*
X952416Y9060040D2*
X941302Y9045096D1*
X924404Y9028198D1*
X905071Y9014151D1*
X883779Y9003302D1*
X861051Y8995918D1*
X837449Y8992179D1*
X813551D1*
X789949Y8995918D1*
X767221Y9003302D1*
X745929Y9014151D1*
X726596Y9028198D1*
X709698Y9045096D1*
X695651Y9064429D1*
X684802Y9085721D1*
X677418Y9108449D1*
X673679Y9132051D1*
Y9155949D1*
X677418Y9179551D1*
X684802Y9202279D1*
X695651Y9223571D1*
X709698Y9242904D1*
X726596Y9259802D1*
X745929Y9273849D1*
X767221Y9284698D1*
X789949Y9292082D1*
X813551Y9295821D1*
X837449D1*
X861051Y9292082D1*
X883779Y9284698D1*
X905071Y9273849D1*
X924404Y9259802D1*
X941302Y9242904D1*
X952416Y9227960D1*
X963698Y9242904D1*
X980596Y9259802D1*
X995540Y9270916D1*
X980596Y9282198D1*
X963698Y9299096D1*
X949651Y9318429D1*
X938802Y9339721D1*
X931418Y9362449D1*
X927679Y9386051D1*
Y9409949D1*
X931418Y9433551D1*
X938802Y9456279D1*
X944470Y9468320D1*
X531750Y9468250D1*
Y531750D1*
X6583722D1*
X6579051Y546454D1*
X6576831Y559585D1*
X6460912Y675833D1*
X6449969Y692210D1*
X6443152Y710690D1*
X6440836Y730250D1*
X6440870Y731097D1*
X6440836Y2028403D1*
X6429031Y2046791D1*
X6422588Y2062346D1*
X6418658Y2078716D1*
X6417337Y2095500D1*
X6418035Y2107022D1*
X5855271Y2106960D1*
X5865299Y2095063D1*
X5874096Y2080709D1*
X5880539Y2065154D1*
X5884469Y2048784D1*
X5885790Y2032000D1*
X5884469Y2015216D1*
X5880539Y1998846D1*
X5874096Y1983291D1*
X5865299Y1968937D1*
X5854365Y1956135D1*
X5841563Y1945201D1*
X5827209Y1936404D1*
X5811654Y1929961D1*
X5795284Y1926031D1*
X5778500Y1924710D1*
X5761716Y1926031D1*
X5745346Y1929961D1*
X5729791Y1936404D1*
X5711586Y1948236D1*
X5648896Y1948210D1*
X5658926Y1936313D1*
X5667723Y1921959D1*
X5674166Y1906404D1*
X5678096Y1890034D1*
X5679417Y1873250D1*
X5678096Y1856466D1*
X5674166Y1840096D1*
X5667723Y1824541D1*
X5658926Y1810187D1*
X5651901Y1801613D1*
X5651917Y1604243D1*
X5658289Y1588904D1*
X5662219Y1572534D1*
X5663540Y1555750D1*
X5662219Y1538966D1*
X5658289Y1522596D1*
X5651846Y1507041D1*
X5643049Y1492687D1*
X5632115Y1479885D1*
X5619313Y1468951D1*
X5604959Y1460154D1*
X5589404Y1453711D1*
X5573034Y1449781D1*
X5556250Y1448460D1*
X5539466Y1449781D1*
X5523096Y1453711D1*
X5507541Y1460154D1*
X5493187Y1468951D1*
X5480385Y1479885D1*
X5469451Y1492687D1*
X5460654Y1507041D1*
X5454211Y1522596D1*
X5450281Y1538966D1*
X5448960Y1555750D1*
X5450281Y1572534D1*
X5454211Y1588904D1*
X5460654Y1604459D1*
X5469451Y1618813D1*
X5480385Y1631615D1*
X5492385Y1641918D1*
X5492337Y1801442D1*
X5480647Y1817191D1*
X5473004Y1832192D1*
X5467801Y1848204D1*
X5465167Y1864832D1*
Y1881668D1*
X5467801Y1898296D1*
X5473004Y1914308D1*
X5480647Y1929309D1*
X5490543Y1942929D1*
X5495435Y1948221D1*
X5305847Y1948210D1*
X5287459Y1936404D1*
X5271904Y1929961D1*
X5255534Y1926031D1*
X5238750Y1924710D1*
X5221966Y1926031D1*
X5205596Y1929961D1*
X5190041Y1936404D1*
X5175687Y1945201D1*
X5162885Y1956135D1*
X5151951Y1968937D1*
X5143154Y1983291D1*
X5136711Y1998846D1*
X5132781Y2015216D1*
X5131460Y2032000D1*
X5132781Y2048784D1*
X5136711Y2065154D1*
X5143154Y2080709D1*
X5151951Y2095063D1*
X5162885Y2107865D1*
X5175687Y2118799D1*
X5190041Y2127596D1*
X5210378Y2135388D1*
X5203127Y2149692D1*
X5197924Y2165704D1*
X5195291Y2182332D1*
Y2199168D1*
X5197924Y2215796D1*
X5203127Y2231808D1*
X5210770Y2246809D1*
X5220666Y2260429D1*
X5232571Y2272334D1*
X5246191Y2282230D1*
X5261192Y2289873D1*
X5277204Y2295076D1*
X5293832Y2297709D1*
X5310668D1*
X5327296Y2295076D1*
X5343308Y2289873D1*
X5358309Y2282230D1*
X5369164Y2274514D1*
X6972226Y2274540D1*
X6975583Y2296358D1*
X6964194Y2304454D1*
X6908454Y2360194D1*
X6900819Y2370814D1*
X6883185Y2361504D1*
X6867173Y2356301D1*
X6850545Y2353667D1*
X6833709D1*
X6817080Y2356301D1*
X6801069Y2361504D1*
X6786068Y2369147D1*
X6772447Y2379043D1*
X6760543Y2390947D1*
X6750647Y2404568D1*
X6743004Y2419569D1*
X6741193Y2424477D1*
X5945811Y2424460D1*
X5948959Y2405545D1*
Y2388709D1*
X5946326Y2372080D1*
X5941123Y2356069D1*
X5933480Y2341068D1*
X5923584Y2327447D1*
X5911679Y2315543D1*
X5898059Y2305647D1*
X5883058Y2298004D1*
X5867046Y2292801D1*
X5850418Y2290167D1*
X5833582D1*
X5816954Y2292801D1*
X5800942Y2298004D1*
X5785941Y2305647D1*
X5770363Y2317352D1*
X4008810Y2317337D1*
X3993059Y2305647D1*
X3978058Y2298004D1*
X3962046Y2292801D1*
X3945418Y2290167D1*
X3928582D1*
X3911954Y2292801D1*
X3895942Y2298004D1*
X3880941Y2305647D1*
X3867321Y2315543D1*
X3855416Y2327447D1*
X3845520Y2341068D1*
X3837877Y2356069D1*
X3832674Y2372080D1*
X3830041Y2388709D1*
Y2405545D1*
X3832674Y2422173D1*
X3837877Y2438185D1*
X3845520Y2453186D1*
X3855416Y2466806D1*
X3867321Y2478711D1*
X3880941Y2488606D1*
X3895942Y2496250D1*
X3911954Y2501452D1*
X3928582Y2504086D1*
X3945418D1*
X3962046Y2501452D1*
X3978058Y2496250D1*
X3993059Y2488606D1*
X4008637Y2476901D1*
X5088558Y2476917D1*
X5085158Y2491466D1*
X5083837Y2508250D1*
X5085158Y2525034D1*
X5089088Y2541404D1*
X5095531Y2556959D1*
X5104327Y2571313D1*
X5114435Y2583221D1*
X4004098Y2583210D1*
X3985709Y2571404D1*
X3970154Y2564961D1*
X3953784Y2561031D1*
X3937000Y2559710D1*
X3920216Y2561031D1*
X3903846Y2564961D1*
X3888291Y2571404D1*
X3873937Y2580201D1*
X3861135Y2591135D1*
X3850201Y2603937D1*
X3841404Y2618291D1*
X3834961Y2633846D1*
X3831031Y2650216D1*
X3829710Y2667000D1*
X3831031Y2683784D1*
X3834961Y2700154D1*
X3841404Y2715709D1*
X3850201Y2730063D1*
X3861135Y2742865D1*
X3873937Y2753799D1*
X3888291Y2762596D1*
X3903846Y2769039D1*
X3920216Y2772969D1*
X3937000Y2774290D1*
X3953784Y2772969D1*
X3970154Y2769039D1*
X3985709Y2762596D1*
X4003914Y2750764D1*
X5886028Y2750790D1*
X5904418Y2762596D1*
X5919972Y2769039D1*
X5936343Y2772969D1*
X5953127Y2774290D1*
X5969911Y2772969D1*
X5986281Y2769039D1*
X6001835Y2762596D1*
X6016190Y2753799D1*
X6028992Y2742865D1*
X6039926Y2730063D1*
X6048723Y2715709D1*
X6055166Y2700154D1*
X6059096Y2683784D1*
X6060417Y2667000D1*
X6059096Y2650216D1*
X6055166Y2633846D1*
X6048723Y2618291D1*
X6039926Y2603937D1*
X6029819Y2592029D1*
X6801077Y2591782D1*
X6820396Y2587939D1*
X6838284Y2579693D1*
X6853752Y2567499D1*
X6867173Y2564952D1*
X6883185Y2559750D1*
X6889371Y2556898D1*
X6889336Y2687717D1*
X6865455Y2687041D1*
X6848827Y2689674D1*
X6832815Y2694877D1*
X6817814Y2702520D1*
X6802237Y2714225D1*
X6293816Y2714210D1*
X6278112Y2702520D1*
X6263111Y2694877D1*
X6247100Y2689674D1*
X6230471Y2687041D1*
X6213635D1*
X6197007Y2689674D1*
X6180995Y2694877D1*
X6165994Y2702520D1*
X6152374Y2712416D1*
X6140469Y2724321D1*
X6130574Y2737941D1*
X6122930Y2752942D1*
X6117728Y2768954D1*
X6115094Y2785582D1*
Y2802418D1*
X6117728Y2819046D1*
X6122930Y2835058D1*
X6130574Y2850059D1*
X6140469Y2863679D1*
X6152374Y2875584D1*
X6165994Y2885480D1*
X6180995Y2893123D1*
X6197007Y2898326D1*
X6213635Y2900959D1*
X6230471D1*
X6247100Y2898326D1*
X6263111Y2893123D1*
X6278112Y2885480D1*
X6293690Y2873775D1*
X6418382Y2873790D1*
X6412593Y2878531D1*
X6396222Y2882461D1*
X6380668Y2888904D1*
X6366313Y2897701D1*
X6357740Y2904725D1*
X5153116Y2904956D1*
X5134720Y2908615D1*
X5117686Y2916468D1*
X5102956Y2928080D1*
X5102375Y2928709D1*
X5051077Y2980307D1*
X5040656Y2995903D1*
X5034164Y3013500D1*
X5031960Y3032127D1*
X5031993Y3032983D1*
X5031960Y3564807D1*
X5015418Y3571531D1*
X5001063Y3580327D1*
X4988261Y3591261D1*
X4977327Y3604063D1*
X4968531Y3618418D1*
X4962088Y3633972D1*
X4958158Y3650343D1*
X4956837Y3667127D1*
X4958158Y3683911D1*
X4962088Y3700281D1*
X4968531Y3715835D1*
X4977327Y3730190D1*
X4988261Y3742992D1*
X5001063Y3753926D1*
X5015418Y3762723D1*
X5030972Y3769166D1*
X5047343Y3773096D1*
X5064127Y3774417D1*
X5080911Y3773096D1*
X5097281Y3769166D1*
X5112835Y3762723D1*
X5127190Y3753926D1*
X5139992Y3742992D1*
X5150926Y3730190D1*
X5159723Y3715835D1*
X5166166Y3700281D1*
X5170096Y3683911D1*
X5171198Y3672684D1*
X5179782Y3661194D1*
X5187635Y3644160D1*
X5191294Y3625764D1*
X5191540Y3065243D1*
X5254627Y3064290D1*
X6357567D1*
X6373318Y3075980D1*
X6388319Y3083623D1*
X6404330Y3088826D1*
X6419292Y3091262D1*
X6417337Y3111500D1*
X6418658Y3128284D1*
X6422588Y3144654D1*
X6429031Y3160209D1*
X6437827Y3174563D1*
X6448761Y3187365D1*
X6461563Y3198299D1*
X6475918Y3207096D1*
X6491472Y3213539D1*
X6507843Y3217469D1*
X6524627Y3218790D1*
X6541411Y3217469D1*
X6557781Y3213539D1*
X6573335Y3207096D1*
X6587690Y3198299D1*
X6600492Y3187365D1*
X6611426Y3174563D1*
X6620223Y3160209D1*
X6626666Y3144654D1*
X6630596Y3128284D1*
X6631917Y3111500D1*
X6630596Y3094716D1*
X6626666Y3078346D1*
X6620223Y3062791D1*
X6608391Y3044586D1*
X6608417Y2956347D1*
X6620223Y2937959D1*
X6626666Y2922404D1*
X6630596Y2906034D1*
X6631917Y2889250D1*
X6630747Y2873741D1*
X6739451Y2873810D1*
X6730654Y2888165D1*
X6724211Y2903719D1*
X6720281Y2920089D1*
X6718960Y2936873D1*
X6720281Y2953657D1*
X6724211Y2970028D1*
X6730654Y2985582D1*
X6739451Y2999937D1*
X6750385Y3012739D1*
X6763187Y3023673D1*
X6777541Y3032469D1*
X6793096Y3038912D1*
X6809466Y3042842D1*
X6826250Y3044163D1*
X6843034Y3042842D1*
X6859404Y3038912D1*
X6874959Y3032469D1*
X6889313Y3023673D1*
X6898418Y3016156D1*
X6914410Y3012758D1*
X6931444Y3004906D1*
X6946174Y2993294D1*
X6946755Y2992665D1*
X7029800Y2909320D1*
X7040220Y2893724D1*
X7046712Y2876127D1*
X7048917Y2857500D1*
X7048883Y2856644D1*
X7048917Y2445122D1*
X7706204Y2444917D1*
X7721874Y2456606D1*
X7736875Y2464250D1*
X7752887Y2469452D1*
X7769515Y2472086D1*
X7786351D1*
X7802980Y2469452D1*
X7818991Y2464250D1*
X7833992Y2456606D1*
X7847613Y2446711D1*
X7859517Y2434806D1*
X7869413Y2421186D1*
X7877056Y2406185D1*
X7882259Y2390173D1*
X7884893Y2373545D1*
X7884533Y2353670D1*
X8235529Y2353677D1*
X8253915Y2365483D1*
X8269469Y2371926D1*
X8285839Y2375856D1*
X8302623Y2377177D1*
X8319407Y2375856D1*
X8335778Y2371926D1*
X8351332Y2365483D1*
X8365687Y2356686D1*
X8378489Y2345752D1*
X8389423Y2332950D1*
X8398219Y2318595D1*
X8404662Y2303041D1*
X8407700Y2291157D1*
X8428716Y2296719D1*
X8445500Y2298040D1*
X8462284Y2296719D1*
X8478654Y2292789D1*
X8494209Y2286346D1*
X8508563Y2277549D1*
X8521365Y2266615D1*
X8532299Y2253813D1*
X8541096Y2239459D1*
X8547539Y2223904D1*
X8551469Y2207534D1*
X8552790Y2190750D1*
X8551469Y2173966D1*
X8547539Y2157596D1*
X8541096Y2142041D1*
X8532299Y2127687D1*
X8521365Y2114885D1*
X8508563Y2103951D1*
X8494209Y2095154D1*
X8478654Y2088711D1*
X8462284Y2084781D1*
X8445500Y2083460D1*
X8428716Y2084781D1*
X8423520Y2085815D1*
X8425790Y2063750D1*
X8424469Y2046966D1*
X8420539Y2030596D1*
X8414606Y2016147D1*
X8420539Y2001654D1*
X8424469Y1985284D1*
X8425790Y1968500D1*
X8424469Y1951716D1*
X8420539Y1935346D1*
X8414578Y1920837D1*
X8420539Y1906208D1*
X8424469Y1889837D1*
X8425790Y1873053D1*
X8424469Y1856269D1*
X8420539Y1839899D1*
X8414096Y1824345D1*
X8405299Y1809990D1*
X8394365Y1797188D1*
X8381563Y1786254D1*
X8367209Y1777457D1*
X8351654Y1771014D1*
X8335284Y1767084D1*
X8318500Y1765763D1*
X8301716Y1767084D1*
X8285346Y1771014D1*
X8269791Y1777457D1*
X8255437Y1786254D1*
X8246863Y1793279D1*
X7270874Y1793263D1*
X7255521Y1786888D1*
X7239151Y1782958D1*
X7222367Y1781637D1*
X7205583Y1782958D1*
X7189212Y1786888D1*
X7173658Y1793331D1*
X7159303Y1802127D1*
X7146501Y1813061D1*
X7135567Y1825863D1*
X7126771Y1840218D1*
X7124139Y1845926D1*
X7102835Y1845461D1*
X7086207Y1848094D1*
X7070195Y1853297D1*
X7055194Y1860940D1*
X7041574Y1870836D1*
X7029669Y1882741D1*
X7019774Y1896361D1*
X7012130Y1911362D1*
X7006928Y1927374D1*
X7004294Y1944002D1*
Y1960838D1*
X7006928Y1977466D1*
X7009636Y1986717D1*
X6993954Y1997823D1*
X6982049Y2009727D1*
X6972154Y2023348D1*
X6964510Y2038349D1*
X6959308Y2054360D1*
X6956674Y2070989D1*
Y2087825D1*
X6960031Y2107018D1*
X6631409Y2106960D1*
X6631586Y2087082D1*
X6628952Y2070454D1*
X6623750Y2054442D1*
X6616106Y2039441D1*
X6608391Y2028586D1*
X6608417Y1850058D1*
X6627332Y1853209D1*
X6644168D1*
X6660796Y1850576D1*
X6676808Y1845373D1*
X6691809Y1837730D1*
X6707387Y1826025D1*
X6952382Y1826040D1*
X6967719Y1832416D1*
X6984089Y1836346D1*
X7000873Y1837667D1*
X7017657Y1836346D1*
X7034028Y1832416D1*
X7049582Y1825973D1*
X7063937Y1817176D1*
X7076739Y1806242D1*
X7087673Y1793440D1*
X7096469Y1779085D1*
X7102912Y1763531D1*
X7106842Y1747161D1*
X7108163Y1730377D1*
X7106842Y1713593D1*
X7102912Y1697222D1*
X7096469Y1681668D1*
X7087673Y1667313D1*
X7076739Y1654511D1*
X7063937Y1643577D1*
X7049582Y1634781D1*
X7034028Y1628338D1*
X7017657Y1624408D1*
X7000873Y1623087D1*
X6984089Y1624408D1*
X6967719Y1628338D1*
X6952165Y1634781D1*
X6937810Y1643577D1*
X6925008Y1654511D1*
X6914705Y1666512D1*
X6707560Y1666460D1*
X6691809Y1654770D1*
X6676808Y1647127D1*
X6660796Y1641924D1*
X6644168Y1639291D1*
X6627332D1*
X6608392Y1642577D1*
X6608417Y764853D1*
X6695164Y678210D1*
X6716531Y673539D1*
X6732085Y667096D1*
X6746440Y658299D1*
X6759242Y647365D1*
X6770176Y634563D1*
X6778973Y620209D1*
X6785416Y604654D1*
X6789346Y588284D1*
X6790667Y571500D1*
X6789346Y554716D1*
X6785416Y538346D1*
X6782967Y531708D1*
X8989280Y531750D1*
X8989210Y726290D1*
X8996031D1*
X8991116Y747286D1*
X8989210Y771500D1*
X8991116Y795714D1*
X8996786Y819333D1*
X9006081Y841773D1*
X9018772Y862483D1*
X9025856Y871469D1*
X9012020Y890622D1*
X9000993Y912264D1*
X8993487Y935365D1*
X8989687Y959355D1*
Y983645D1*
X8993487Y1007635D1*
X9000993Y1030736D1*
X9012020Y1052378D1*
X9025856Y1071469D1*
X9012020Y1090622D1*
X9000993Y1112264D1*
X8993487Y1135365D1*
X8989687Y1159355D1*
Y1183645D1*
X8993487Y1207635D1*
X9000993Y1230736D1*
X9012020Y1252378D1*
X9025856Y1271469D1*
X9012020Y1290622D1*
X9000993Y1312264D1*
X8993487Y1335365D1*
X8989687Y1359355D1*
Y1383645D1*
X8993487Y1407635D1*
X9000993Y1430736D1*
X9012020Y1452378D1*
X9025856Y1471469D1*
X9012020Y1490622D1*
X9000993Y1512264D1*
X8993487Y1535365D1*
X8989687Y1559355D1*
Y1583645D1*
X8993487Y1607635D1*
X9000993Y1630736D1*
X9012020Y1652378D1*
X9025856Y1671469D1*
X9012020Y1690622D1*
X9000993Y1712264D1*
X8993487Y1735365D1*
X8989687Y1759355D1*
Y1783645D1*
X8993487Y1807635D1*
X9000993Y1830736D1*
X9012020Y1852378D1*
X9025856Y1871469D1*
X9012020Y1890622D1*
X9000993Y1912264D1*
X8993487Y1935365D1*
X8989687Y1959355D1*
Y1983645D1*
X8993487Y2007635D1*
X9000993Y2030736D1*
X9012020Y2052378D1*
X9025856Y2071469D1*
X9012020Y2090622D1*
X9000993Y2112264D1*
X8993487Y2135365D1*
X8989687Y2159355D1*
Y2183645D1*
X8993487Y2207635D1*
X9000993Y2230736D1*
X9012020Y2252378D1*
X9025856Y2271469D1*
X9012020Y2290622D1*
X9000993Y2312264D1*
X8993487Y2335365D1*
X8989687Y2359355D1*
Y2383645D1*
X8993487Y2407635D1*
X9000993Y2430736D1*
X9012020Y2452378D1*
X9025856Y2471469D1*
X9012020Y2490622D1*
X9000993Y2512264D1*
X8993487Y2535365D1*
X8989687Y2559355D1*
Y2583645D1*
X8993487Y2607635D1*
X9000993Y2630736D1*
X9012020Y2652378D1*
X9025856Y2671469D1*
X9012020Y2690622D1*
X9000993Y2712264D1*
X8993487Y2735365D1*
X8989687Y2759355D1*
Y2783645D1*
X8993487Y2807635D1*
X9000993Y2830736D1*
X9012020Y2852378D1*
X9025856Y2871469D1*
X9012020Y2890622D1*
X9000993Y2912264D1*
X8993487Y2935365D1*
X8989687Y2959355D1*
Y2983645D1*
X8990061Y2986804D1*
X8975637Y2984329D1*
X8397877Y2984083D1*
X7596561D1*
X7580809Y2972394D1*
X7565808Y2964750D1*
X7549796Y2959548D1*
X7533168Y2956914D1*
X7516332D1*
X7499704Y2959548D1*
X7483692Y2964750D1*
X7468691Y2972394D1*
X7455071Y2982289D1*
X7443166Y2994194D1*
X7433270Y3007814D1*
X7425627Y3022815D1*
X7420424Y3038827D1*
X7417791Y3055455D1*
Y3072291D1*
X7420424Y3088920D1*
X7425627Y3104931D1*
X7433270Y3119932D1*
X7443166Y3133553D1*
X7455071Y3145457D1*
X7468691Y3155353D1*
X7483692Y3162996D1*
X7499704Y3168199D1*
X7516332Y3170833D1*
X7533168D1*
X7547505Y3168655D1*
X7552627Y3184308D1*
X7560270Y3199309D1*
X7570166Y3212929D1*
X7582071Y3224834D1*
X7589808Y3230799D1*
X7571291Y3238154D1*
X7556937Y3246951D1*
X7544135Y3257885D1*
X7533201Y3270687D1*
X7524404Y3285041D1*
X7517961Y3300596D1*
X7514031Y3316966D1*
X7512710Y3333750D1*
X7514031Y3350534D1*
X7517961Y3366904D1*
X7524404Y3382459D1*
X7533201Y3396813D1*
X7544135Y3409615D1*
X7556937Y3420549D1*
X7571291Y3429346D1*
X7586846Y3435789D1*
X7603216Y3439719D1*
X7620000Y3441040D1*
X7627464Y3440747D1*
X7632004Y3454185D1*
X7639647Y3469186D1*
X7649543Y3482806D1*
X7661447Y3494711D1*
X7675068Y3504606D1*
X7690069Y3512250D1*
X7706174Y3517546D1*
X7711377Y3533558D1*
X7718747Y3548071D1*
X7711380Y3562569D1*
X7706178Y3578580D1*
X7703544Y3595209D1*
X7704012Y3615999D1*
X7691932Y3607394D1*
X7676931Y3599750D1*
X7660920Y3594548D1*
X7644291Y3591914D1*
X7627455D1*
X7610827Y3594548D1*
X7594815Y3599750D1*
X7579814Y3607394D1*
X7566194Y3617289D1*
X7554289Y3629194D1*
X7544394Y3642814D1*
X7536750Y3657815D1*
X7531548Y3673827D1*
X7528914Y3690455D1*
Y3707291D1*
X7531548Y3723920D1*
X7536750Y3739931D1*
X7544394Y3754932D1*
X7554289Y3768553D1*
X7566194Y3780457D1*
X7579814Y3790353D1*
X7593829Y3797542D1*
X7600250Y3819308D1*
X7607894Y3834309D1*
X7617789Y3847929D1*
X7625320Y3855791D1*
X7623833Y3873500D1*
X7625154Y3890284D1*
X7629084Y3906654D1*
X7632813Y3916321D1*
X7627737Y3920725D1*
X7501308Y3920710D1*
X7485559Y3909020D1*
X7470558Y3901377D1*
X7454546Y3896174D1*
X7437918Y3893541D1*
X7421082D1*
X7404454Y3896174D1*
X7388442Y3901377D1*
X7373441Y3909020D1*
X7359821Y3918916D1*
X7347916Y3930821D1*
X7338020Y3944441D1*
X7330377Y3959442D1*
X7325174Y3975454D1*
X7322541Y3992082D1*
Y4008918D1*
X7325174Y4025546D1*
X7330377Y4041558D1*
X7338020Y4056559D1*
X7347916Y4070179D1*
X7359821Y4082084D1*
X7373441Y4091980D1*
X7388442Y4099623D1*
X7404454Y4104826D1*
X7421082Y4107459D1*
X7437918D1*
X7454546Y4104826D1*
X7470558Y4099623D1*
X7485559Y4091980D1*
X7501137Y4080275D1*
X7627565Y4080290D1*
X7643314Y4091980D1*
X7658315Y4099623D1*
X7674327Y4104826D1*
X7690955Y4107459D1*
X7707791D1*
X7726478Y4104245D1*
X7722048Y4118327D1*
X7719414Y4134955D1*
Y4151791D1*
X7722048Y4168420D1*
X7727250Y4184431D1*
X7730102Y4190618D1*
X7247310Y4190587D1*
X7231556Y4178897D1*
X7216555Y4171254D1*
X7200543Y4166051D1*
X7183915Y4163417D1*
X7167079D1*
X7150450Y4166051D1*
X7134439Y4171254D1*
X7119438Y4178897D1*
X7105817Y4188793D1*
X7093913Y4200697D1*
X7084017Y4214318D1*
X7076374Y4229319D1*
X7071171Y4245330D1*
X7068537Y4261959D1*
Y4278795D1*
X7071171Y4295423D1*
X7076374Y4311435D1*
X7084017Y4326436D1*
X7093913Y4340056D1*
X7101444Y4347917D1*
X7099974Y4365265D1*
X6167810Y4365210D1*
X6152059Y4353520D1*
X6137058Y4345877D1*
X6121046Y4340674D1*
X6104418Y4338041D1*
X6087582D1*
X6070954Y4340674D1*
X6054942Y4345877D1*
X6039941Y4353520D1*
X6026321Y4363416D1*
X6014416Y4375321D1*
X6004520Y4388941D1*
X5996877Y4403942D1*
X5991674Y4419954D1*
X5989041Y4436582D1*
Y4453418D1*
X5991674Y4470046D1*
X5996877Y4486058D1*
X6004520Y4501059D1*
X6014416Y4514679D1*
X6026321Y4526584D1*
X6039941Y4536480D1*
X6054942Y4544123D1*
X6070954Y4549326D1*
X6087582Y4551959D1*
X6104418D1*
X6121046Y4549326D1*
X6137058Y4544123D1*
X6152059Y4536480D1*
X6167637Y4524775D1*
X6458521Y4524790D1*
X6445687Y4532824D1*
X6432885Y4543758D1*
X6421951Y4556560D1*
X6413154Y4570915D1*
X6406711Y4586469D1*
X6402781Y4602839D1*
X6401460Y4619623D1*
X6402781Y4636407D1*
X6406711Y4652778D1*
X6413154Y4668332D1*
X6424986Y4686537D1*
X6424960Y5139902D1*
X6413154Y5158291D1*
X6406711Y5173846D1*
X6402781Y5190216D1*
X6401460Y5207000D1*
X6402781Y5223784D1*
X6406711Y5240154D1*
X6413154Y5255709D1*
X6421951Y5270063D1*
X6432885Y5282865D1*
X6445687Y5293799D1*
X6460041Y5302596D1*
X6475596Y5309039D1*
X6491966Y5312969D1*
X6508750Y5314290D1*
X6525534Y5312969D1*
X6541904Y5309039D1*
X6557459Y5302596D1*
X6571813Y5293799D1*
X6584615Y5282865D1*
X6595549Y5270063D1*
X6604346Y5255709D1*
X6607694Y5248447D1*
X6626442Y5258496D1*
X6642454Y5263699D1*
X6659082Y5266333D1*
X6675918D1*
X6692546Y5263699D1*
X6708558Y5258496D1*
X6720257Y5252702D1*
X6731437Y5262049D1*
X6745791Y5270846D1*
X6761346Y5277289D1*
X6777716Y5281219D1*
X6794500Y5282540D1*
X6811284Y5281219D1*
X6827654Y5277289D1*
X6843209Y5270846D1*
X6857563Y5262049D1*
X6865895Y5255248D1*
X6881314Y5266730D1*
X6896315Y5274373D1*
X6912327Y5279576D1*
X6928955Y5282209D1*
X6945791D1*
X6962420Y5279576D1*
X6978431Y5274373D1*
X6993432Y5266730D1*
X7001310Y5262049D1*
X7015665Y5270846D1*
X7031219Y5277289D1*
X7047589Y5281219D1*
X7064373Y5282540D1*
X7081157Y5281219D1*
X7097528Y5277289D1*
X7113082Y5270846D1*
X7127437Y5262049D1*
X7140239Y5251115D1*
X7151173Y5238313D1*
X7159969Y5223959D1*
X7166412Y5208404D1*
X7170342Y5192034D1*
X7171663Y5175250D1*
X7170342Y5158466D1*
X7166412Y5142096D1*
X7159969Y5126541D1*
X7151173Y5112187D1*
X7140239Y5099385D1*
X7128238Y5089082D1*
X7128290Y5018610D1*
X7314180Y5204173D1*
X7329776Y5214594D1*
X7347373Y5221086D1*
X7366000Y5223290D1*
X7366856Y5223257D1*
X7897440Y5223290D1*
X7913191Y5234980D1*
X7928192Y5242623D1*
X7944204Y5247826D1*
X7960832Y5250459D1*
X7977668D1*
X7994296Y5247826D1*
X8010308Y5242623D1*
X8025309Y5234980D1*
X8038929Y5225084D1*
X8050834Y5213179D1*
X8060730Y5199559D1*
X8068373Y5184558D1*
X8073576Y5168546D1*
X8076209Y5151918D1*
Y5135082D1*
X8073576Y5118454D1*
X8068373Y5102442D1*
X8060730Y5087441D1*
X8050834Y5073821D1*
X8038929Y5061916D1*
X8025309Y5052020D1*
X8010308Y5044377D1*
X7994296Y5039174D1*
X7977668Y5036541D1*
X7960832D1*
X7944204Y5039174D1*
X7928192Y5044377D1*
X7913191Y5052020D1*
X7897613Y5063725D1*
X7399114Y5063710D1*
X7236939Y4901599D1*
X7255784Y4900219D1*
X7272154Y4896289D1*
X7287709Y4889846D1*
X7302063Y4881049D1*
X7310637Y4874025D1*
X7833940Y4874040D1*
X7849691Y4885730D1*
X7864692Y4893373D1*
X7880704Y4898576D1*
X7897332Y4901209D1*
X7914168D1*
X7930796Y4898576D1*
X7946808Y4893373D1*
X7961809Y4885730D1*
X7975429Y4875834D1*
X7987334Y4863929D1*
X7997230Y4850309D1*
X8004873Y4835308D1*
X8009352Y4821862D1*
X8026046Y4819199D1*
X8042058Y4813996D1*
X8057059Y4806353D1*
X8070679Y4796457D1*
X8082584Y4784553D1*
X8092480Y4770932D1*
X8100123Y4755931D1*
X8105326Y4739920D1*
X8107959Y4723291D1*
Y4706455D1*
X8105326Y4689827D1*
X8100123Y4673815D1*
X8092480Y4658814D1*
X8082584Y4645194D1*
X8070679Y4633289D1*
X8057059Y4623394D1*
X8042058Y4615750D1*
X8026046Y4610548D1*
X8009418Y4607914D1*
X7992582D1*
X7975954Y4610548D1*
X7959942Y4615750D1*
X7944941Y4623394D1*
X7929363Y4635099D1*
X7374310Y4635083D1*
X7358559Y4623394D1*
X7343558Y4615750D1*
X7327546Y4610548D1*
X7310918Y4607914D1*
X7294082D1*
X7277454Y4610548D1*
X7261442Y4615750D1*
X7246441Y4623394D1*
X7232821Y4633289D1*
X7220916Y4645194D1*
X7211020Y4658814D1*
X7203377Y4673815D1*
X7198174Y4689827D1*
X7197051Y4695475D1*
X7182941Y4702770D1*
X7169321Y4712666D1*
X7157416Y4724571D1*
X7147520Y4738191D1*
X7139877Y4753192D1*
X7134674Y4769204D1*
X7132041Y4785832D1*
X7131799Y4796519D1*
X6978202Y4642204D1*
X6973000Y4626192D1*
X6965356Y4611191D1*
X6955461Y4597571D1*
X6943556Y4585666D1*
X6929936Y4575770D1*
X6914935Y4568127D1*
X6898923Y4562924D1*
X6882295Y4560291D1*
X6865459D1*
X6848830Y4562924D1*
X6832819Y4568127D1*
X6817818Y4575770D1*
X6804197Y4585666D1*
X6792293Y4597571D1*
X6782397Y4611191D1*
X6774754Y4626192D1*
X6769551Y4642204D1*
X6766917Y4658832D1*
Y4675668D1*
X6769551Y4692296D1*
X6774754Y4708308D1*
X6782397Y4723309D1*
X6792293Y4736929D1*
X6802675Y4747427D1*
X6794154Y4761418D1*
X6787711Y4776972D1*
X6783781Y4793343D1*
X6782460Y4810127D1*
X6783781Y4826911D1*
X6787711Y4843281D1*
X6791330Y4852709D1*
X6782394Y4865191D1*
X6774750Y4880192D1*
X6769454Y4896301D1*
X6753442Y4901504D1*
X6738441Y4909147D1*
X6730563Y4913827D1*
X6716209Y4905031D1*
X6700654Y4898588D1*
X6684284Y4894658D1*
X6667500Y4893337D1*
X6650716Y4894658D1*
X6634346Y4898588D1*
X6618791Y4905031D1*
X6604437Y4913827D1*
X6592529Y4923935D1*
X6592540Y4686722D1*
X6604346Y4668332D1*
X6610789Y4652778D1*
X6614719Y4636407D1*
X6616040Y4619623D1*
X6614719Y4602839D1*
X6610789Y4586469D1*
X6604346Y4570915D1*
X6595549Y4556560D1*
X6584615Y4543758D1*
X6571813Y4532824D1*
X6558751Y4524751D1*
X7738690Y4524790D1*
X7754441Y4536480D1*
X7769442Y4544123D1*
X7785454Y4549326D1*
X7802082Y4551959D1*
X7818918D1*
X7835546Y4549326D1*
X7851558Y4544123D1*
X7866559Y4536480D1*
X7880179Y4526584D1*
X7892084Y4514679D1*
X7901980Y4501059D1*
X7909623Y4486058D1*
X7914826Y4470046D1*
X7917459Y4453418D1*
X7917776Y4445362D1*
X8008565Y4445417D1*
X8024314Y4457106D1*
X8039315Y4464750D1*
X8055327Y4469952D1*
X8071955Y4472586D1*
X8088791D1*
X8105420Y4469952D1*
X8121431Y4464750D1*
X8136432Y4457106D1*
X8150053Y4447211D1*
X8161957Y4435306D1*
X8171853Y4421686D1*
X8179496Y4406685D1*
X8184699Y4390673D1*
X8187329Y4374077D1*
X8208459Y4365973D1*
X8222813Y4357176D1*
X8235615Y4346242D1*
X8246549Y4333440D1*
X8255346Y4319085D1*
X8261789Y4303531D1*
X8265719Y4287161D1*
X8267040Y4270377D1*
X8265719Y4253593D1*
X8264531Y4247622D1*
X8280181Y4242496D1*
X8295182Y4234853D1*
X8308803Y4224957D1*
X8320707Y4213053D1*
X8330603Y4199432D1*
X8338246Y4184431D1*
X8343449Y4168420D1*
X8346083Y4151791D1*
Y4134955D1*
X8343449Y4118327D1*
X8338246Y4102315D1*
X8330603Y4087314D1*
X8320707Y4073694D1*
X8308803Y4061789D1*
X8295182Y4051894D1*
X8280181Y4044250D1*
X8264170Y4039048D1*
X8247541Y4036414D1*
X8230705D1*
X8214077Y4039048D1*
X8198065Y4044250D1*
X8183064Y4051894D1*
X8167487Y4063599D1*
X7898183Y4063583D1*
X7882432Y4051894D1*
X7867431Y4044250D1*
X7851420Y4039048D1*
X7834791Y4036414D1*
X7817955D1*
X7799268Y4039628D1*
X7803699Y4025546D1*
X7806333Y4008918D1*
Y3992082D1*
X7803699Y3975454D1*
X7797684Y3957679D1*
X8112123Y3957290D1*
X8187902D1*
X8206291Y3969096D1*
X8221846Y3975539D1*
X8238216Y3979469D1*
X8255000Y3980790D1*
X8271784Y3979469D1*
X8288154Y3975539D1*
X8303709Y3969096D1*
X8318063Y3960299D1*
X8330865Y3949365D1*
X8341799Y3936563D1*
X8350596Y3922209D1*
X8357039Y3906654D1*
X8360969Y3890284D1*
X8361600Y3884957D1*
X8383404Y3880289D1*
X8398959Y3873846D1*
X8413313Y3865049D1*
X8426115Y3854115D1*
X8437049Y3841313D1*
X8445846Y3826959D1*
X8452289Y3811404D1*
X8454670Y3803199D1*
X8470681Y3797996D1*
X8485682Y3790353D1*
X8499303Y3780457D1*
X8511207Y3768553D1*
X8521103Y3754932D1*
X8528746Y3739931D1*
X8533949Y3723920D1*
X8536223Y3710330D1*
X8558028Y3705666D1*
X8573582Y3699223D1*
X8587937Y3690426D1*
X8600739Y3679492D1*
X8611673Y3666690D1*
X8620469Y3652335D1*
X8626912Y3636781D1*
X8630842Y3620411D1*
X8631829Y3612077D1*
X8652959Y3603973D1*
X8667313Y3595176D1*
X8680115Y3584242D1*
X8691049Y3571440D1*
X8699846Y3557085D1*
X8706289Y3541531D1*
X8708670Y3533326D1*
X8724681Y3528123D1*
X8739682Y3520480D1*
X8753303Y3510584D1*
X8765207Y3498679D1*
X8775103Y3485059D1*
X8782746Y3470058D1*
X8788046Y3453949D1*
X8804058Y3448746D1*
X8819059Y3441103D1*
X8832679Y3431207D1*
X8844584Y3419303D1*
X8854480Y3405682D1*
X8862123Y3390681D1*
X8867420Y3374576D1*
X8883431Y3369373D1*
X8898432Y3361730D1*
X8912053Y3351834D1*
X8923957Y3339929D1*
X8933853Y3326309D1*
X8941496Y3311308D1*
X8946796Y3295202D1*
X8962808Y3290000D1*
X8977809Y3282356D1*
X8991429Y3272461D1*
X9003334Y3260556D1*
X9013230Y3246936D1*
X9021181Y3231101D1*
X9023801Y3247670D1*
X9029004Y3263681D1*
X9036647Y3278682D1*
X9046543Y3292303D1*
X9058447Y3304207D1*
X9072068Y3314103D1*
X9087069Y3321746D1*
X9103080Y3326949D1*
X9119709Y3329583D1*
X9136545D1*
X9153173Y3326949D1*
X9169185Y3321746D1*
X9184186Y3314103D1*
X9197806Y3304207D1*
X9209711Y3292303D1*
X9219606Y3278682D1*
X9227250Y3263681D1*
X9232452Y3247670D1*
X9235086Y3231041D1*
Y3214205D1*
X9232452Y3197577D1*
X9227250Y3181565D1*
X9219606Y3166564D1*
X9209711Y3152944D1*
X9197806Y3141039D1*
X9184186Y3131144D1*
X9170350Y3124038D1*
X9191833Y3118714D1*
X9214273Y3109419D1*
X9234983Y3096728D1*
X9253453Y3080953D1*
X9269228Y3062483D1*
X9281919Y3041773D1*
X9291214Y3019333D1*
X9296884Y2995714D1*
X9298790Y2971500D1*
X9296884Y2947286D1*
X9291214Y2923667D1*
X9281919Y2901227D1*
X9269228Y2880517D1*
X9262144Y2871531D1*
X9275980Y2852378D1*
X9287007Y2830736D1*
X9294513Y2807635D1*
X9298313Y2783645D1*
Y2759355D1*
X9294513Y2735365D1*
X9287007Y2712264D1*
X9275980Y2690622D1*
X9262144Y2671531D1*
X9275980Y2652378D1*
X9287007Y2630736D1*
X9294513Y2607635D1*
X9298313Y2583645D1*
Y2559355D1*
X9294513Y2535365D1*
X9287007Y2512264D1*
X9275980Y2490622D1*
X9262144Y2471531D1*
X9275980Y2452378D1*
X9287007Y2430736D1*
X9294513Y2407635D1*
X9298313Y2383645D1*
Y2359355D1*
X9294513Y2335365D1*
X9287007Y2312264D1*
X9275980Y2290622D1*
X9262144Y2271531D1*
X9275980Y2252378D1*
X9287007Y2230736D1*
X9294513Y2207635D1*
X9298313Y2183645D1*
Y2159355D1*
X9294513Y2135365D1*
X9287007Y2112264D1*
X9275980Y2090622D1*
X9262144Y2071531D1*
X9275980Y2052378D1*
X9287007Y2030736D1*
X9294513Y2007635D1*
X9298313Y1983645D1*
Y1959355D1*
X9294513Y1935365D1*
X9287007Y1912264D1*
X9275980Y1890622D1*
X9262144Y1871531D1*
X9275980Y1852378D1*
X9287007Y1830736D1*
X9294513Y1807635D1*
X9298313Y1783645D1*
Y1759355D1*
X9294513Y1735365D1*
X9287007Y1712264D1*
X9275980Y1690622D1*
X9262144Y1671531D1*
X9275980Y1652378D1*
X9287007Y1630736D1*
X9294513Y1607635D1*
X9298313Y1583645D1*
Y1559355D1*
X9294513Y1535365D1*
X9287007Y1512264D1*
X9275980Y1490622D1*
X9262144Y1471531D1*
X9275980Y1452378D1*
X9287007Y1430736D1*
X9294513Y1407635D1*
X9298313Y1383645D1*
Y1359355D1*
X9294513Y1335365D1*
X9287007Y1312264D1*
X9275980Y1290622D1*
X9262144Y1271531D1*
X9275980Y1252378D1*
X9287007Y1230736D1*
X9294513Y1207635D1*
X9298313Y1183645D1*
Y1159355D1*
X9294513Y1135365D1*
X9287007Y1112264D1*
X9275980Y1090622D1*
X9262144Y1071531D1*
X9275980Y1052378D1*
X9287007Y1030736D1*
X9294513Y1007635D1*
X9298313Y983645D1*
Y959355D1*
X9294513Y935365D1*
X9287007Y912264D1*
X9275980Y890622D1*
X9262144Y871531D1*
X9275980Y852378D1*
X9287007Y830736D1*
X9294513Y807635D1*
X9298313Y783645D1*
Y759355D1*
X9294513Y735365D1*
X9291949Y726272D1*
X9298790Y726290D1*
Y531697D1*
X9468250Y531750D1*
Y9468250D1*
X1214614D1*
X1224336Y9445060D1*
X1229915Y9421823D1*
X1231790Y9398000D1*
X1229915Y9374177D1*
X1224336Y9350940D1*
X1215191Y9328862D1*
X1202705Y9308486D1*
X1187185Y9290315D1*
X1169014Y9274795D1*
X1163460Y9271084D1*
X1178404Y9259802D1*
X1195302Y9242904D1*
X1209349Y9223571D1*
X1220198Y9202279D1*
X1227582Y9179551D1*
X1231321Y9155949D1*
Y9132051D1*
X1227582Y9108449D1*
X1220198Y9085721D1*
X1209349Y9064429D1*
X1195302Y9045096D1*
X1178404Y9028198D1*
X1159071Y9014151D1*
X1137779Y9003302D1*
X1115051Y8995918D1*
X1091449Y8992179D1*
X1067551D1*
X1043949Y8995918D1*
X1021221Y9003302D1*
X999929Y9014151D1*
X980596Y9028198D1*
X963698Y9045096D1*
X952584Y9060040D1*
X9291995Y3647290D2*
X9298790D1*
Y3337710D1*
X8989210D1*
Y3647290D1*
X8996031D1*
X8991116Y3668286D1*
X8989210Y3692500D1*
X8991116Y3716714D1*
X8996786Y3740333D1*
X9006081Y3762773D1*
X9018772Y3783483D1*
X9025856Y3792469D1*
X9012020Y3811622D1*
X9000993Y3833264D1*
X8993487Y3856365D1*
X8989687Y3880355D1*
Y3904645D1*
X8993487Y3928635D1*
X9000993Y3951736D1*
X9012020Y3973378D1*
X9025856Y3992469D1*
X9012020Y4011622D1*
X9000993Y4033264D1*
X8993487Y4056365D1*
X8989687Y4080355D1*
Y4104645D1*
X8993487Y4128635D1*
X9000993Y4151736D1*
X9012020Y4173378D1*
X9025856Y4192469D1*
X9012020Y4211622D1*
X9000993Y4233264D1*
X8993487Y4256365D1*
X8989687Y4280355D1*
Y4304645D1*
X8993487Y4328635D1*
X9000993Y4351736D1*
X9012020Y4373378D1*
X9025856Y4392469D1*
X9012020Y4411622D1*
X9000993Y4433264D1*
X8993487Y4456365D1*
X8989687Y4480355D1*
Y4504645D1*
X8993487Y4528635D1*
X9000993Y4551736D1*
X9012020Y4573378D1*
X9025856Y4592469D1*
X9012020Y4611622D1*
X9000993Y4633264D1*
X8993487Y4656365D1*
X8989687Y4680355D1*
Y4704645D1*
X8993487Y4728635D1*
X9000993Y4751736D1*
X9012020Y4773378D1*
X9025856Y4792469D1*
X9012020Y4811622D1*
X9000993Y4833264D1*
X8993487Y4856365D1*
X8989687Y4880355D1*
Y4904645D1*
X8993487Y4928635D1*
X9000993Y4951736D1*
X9012020Y4973378D1*
X9025856Y4992469D1*
X9012020Y5011622D1*
X9000993Y5033264D1*
X8993487Y5056365D1*
X8989687Y5080355D1*
Y5104645D1*
X8993487Y5128635D1*
X9000993Y5151736D1*
X9012020Y5173378D1*
X9025856Y5192469D1*
X9012020Y5211622D1*
X9000993Y5233264D1*
X8993487Y5256365D1*
X8989687Y5280355D1*
Y5304645D1*
X8993487Y5328635D1*
X9000993Y5351736D1*
X9012020Y5373378D1*
X9025856Y5392469D1*
X9012020Y5411622D1*
X9000993Y5433264D1*
X8993487Y5456365D1*
X8989687Y5480355D1*
Y5504645D1*
X8993487Y5528635D1*
X9000993Y5551736D1*
X9012020Y5573378D1*
X9025856Y5592469D1*
X9012020Y5611622D1*
X9000993Y5633264D1*
X8993487Y5656365D1*
X8989687Y5680355D1*
Y5704645D1*
X8993487Y5728635D1*
X9000993Y5751736D1*
X9012020Y5773378D1*
X9025856Y5792469D1*
X9012020Y5811622D1*
X9000993Y5833264D1*
X8993487Y5856365D1*
X8989687Y5880355D1*
Y5904645D1*
X8993487Y5928635D1*
X9000993Y5951736D1*
X9012020Y5973378D1*
X9025856Y5992469D1*
X9012020Y6011622D1*
X9000993Y6033264D1*
X8993487Y6056365D1*
X8989687Y6080355D1*
Y6104645D1*
X8993487Y6128635D1*
X9000993Y6151736D1*
X9012020Y6173378D1*
X9026297Y6193028D1*
X9043472Y6210203D1*
X9063122Y6224480D1*
X9084764Y6235507D1*
X9107865Y6243013D1*
X9131855Y6246813D1*
X9156145D1*
X9180135Y6243013D1*
X9203236Y6235507D1*
X9224878Y6224480D1*
X9244528Y6210203D1*
X9261703Y6193028D1*
X9275980Y6173378D1*
X9287007Y6151736D1*
X9294513Y6128635D1*
X9298313Y6104645D1*
Y6080355D1*
X9294513Y6056365D1*
X9287007Y6033264D1*
X9275980Y6011622D1*
X9262144Y5992531D1*
X9275980Y5973378D1*
X9287007Y5951736D1*
X9294513Y5928635D1*
X9298313Y5904645D1*
Y5880355D1*
X9294513Y5856365D1*
X9287007Y5833264D1*
X9275980Y5811622D1*
X9262144Y5792531D1*
X9275980Y5773378D1*
X9287007Y5751736D1*
X9294513Y5728635D1*
X9298313Y5704645D1*
Y5680355D1*
X9294513Y5656365D1*
X9287007Y5633264D1*
X9275980Y5611622D1*
X9262144Y5592531D1*
X9275980Y5573378D1*
X9287007Y5551736D1*
X9294513Y5528635D1*
X9298313Y5504645D1*
Y5480355D1*
X9294513Y5456365D1*
X9287007Y5433264D1*
X9275980Y5411622D1*
X9262144Y5392531D1*
X9275980Y5373378D1*
X9287007Y5351736D1*
X9294513Y5328635D1*
X9298313Y5304645D1*
Y5280355D1*
X9294513Y5256365D1*
X9287007Y5233264D1*
X9275980Y5211622D1*
X9262144Y5192531D1*
X9275980Y5173378D1*
X9287007Y5151736D1*
X9294513Y5128635D1*
X9298313Y5104645D1*
Y5080355D1*
X9294513Y5056365D1*
X9287007Y5033264D1*
X9275980Y5011622D1*
X9262144Y4992531D1*
X9275980Y4973378D1*
X9287007Y4951736D1*
X9294513Y4928635D1*
X9298313Y4904645D1*
Y4880355D1*
X9294513Y4856365D1*
X9287007Y4833264D1*
X9275980Y4811622D1*
X9262144Y4792531D1*
X9275980Y4773378D1*
X9287007Y4751736D1*
X9294513Y4728635D1*
X9298313Y4704645D1*
Y4680355D1*
X9294513Y4656365D1*
X9287007Y4633264D1*
X9275980Y4611622D1*
X9262144Y4592531D1*
X9275980Y4573378D1*
X9287007Y4551736D1*
X9294513Y4528635D1*
X9298313Y4504645D1*
Y4480355D1*
X9294513Y4456365D1*
X9287007Y4433264D1*
X9275980Y4411622D1*
X9262144Y4392531D1*
X9275980Y4373378D1*
X9287007Y4351736D1*
X9294513Y4328635D1*
X9298313Y4304645D1*
Y4280355D1*
X9294513Y4256365D1*
X9287007Y4233264D1*
X9275980Y4211622D1*
X9262144Y4192531D1*
X9275980Y4173378D1*
X9287007Y4151736D1*
X9294513Y4128635D1*
X9298313Y4104645D1*
Y4080355D1*
X9294513Y4056365D1*
X9287007Y4033264D1*
X9275980Y4011622D1*
X9262144Y3992531D1*
X9275980Y3973378D1*
X9287007Y3951736D1*
X9294513Y3928635D1*
X9298313Y3904645D1*
Y3880355D1*
X9294513Y3856365D1*
X9287007Y3833264D1*
X9275980Y3811622D1*
X9262144Y3792531D1*
X9275980Y3773378D1*
X9287007Y3751736D1*
X9294513Y3728635D1*
X9298313Y3704645D1*
Y3680355D1*
X9294513Y3656365D1*
X9291949Y3647272D1*
X9228495Y6822290D2*
X9235290D1*
Y6512710D1*
X8925710D1*
Y6822290D1*
X8932531D1*
X8927616Y6843286D1*
X8925710Y6867500D1*
X8927616Y6891714D1*
X8933286Y6915333D1*
X8942581Y6937773D1*
X8955272Y6958483D1*
X8971047Y6976953D1*
X8989517Y6992728D1*
X9010227Y7005419D1*
X9032667Y7014714D1*
X9056286Y7020384D1*
X9080500Y7022290D1*
X9104714Y7020384D1*
X9128333Y7014714D1*
X9150773Y7005419D1*
X9171483Y6992728D1*
X9189953Y6976953D1*
X9205728Y6958483D1*
X9218419Y6937773D1*
X9227714Y6915333D1*
X9233384Y6891714D1*
X9235290Y6867500D1*
X9233384Y6843286D1*
X9228449Y6822272D1*
X9234813Y7255355D2*
X9231013Y7231365D1*
X9223507Y7208264D1*
X9212480Y7186622D1*
X9198203Y7166972D1*
X9181028Y7149797D1*
X9161378Y7135520D1*
X9139736Y7124493D1*
X9116635Y7116987D1*
X9092645Y7113187D1*
X9068355D1*
X9044365Y7116987D1*
X9021264Y7124493D1*
X8999622Y7135520D1*
X8979972Y7149797D1*
X8962797Y7166972D1*
X8948520Y7186622D1*
X8937493Y7208264D1*
X8929987Y7231365D1*
X8926187Y7255355D1*
Y7279645D1*
X8929987Y7303635D1*
X8937493Y7326736D1*
X8948520Y7348378D1*
X8962797Y7368028D1*
X8979972Y7385203D1*
X8999622Y7399480D1*
X9021264Y7410507D1*
X9044365Y7418013D1*
X9068355Y7421813D1*
X9092645D1*
X9116635Y7418013D1*
X9139736Y7410507D1*
X9161378Y7399480D1*
X9181028Y7385203D1*
X9198203Y7368028D1*
X9212480Y7348378D1*
X9223507Y7326736D1*
X9231013Y7303635D1*
X9234813Y7279645D1*
Y7255355D1*
X702460Y2821790D2*
X980290D1*
Y2512210D1*
X973469D1*
X978384Y2491214D1*
X980290Y2467000D1*
X978384Y2442786D1*
X972714Y2419167D1*
X963419Y2396727D1*
X950728Y2376017D1*
X934953Y2357547D1*
X916483Y2341772D1*
X895773Y2329081D1*
X873333Y2319786D1*
X849714Y2314116D1*
X825500Y2312210D1*
X801286Y2314116D1*
X777667Y2319786D1*
X755227Y2329081D1*
X734517Y2341772D1*
X716047Y2357547D1*
X700272Y2376017D1*
X687581Y2396727D1*
X678286Y2419167D1*
X672616Y2442786D1*
X670710Y2467000D1*
X672616Y2491214D1*
X677551Y2512228D1*
X670710Y2512210D1*
Y2821790D1*
X702460D1*
X979813Y2054855D2*
X976013Y2030865D1*
X968507Y2007764D1*
X957480Y1986122D1*
X943203Y1966472D1*
X926028Y1949297D1*
X906378Y1935020D1*
X884736Y1923993D1*
X861635Y1916487D1*
X837645Y1912687D1*
X813355D1*
X789365Y1916487D1*
X766264Y1923993D1*
X744622Y1935020D1*
X724972Y1949297D1*
X707797Y1966472D1*
X693520Y1986122D1*
X682493Y2007764D1*
X674987Y2030865D1*
X671187Y2054855D1*
Y2079145D1*
X674987Y2103135D1*
X682493Y2126236D1*
X693520Y2147878D1*
X707797Y2167528D1*
X724972Y2184703D1*
X744622Y2198980D1*
X766264Y2210007D1*
X789365Y2217513D1*
X813355Y2221313D1*
X837645D1*
X861635Y2217513D1*
X884736Y2210007D1*
X906378Y2198980D1*
X926028Y2184703D1*
X943203Y2167528D1*
X957480Y2147878D1*
X968507Y2126236D1*
X976013Y2103135D1*
X979813Y2079145D1*
Y2054855D1*
X5975460Y8661290D2*
X6248290D1*
Y8356710D1*
X5943710D1*
Y8661290D1*
X5975460D1*
X6247821Y9147051D2*
X6244082Y9123449D1*
X6236698Y9100721D1*
X6225849Y9079429D1*
X6211802Y9060096D1*
X6194904Y9043198D1*
X6175571Y9029151D1*
X6154279Y9018302D1*
X6131551Y9010918D1*
X6107949Y9007179D1*
X6084051D1*
X6060449Y9010918D1*
X6037721Y9018302D1*
X6016429Y9029151D1*
X5997096Y9043198D1*
X5980198Y9060096D1*
X5966151Y9079429D1*
X5955302Y9100721D1*
X5947918Y9123449D1*
X5944179Y9147051D1*
Y9170949D1*
X5947918Y9194551D1*
X5955302Y9217279D1*
X5966151Y9238571D1*
X5980198Y9257904D1*
X5997096Y9274802D1*
X6016429Y9288849D1*
X6037721Y9299698D1*
X6060449Y9307082D1*
X6084051Y9310821D1*
X6107949D1*
X6131551Y9307082D1*
X6154279Y9299698D1*
X6175571Y9288849D1*
X6194904Y9274802D1*
X6211802Y9257904D1*
X6225849Y9238571D1*
X6236698Y9217279D1*
X6244082Y9194551D1*
X6247821Y9170949D1*
Y9147051D1*
X5063710Y4961310D2*
Y5135190D1*
X5052020Y5150941D1*
X5044377Y5165942D1*
X5039174Y5181954D1*
X5036541Y5198582D1*
Y5215418D1*
X5039174Y5232046D1*
X5044377Y5248058D1*
X5052020Y5263059D1*
X5061916Y5276679D1*
X5073821Y5288584D1*
X5087441Y5298480D1*
X5102442Y5306123D1*
X5118454Y5311326D1*
X5135082Y5313959D1*
X5151918D1*
X5168546Y5311326D1*
X5184558Y5306123D1*
X5199559Y5298480D1*
X5213179Y5288584D1*
X5225084Y5276679D1*
X5234980Y5263059D1*
X5242623Y5248058D1*
X5247826Y5232046D1*
X5250459Y5215418D1*
Y5198582D1*
X5247826Y5181954D1*
X5242623Y5165942D1*
X5234980Y5150941D1*
X5223275Y5135363D1*
X5223290Y4961310D1*
X5234980Y4945559D1*
X5242623Y4930558D1*
X5247826Y4914546D1*
X5250459Y4897918D1*
Y4881082D1*
X5247826Y4864454D1*
X5242623Y4848442D1*
X5234980Y4833441D1*
X5225084Y4819821D1*
X5213179Y4807916D1*
X5199559Y4798020D1*
X5184558Y4790377D1*
X5168546Y4785174D1*
X5151918Y4782541D1*
X5135082D1*
X5118454Y4785174D1*
X5102442Y4790377D1*
X5087441Y4798020D1*
X5073821Y4807916D1*
X5061916Y4819821D1*
X5052020Y4833441D1*
X5044377Y4848442D1*
X5039174Y4864454D1*
X5036541Y4881082D1*
Y4897918D1*
X5039174Y4914546D1*
X5044377Y4930558D1*
X5052020Y4945559D1*
X5063725Y4961137D1*
X6909696Y7980693D2*
X7322928Y8393925D1*
X7327461Y8415154D1*
X7333904Y8430709D1*
X7342701Y8445063D1*
X7353635Y8457865D1*
X7366437Y8468799D1*
X7380791Y8477596D1*
X7396346Y8484039D1*
X7412716Y8487969D1*
X7429500Y8489290D1*
X7446284Y8487969D1*
X7462654Y8484039D1*
X7478209Y8477596D1*
X7492563Y8468799D1*
X7505365Y8457865D1*
X7516299Y8445063D1*
X7525096Y8430709D1*
X7531539Y8415154D1*
X7535469Y8398784D1*
X7536790Y8382000D1*
X7535469Y8365216D1*
X7531539Y8348846D1*
X7525096Y8333291D1*
X7516299Y8318937D1*
X7505365Y8306135D1*
X7492563Y8295201D1*
X7478209Y8286404D1*
X7462654Y8279961D1*
X7441415Y8275455D1*
X7028072Y7862075D1*
X7023539Y7840846D1*
X7017096Y7825291D1*
X7008299Y7810937D1*
X6997365Y7798135D1*
X6984563Y7787201D1*
X6970209Y7778404D1*
X6954654Y7771961D1*
X6938284Y7768031D1*
X6921500Y7766710D1*
X6904716Y7768031D1*
X6888346Y7771961D1*
X6872791Y7778404D1*
X6858437Y7787201D1*
X6845635Y7798135D1*
X6834701Y7810937D1*
X6825904Y7825291D1*
X6819461Y7840846D1*
X6815531Y7857216D1*
X6814210Y7874000D1*
X6815531Y7890784D1*
X6819461Y7907154D1*
X6825904Y7922709D1*
X6834701Y7937063D1*
X6845635Y7949865D1*
X6858437Y7960799D1*
X6872791Y7969596D1*
X6888346Y7976039D1*
X6909585Y7980545D1*
X7183810Y5524917D2*
X7913315D1*
X7922799Y5532420D1*
X7913487Y5539975D1*
X7183808Y5539960D1*
X7174325Y5532457D1*
X7183637Y5524901D1*
X7913314Y5365336D2*
X7183808D1*
X7168059Y5353647D1*
X7153058Y5346004D1*
X7137046Y5340801D1*
X7120418Y5338167D1*
X7103582D1*
X7086954Y5340801D1*
X7070942Y5346004D1*
X7055941Y5353647D1*
X7042321Y5363543D1*
X7030416Y5375447D1*
X7020520Y5389068D1*
X7012877Y5404069D1*
X7007674Y5420080D1*
X7005041Y5436709D1*
Y5453545D1*
X7007674Y5470173D1*
X7012877Y5486185D1*
X7020520Y5501186D1*
X7030416Y5514806D1*
X7042321Y5526711D1*
X7049675Y5532420D1*
X7036135Y5543885D1*
X7025201Y5556687D1*
X7016404Y5571041D1*
X7009961Y5586596D1*
X7006031Y5602966D1*
X7004710Y5619750D1*
X7006031Y5636534D1*
X7009961Y5652904D1*
X7016404Y5668459D1*
X7025201Y5682813D1*
X7039880Y5699078D1*
X7025201Y5715437D1*
X7016404Y5729791D1*
X7009961Y5745346D1*
X7006031Y5761716D1*
X7004710Y5778500D1*
X7006031Y5795284D1*
X7009961Y5811654D1*
X7016404Y5827209D1*
X7020247Y5834071D1*
X7012877Y5848569D1*
X7007674Y5864580D1*
X7005041Y5881209D1*
Y5898045D1*
X7007674Y5914673D1*
X7012877Y5930685D1*
X7020520Y5945686D1*
X7030416Y5959306D1*
X7042321Y5971211D1*
X7055941Y5981106D1*
X7070942Y5988750D1*
X7086954Y5993952D1*
X7103582Y5996586D1*
X7120418D1*
X7137046Y5993952D1*
X7153058Y5988750D1*
X7168059Y5981106D1*
X7183637Y5969401D1*
X7913315Y5969417D1*
X7929064Y5981106D1*
X7944065Y5988750D1*
X7960077Y5993952D1*
X7976705Y5996586D1*
X7993541D1*
X8010170Y5993952D1*
X8026181Y5988750D1*
X8041182Y5981106D1*
X8054803Y5971211D1*
X8066707Y5959306D1*
X8076603Y5945686D1*
X8084246Y5930685D1*
X8089449Y5914673D1*
X8092083Y5898045D1*
Y5881209D1*
X8089449Y5864580D1*
X8084246Y5848569D1*
X8076876Y5834056D1*
X8084246Y5819558D1*
X8089449Y5803546D1*
X8092083Y5786918D1*
Y5770082D1*
X8089449Y5753454D1*
X8084246Y5737442D1*
X8076603Y5722441D1*
X8066707Y5708821D1*
X8057243Y5699172D1*
X8071923Y5682813D1*
X8080719Y5668459D1*
X8087162Y5652904D1*
X8091092Y5636534D1*
X8092413Y5619750D1*
X8091092Y5602966D1*
X8087162Y5586596D1*
X8080719Y5571041D1*
X8071923Y5556687D1*
X8060989Y5543885D1*
X8047448Y5532457D1*
X8060989Y5520992D1*
X8071923Y5508190D1*
X8080719Y5493835D1*
X8087162Y5478281D1*
X8091092Y5461911D1*
X8092413Y5445127D1*
X8091092Y5428343D1*
X8087162Y5411972D1*
X8080719Y5396418D1*
X8071923Y5382063D1*
X8060989Y5369261D1*
X8048187Y5358327D1*
X8033832Y5349531D1*
X8018278Y5343088D1*
X8001907Y5339158D1*
X7985123Y5337837D1*
X7968339Y5339158D1*
X7951969Y5343088D1*
X7936415Y5349531D1*
X7922060Y5358327D1*
X7913487Y5365352D1*
X5587583Y4104060D2*
Y4373190D1*
X5575894Y4388941D1*
X5568250Y4403942D1*
X5563048Y4419954D1*
X5560414Y4436582D1*
Y4453418D1*
X5563048Y4470046D1*
X5568250Y4486058D1*
X5575894Y4501059D1*
X5585789Y4514679D1*
X5597694Y4526584D1*
X5611314Y4536480D1*
X5626315Y4544123D1*
X5642327Y4549326D1*
X5658955Y4551959D1*
X5675791D1*
X5692420Y4549326D1*
X5708431Y4544123D1*
X5723432Y4536480D1*
X5737053Y4526584D1*
X5748957Y4514679D1*
X5758853Y4501059D1*
X5766496Y4486058D1*
X5771699Y4470046D1*
X5774333Y4453418D1*
Y4436582D1*
X5771699Y4419954D1*
X5766496Y4403942D1*
X5758853Y4388941D1*
X5747148Y4373363D1*
X5747163Y4104060D1*
X5758853Y4088309D1*
X5766496Y4073308D1*
X5771699Y4057296D1*
X5774333Y4040668D1*
Y4023832D1*
X5771699Y4007204D1*
X5766496Y3991192D1*
X5758853Y3976191D1*
X5748957Y3962571D1*
X5737053Y3950666D1*
X5723432Y3940770D1*
X5708431Y3933127D1*
X5692420Y3927924D1*
X5675791Y3925291D1*
X5658955D1*
X5642327Y3927924D1*
X5626315Y3933127D1*
X5611314Y3940770D1*
X5597694Y3950666D1*
X5585789Y3962571D1*
X5575894Y3976191D1*
X5568250Y3991192D1*
X5563048Y4007204D1*
X5560414Y4023832D1*
Y4040668D1*
X5563048Y4057296D1*
X5568250Y4073308D1*
X5575894Y4088309D1*
X5587599Y4103887D1*
X4011960Y3511970D2*
Y3917527D1*
X4000154Y3935918D1*
X3993711Y3951472D1*
X3989781Y3967843D1*
X3988460Y3984627D1*
X3989781Y4001411D1*
X3993711Y4017781D1*
X4000154Y4033335D1*
X4008951Y4047690D1*
X4019885Y4060492D1*
X4032687Y4071426D1*
X4047041Y4080223D1*
X4062596Y4086666D1*
X4078966Y4090596D1*
X4095750Y4091917D1*
X4112534Y4090596D1*
X4128904Y4086666D1*
X4144459Y4080223D1*
X4158813Y4071426D1*
X4171615Y4060492D1*
X4182549Y4047690D1*
X4191346Y4033335D1*
X4197789Y4017781D1*
X4201719Y4001411D1*
X4203040Y3984627D1*
X4201719Y3967843D1*
X4197789Y3951472D1*
X4191346Y3935918D1*
X4179514Y3917713D1*
X4179540Y3511973D1*
X4191346Y3493582D1*
X4197789Y3478028D1*
X4201719Y3461657D1*
X4203040Y3444873D1*
X4201719Y3428089D1*
X4197789Y3411719D1*
X4191346Y3396165D1*
X4182549Y3381810D1*
X4171615Y3369008D1*
X4158813Y3358074D1*
X4144459Y3349277D1*
X4128904Y3342834D1*
X4112534Y3338904D1*
X4095750Y3337583D1*
X4078966Y3338904D1*
X4062596Y3342834D1*
X4047041Y3349277D1*
X4032687Y3358074D1*
X4019885Y3369008D1*
X4008951Y3381810D1*
X4000154Y3396165D1*
X3993711Y3411719D1*
X3989781Y3428089D1*
X3988460Y3444873D1*
X3989781Y3461657D1*
X3993711Y3478028D1*
X4000154Y3493582D1*
X4011986Y3511787D1*
X4011960Y4940720D2*
Y5441527D1*
X4000154Y5459915D1*
X3993711Y5475469D1*
X3989781Y5491839D1*
X3988460Y5508623D1*
X3989781Y5525407D1*
X3993711Y5541778D1*
X4000154Y5557332D1*
X4008951Y5571687D1*
X4019885Y5584489D1*
X4032687Y5595423D1*
X4047041Y5604219D1*
X4062596Y5610662D1*
X4078966Y5614592D1*
X4095750Y5615913D1*
X4112534Y5614592D1*
X4128904Y5610662D1*
X4144459Y5604219D1*
X4158813Y5595423D1*
X4171615Y5584489D1*
X4182549Y5571687D1*
X4191346Y5557332D1*
X4197789Y5541778D1*
X4201719Y5525407D1*
X4203040Y5508623D1*
X4201719Y5491839D1*
X4197789Y5475469D1*
X4191346Y5459915D1*
X4179514Y5441709D1*
X4179540Y4940720D1*
X4191346Y4922332D1*
X4197789Y4906778D1*
X4201719Y4890407D1*
X4203040Y4873623D1*
X4201719Y4856839D1*
X4197789Y4840469D1*
X4191346Y4824915D1*
X4182549Y4810560D1*
X4171615Y4797758D1*
X4158813Y4786824D1*
X4144459Y4778027D1*
X4128904Y4771584D1*
X4112534Y4767654D1*
X4095750Y4766333D1*
X4078966Y4767654D1*
X4062596Y4771584D1*
X4047041Y4778027D1*
X4032687Y4786824D1*
X4019885Y4797758D1*
X4008951Y4810560D1*
X4000154Y4824915D1*
X3993711Y4840469D1*
X3989781Y4856839D1*
X3988460Y4873623D1*
X3989781Y4890407D1*
X3993711Y4906778D1*
X4000154Y4922332D1*
X4011986Y4940537D1*
X4527970Y8084790D2*
X5251027D1*
X5269418Y8096596D1*
X5284972Y8103039D1*
X5301343Y8106969D1*
X5318127Y8108290D1*
X5334911Y8106969D1*
X5351281Y8103039D1*
X5366835Y8096596D1*
X5381190Y8087799D1*
X5393992Y8076865D1*
X5404926Y8064063D1*
X5413723Y8049709D1*
X5420166Y8034154D1*
X5424096Y8017784D1*
X5425417Y8001000D1*
X5424096Y7984216D1*
X5420166Y7967846D1*
X5413723Y7952291D1*
X5404926Y7937937D1*
X5393992Y7925135D1*
X5381190Y7914201D1*
X5366835Y7905404D1*
X5351281Y7898961D1*
X5334911Y7895031D1*
X5318127Y7893710D1*
X5301343Y7895031D1*
X5284972Y7898961D1*
X5269418Y7905404D1*
X5251213Y7917236D1*
X4527973Y7917210D1*
X4509582Y7905404D1*
X4494028Y7898961D1*
X4477657Y7895031D1*
X4460873Y7893710D1*
X4444089Y7895031D1*
X4427719Y7898961D1*
X4412165Y7905404D1*
X4397810Y7914201D1*
X4385008Y7925135D1*
X4374074Y7937937D1*
X4365277Y7952291D1*
X4358834Y7967846D1*
X4354904Y7984216D1*
X4353583Y8001000D1*
X4354904Y8017784D1*
X4358834Y8034154D1*
X4365277Y8049709D1*
X4374074Y8064063D1*
X4385008Y8076865D1*
X4397810Y8087799D1*
X4412165Y8096596D1*
X4427719Y8103039D1*
X4444089Y8106969D1*
X4460873Y8108290D1*
X4477657Y8106969D1*
X4494028Y8103039D1*
X4509582Y8096596D1*
X4527787Y8084764D1*
X3814023Y2774230D2*
Y2225798D1*
X3825829Y2207482D1*
X3832272Y2191928D1*
X3836202Y2175557D1*
X3837523Y2158773D1*
X3836202Y2141989D1*
X3832272Y2125619D1*
X3825829Y2110065D1*
X3817033Y2095710D1*
X3806099Y2082908D1*
X3793297Y2071974D1*
X3778942Y2063177D1*
X3763388Y2056734D1*
X3747017Y2052804D1*
X3730233Y2051483D1*
X3713449Y2052804D1*
X3697079Y2056734D1*
X3681525Y2063177D1*
X3667170Y2071974D1*
X3654368Y2082908D1*
X3643434Y2095710D1*
X3634637Y2110065D1*
X3628194Y2125619D1*
X3624264Y2141989D1*
X3622943Y2158773D1*
X3624264Y2175557D1*
X3628194Y2191928D1*
X3634637Y2207482D1*
X3646469Y2225687D1*
X3646443Y2774302D1*
X3634637Y2792618D1*
X3628194Y2808172D1*
X3624264Y2824543D1*
X3622943Y2841327D1*
X3624264Y2858111D1*
X3628194Y2874481D1*
X3634637Y2890035D1*
X3643434Y2904390D1*
X3654368Y2917192D1*
X3667170Y2928126D1*
X3681525Y2936923D1*
X3697079Y2943366D1*
X3713449Y2947296D1*
X3730233Y2948617D1*
X3747017Y2947296D1*
X3763388Y2943366D1*
X3778942Y2936923D1*
X3793297Y2928126D1*
X3806099Y2917192D1*
X3817033Y2904390D1*
X3825829Y2890035D1*
X3832272Y2874481D1*
X3836202Y2858111D1*
X3837523Y2841327D1*
X3836202Y2824543D1*
X3832272Y2808172D1*
X3825829Y2792618D1*
X3813997Y2774413D1*
Y2225687D2*
X3821713Y2214832D1*
X3829356Y2199831D1*
X3834559Y2183820D1*
X3837193Y2167191D1*
Y2150355D1*
X3834559Y2133727D1*
X3829356Y2117715D1*
X3821713Y2102714D1*
X3811817Y2089094D1*
X3799913Y2077189D1*
X3786292Y2067294D1*
X3771291Y2059650D1*
X3755280Y2054448D1*
X3738651Y2051814D1*
X3721815D1*
X3705187Y2054448D1*
X3689175Y2059650D1*
X3674174Y2067294D1*
X3660554Y2077189D1*
X3648649Y2089094D1*
X3638754Y2102714D1*
X3631110Y2117715D1*
X3625908Y2133727D1*
X3623274Y2150355D1*
Y2167191D1*
X3625908Y2183820D1*
X3631110Y2199831D1*
X3638754Y2214832D1*
X3646469Y2225687D1*
X6293690Y2714225D2*
X6278112Y2702520D1*
X6263111Y2694877D1*
X6247100Y2689674D1*
X6230471Y2687041D1*
X6213635D1*
X6197007Y2689674D1*
X6180995Y2694877D1*
X6165994Y2702520D1*
X6152374Y2712416D1*
X6140469Y2724321D1*
X6130574Y2737941D1*
X6122930Y2752942D1*
X6117728Y2768954D1*
X6115094Y2785582D1*
Y2802418D1*
X6117728Y2819046D1*
X6122930Y2835058D1*
X6130574Y2850059D1*
X6140469Y2863679D1*
X6152374Y2875584D1*
X6165994Y2885480D1*
X6180995Y2893123D1*
X6197007Y2898326D1*
X6213635Y2900959D1*
X6230471D1*
X6247100Y2898326D1*
X6263111Y2893123D1*
X6278112Y2885480D1*
X6293690Y2873775D1*
D20*
X9080500Y9144000D3*
D21*
Y8890000D3*
Y8636000D3*
Y8382000D3*
Y8128000D3*
Y7874000D3*
D20*
X825500Y9398000D3*
D21*
Y9144000D3*
X1079500D3*
Y9398000D3*
D22*
X9144000Y3492500D3*
D23*
Y3692500D3*
Y3892500D3*
Y4092500D3*
Y4292500D3*
Y4492500D3*
Y4692500D3*
Y4892500D3*
Y5092500D3*
Y5292500D3*
Y5492500D3*
Y5692500D3*
Y5892500D3*
Y6092500D3*
D22*
Y571500D3*
D23*
Y771500D3*
Y971500D3*
Y1171500D3*
Y1371500D3*
Y1571500D3*
Y1771500D3*
Y1971500D3*
Y2171500D3*
Y2371500D3*
Y2571500D3*
Y2771500D3*
Y2971500D3*
D22*
X9080500Y6667500D3*
D23*
Y6867500D3*
Y7067500D3*
Y7267500D3*
D22*
X825500Y2667000D3*
D23*
Y2467000D3*
Y2267000D3*
Y2067000D3*
D20*
X6096000Y8509000D3*
D21*
X6546000D3*
Y9159000D3*
X6096000D3*
M02*
