G04 DipTrace 3.0.0.2*
G04 Grupp7layout.GTO*
%MOMM*%
G04 #@! TF.FileFunction,Legend,Top*
G04 #@! TF.Part,Single*
%ADD10C,0.25*%
%ADD25O,0.399X0.401*%
%ADD28O,0.39193X0.39124*%
%ADD31O,0.63494X0.6342*%
%ADD65C,0.19608*%
%ADD66C,0.23529*%
%ADD67C,0.39216*%
%ADD68C,0.31373*%
%ADD69C,0.15686*%
%FSLAX35Y35*%
G04*
G71*
G90*
G75*
G01*
G04 TopSilk*
%LPD*%
X6983550Y5121553D2*
D10*
X7113450D1*
X3430450Y7642447D2*
X3300550D1*
X3874950D2*
X3745050D1*
X7031177Y2899053D2*
X7161077D1*
X7348673Y2914927D2*
X7478573D1*
X6412050Y5121553D2*
X6541950D1*
X7347897Y2374940D2*
X7477797D1*
X2002000Y9122500D2*
X2062000D1*
X9207505Y9270930D2*
X8953502D1*
Y7747070D1*
X9207505D1*
Y9270930D1*
X1272500Y9011000D2*
X632500D1*
Y9531000D1*
X1272500D1*
Y9011000D1*
X9299000Y3367500D2*
Y6217500D1*
X9193997D1*
X9299000Y3367500D2*
X9253992D1*
X9299000Y446500D2*
Y3096500D1*
X9193997D1*
X9299000Y446500D2*
X9253992D1*
X9235500Y6542500D2*
Y7392500D1*
X9130497D1*
X9235500Y6542500D2*
X9190492D1*
X670500Y2792000D2*
Y1942000D1*
X775503D1*
X670500Y2792000D2*
X715508D1*
X6141014Y8834000D2*
G02X6141014Y8834000I179986J0D01*
G01*
X6621018Y8603990D2*
Y9064010D1*
X6421068Y9134038D2*
X6220994D1*
X6020982Y9064010D2*
Y8644006D1*
X6220994Y8533962D2*
X6421068D1*
X6171022Y8834000D2*
X6171387Y8844462D1*
X6172482Y8854873D1*
X6174300Y8865182D1*
X6176833Y8875340D1*
X6180069Y8885295D1*
X6183991Y8895002D1*
X6188581Y8904410D1*
X6193816Y8913476D1*
X6199671Y8922155D1*
X6206117Y8930404D1*
X6213124Y8938183D1*
X6220655Y8945455D1*
X6228676Y8952184D1*
X6237147Y8958337D1*
X6246027Y8963885D1*
X6255271Y8968799D1*
X6264837Y8973057D1*
X6274676Y8976638D1*
X6284741Y8979523D1*
X6294982Y8981699D1*
X6305351Y8983156D1*
X6315796Y8983887D1*
X6326266D1*
X6336711Y8983156D1*
X6347080Y8981699D1*
X6357321Y8979523D1*
X6367386Y8976638D1*
X6377225Y8973057D1*
X6386791Y8968799D1*
X6396036Y8963885D1*
X6404915Y8958337D1*
X6413386Y8952184D1*
X6421407Y8945455D1*
X6428938Y8938183D1*
X6435945Y8930404D1*
X6442391Y8922155D1*
X6448246Y8913476D1*
X6453481Y8904410D1*
X6458071Y8895002D1*
X6461993Y8885295D1*
X6465229Y8875340D1*
X6467762Y8865182D1*
X6469580Y8854873D1*
X6470675Y8844462D1*
X6471040Y8834000D1*
X6470675Y8823538D1*
X6469580Y8813127D1*
X6467762Y8802818D1*
X6465229Y8792660D1*
X6461993Y8782705D1*
X6458071Y8772998D1*
X6453481Y8763590D1*
X6448246Y8754524D1*
X6442391Y8745845D1*
X6435945Y8737596D1*
X6428938Y8729817D1*
X6421407Y8722545D1*
X6413386Y8715816D1*
X6404915Y8709663D1*
X6396036Y8704115D1*
X6386791Y8699201D1*
X6377225Y8694943D1*
X6367386Y8691362D1*
X6357321Y8688477D1*
X6347080Y8686301D1*
X6336711Y8684844D1*
X6326266Y8684113D1*
X6315796D1*
X6305351Y8684844D1*
X6294982Y8686301D1*
X6284741Y8688477D1*
X6274676Y8691362D1*
X6264837Y8694943D1*
X6255271Y8699201D1*
X6246027Y8704115D1*
X6237147Y8709663D1*
X6228676Y8715816D1*
X6220655Y8722545D1*
X6213124Y8729817D1*
X6206117Y8737596D1*
X6199671Y8745845D1*
X6193816Y8754524D1*
X6188581Y8763590D1*
X6183991Y8772998D1*
X6180069Y8782705D1*
X6176833Y8792660D1*
X6174300Y8802818D1*
X6172482Y8813127D1*
X6171387Y8823538D1*
X6171022Y8834000D1*
X6452000Y3485400D2*
X7052000D1*
Y4085600D1*
X6452000D1*
Y3485400D1*
G36*
D2*
X6532000D1*
X6452000Y3565500D1*
Y3485400D1*
G37*
D25*
X6406950Y3365450D3*
D28*
X2272806Y8161856D3*
X2499501Y8164496D2*
D10*
Y7504528D1*
X2779499Y8164496D2*
Y7504528D1*
X2499501D2*
X2779499D1*
X2499501Y8164496D2*
X2779499D1*
X4540231Y3553546D2*
X4349750D1*
Y2601038D1*
X4540231D1*
X4857769D2*
X5048250D1*
Y3553546D1*
X4857769D1*
D31*
X4508484Y2505757D3*
X6811940Y4689861D2*
D65*
X6805763Y4702074D1*
X6787654Y4720324D1*
X6915123D1*
X6787654Y4796040D2*
X6793690Y4777790D1*
X6811940Y4765577D1*
X6842264Y4759540D1*
X6860514D1*
X6890837Y4765577D1*
X6909087Y4777790D1*
X6915123Y4796040D1*
Y4808113D1*
X6909087Y4826363D1*
X6890837Y4838436D1*
X6860514Y4844613D1*
X6842264D1*
X6811940Y4838436D1*
X6793690Y4826363D1*
X6787654Y4808113D1*
Y4796040D1*
X6811940Y4838436D2*
X6890837Y4765577D1*
X6787654Y4920329D2*
X6793690Y4902079D1*
X6811940Y4889865D1*
X6842264Y4883829D1*
X6860514D1*
X6890837Y4889865D1*
X6909087Y4902079D1*
X6915123Y4920329D1*
Y4932402D1*
X6909087Y4950652D1*
X6890837Y4962725D1*
X6860513Y4968902D1*
X6842264D1*
X6811940Y4962725D1*
X6793690Y4950652D1*
X6787654Y4932402D1*
Y4920329D1*
X6811940Y4962725D2*
X6890837Y4889865D1*
X6830050Y5008117D2*
X6915123D1*
X6854337D2*
X6836087Y5026367D1*
X6830050Y5038581D1*
Y5056690D1*
X6836087Y5068904D1*
X6854337Y5074940D1*
X6915123D1*
X6787513Y5193193D2*
X6787514Y5114156D1*
X6915123D1*
X6848300D2*
Y5162729D1*
X3128940Y7632952D2*
X3122763Y7645166D1*
X3104654Y7663416D1*
X3232123Y7663415D1*
X3104654Y7739131D2*
X3110690Y7720881D1*
X3128940Y7708668D1*
X3159264Y7702631D1*
X3177514D1*
X3207837Y7708668D1*
X3226087Y7720881D1*
X3232123Y7739131D1*
Y7751204D1*
X3226087Y7769454D1*
X3207837Y7781527D1*
X3177514Y7787704D1*
X3159264D1*
X3128940Y7781527D1*
X3110690Y7769454D1*
X3104654Y7751204D1*
Y7739131D1*
X3128940Y7781527D2*
X3207837Y7708668D1*
X3147050Y7826920D2*
X3232123D1*
X3171337D2*
X3153087Y7845170D1*
X3147050Y7857383D1*
Y7875493D1*
X3153087Y7887706D1*
X3171337Y7893743D1*
X3232123D1*
X3104514Y8011995D2*
Y7932958D1*
X3232123D1*
X3165300D2*
Y7981532D1*
X4519190Y1754460D2*
X4513013Y1766674D1*
X4494904Y1784924D1*
X4622373D1*
X4494904Y1854463D2*
X4500940Y1836353D1*
X4513014Y1830176D1*
X4525227D1*
X4537300Y1836353D1*
X4543477Y1848426D1*
X4549514Y1872713D1*
X4555550Y1890962D1*
X4567764Y1903036D1*
X4579837Y1909072D1*
X4598087D1*
X4610160Y1903035D1*
X4616337Y1896999D1*
X4622373Y1878749D1*
Y1854462D1*
X4616337Y1836353D1*
X4610160Y1830176D1*
X4598087Y1824139D1*
X4579837D1*
X4567764Y1830176D1*
X4555550Y1842389D1*
X4549514Y1860499D1*
X4543477Y1884786D1*
X4537300Y1896999D1*
X4525227Y1903036D1*
X4513014D1*
X4500940Y1896999D1*
X4494904Y1878749D1*
Y1854463D1*
X4537300Y1948288D2*
X4664910D1*
X4555550D2*
X4543477Y1960501D1*
X4537300Y1972574D1*
Y1990824D1*
X4543477Y2003038D1*
X4555550Y2015111D1*
X4573800Y2021288D1*
X4586013D1*
X4604123Y2015111D1*
X4616337Y2003038D1*
X4622373Y1990824D1*
Y1972574D1*
X4616337Y1960501D1*
X4604123Y1948288D1*
X4494764Y2139540D2*
Y2060503D1*
X4622373D1*
X4555550D2*
Y2109076D1*
X4519190Y3913460D2*
X4513013Y3925674D1*
X4494904Y3943924D1*
X4622373D1*
X4494904Y4013463D2*
X4500940Y3995353D1*
X4513014Y3989176D1*
X4525227D1*
X4537300Y3995353D1*
X4543477Y4007426D1*
X4549514Y4031713D1*
X4555550Y4049962D1*
X4567764Y4062036D1*
X4579837Y4068072D1*
X4598087D1*
X4610160Y4062035D1*
X4616337Y4055999D1*
X4622373Y4037749D1*
Y4013462D1*
X4616337Y3995353D1*
X4610160Y3989176D1*
X4598087Y3983139D1*
X4579837D1*
X4567764Y3989176D1*
X4555550Y4001389D1*
X4549514Y4019499D1*
X4543477Y4043786D1*
X4537300Y4055999D1*
X4525227Y4062036D1*
X4513014D1*
X4500940Y4055999D1*
X4494904Y4037749D1*
Y4013463D1*
X4537300Y4107288D2*
X4664910D1*
X4555550D2*
X4543477Y4119501D1*
X4537300Y4131574D1*
Y4149824D1*
X4543477Y4162038D1*
X4555550Y4174111D1*
X4573800Y4180288D1*
X4586013D1*
X4604123Y4174111D1*
X4616337Y4162038D1*
X4622373Y4149824D1*
Y4131574D1*
X4616337Y4119501D1*
X4604123Y4107288D1*
X4494764Y4298540D2*
Y4219503D1*
X4622373D1*
X4555550D2*
Y4268076D1*
X3573440Y7632952D2*
X3567263Y7645166D1*
X3549154Y7663416D1*
X3676623Y7663415D1*
X3549154Y7739131D2*
X3555190Y7720881D1*
X3573440Y7708668D1*
X3603764Y7702631D1*
X3622014D1*
X3652337Y7708668D1*
X3670587Y7720881D1*
X3676623Y7739131D1*
Y7751204D1*
X3670587Y7769454D1*
X3652337Y7781527D1*
X3622014Y7787704D1*
X3603764D1*
X3573440Y7781527D1*
X3555190Y7769454D1*
X3549154Y7751204D1*
Y7739131D1*
X3573440Y7781527D2*
X3652337Y7708668D1*
X3591550Y7826920D2*
X3676623D1*
X3615837D2*
X3597587Y7845170D1*
X3591550Y7857383D1*
Y7875493D1*
X3597587Y7887706D1*
X3615837Y7893743D1*
X3676623D1*
X3549014Y8011995D2*
Y7932958D1*
X3676623D1*
X3609800D2*
Y7981532D1*
X5860154Y7737264D2*
X5866190Y7719014D1*
X5884440Y7706801D1*
X5914763Y7700764D1*
X5933013D1*
X5963336Y7706801D1*
X5981587Y7719014D1*
X5987623Y7737264D1*
Y7749337D1*
X5981587Y7767587D1*
X5963337Y7779660D1*
X5933014Y7785837D1*
X5914764D1*
X5884440Y7779660D1*
X5866190Y7767587D1*
X5860154Y7749337D1*
Y7737264D1*
X5884440Y7779660D2*
X5963336Y7706801D1*
X5981587Y7837266D2*
X5987623Y7831089D1*
X5981587Y7825053D1*
X5975410Y7831089D1*
X5981587Y7837266D1*
X5993660D1*
X6005873Y7831089D1*
X6011910Y7825053D1*
X5884440Y7876482D2*
X5878264Y7888695D1*
X5860154Y7906945D1*
X5987623D1*
X5902550Y7946161D2*
X5963337D1*
X5981446Y7952197D1*
X5987623Y7964411D1*
Y7982661D1*
X5981446Y7994734D1*
X5963337Y8012984D1*
X5902550D2*
X5987623D1*
X5860014Y8131236D2*
Y8052200D1*
X5987623D1*
X5920800D2*
Y8100773D1*
X6859567Y2467361D2*
X6853390Y2479574D1*
X6835280Y2497824D1*
X6962750D1*
X6835281Y2573540D2*
X6841317Y2555290D1*
X6859567Y2543077D1*
X6889890Y2537040D1*
X6908140D1*
X6938463Y2543077D1*
X6956713Y2555290D1*
X6962750Y2573540D1*
Y2585613D1*
X6956713Y2603863D1*
X6938463Y2615936D1*
X6908140Y2622113D1*
X6889890D1*
X6859567Y2615936D1*
X6841317Y2603863D1*
X6835281Y2585613D1*
Y2573540D1*
X6859567Y2615936D2*
X6938463Y2543077D1*
X6835281Y2697829D2*
X6841317Y2679579D1*
X6859567Y2667365D1*
X6889890Y2661329D1*
X6908140D1*
X6938463Y2667365D1*
X6956713Y2679579D1*
X6962750Y2697829D1*
Y2709902D1*
X6956713Y2728152D1*
X6938463Y2740225D1*
X6908140Y2746402D1*
X6889890D1*
X6859567Y2740225D1*
X6841317Y2728152D1*
X6835281Y2709902D1*
Y2697829D1*
X6859567Y2740225D2*
X6938463Y2667365D1*
X6877677Y2785617D2*
X6962750D1*
X6901963D2*
X6883713Y2803867D1*
X6877677Y2816081D1*
Y2834190D1*
X6883713Y2846404D1*
X6901963Y2852440D1*
X6962750D1*
X6835140Y2970693D2*
Y2891656D1*
X6962750D1*
X6895927D2*
Y2940229D1*
X7177064Y2483234D2*
X7170887Y2495448D1*
X7152777Y2513698D1*
X7280246D1*
X7152777Y2589413D2*
X7158814Y2571163D1*
X7177064Y2558950D1*
X7207387Y2552913D1*
X7225637D1*
X7255960Y2558950D1*
X7274210Y2571163D1*
X7280246Y2589413D1*
Y2601486D1*
X7274210Y2619736D1*
X7255960Y2631809D1*
X7225637Y2637986D1*
X7207387D1*
X7177064Y2631809D1*
X7158814Y2619736D1*
X7152777Y2601486D1*
Y2589413D1*
X7177064Y2631809D2*
X7255960Y2558950D1*
X7152777Y2713702D2*
X7158814Y2695452D1*
X7177064Y2683239D1*
X7207387Y2677202D1*
X7225637D1*
X7255960Y2683239D1*
X7274210Y2695452D1*
X7280246Y2713702D1*
Y2725775D1*
X7274210Y2744025D1*
X7255960Y2756098D1*
X7225637Y2762275D1*
X7207387D1*
X7177064Y2756098D1*
X7158814Y2744025D1*
X7152777Y2725775D1*
Y2713702D1*
X7177064Y2756098D2*
X7255960Y2683239D1*
X7195173Y2801491D2*
X7280246D1*
X7219460D2*
X7201210Y2819741D1*
X7195173Y2831954D1*
Y2850064D1*
X7201210Y2862277D1*
X7219460Y2868314D1*
X7280246D1*
X7152637Y2986566D2*
Y2907529D1*
X7280246D1*
X7213423D2*
Y2956103D1*
X6240440Y4689861D2*
X6234263Y4702074D1*
X6216154Y4720324D1*
X6343623D1*
X6216154Y4796040D2*
X6222190Y4777790D1*
X6240440Y4765577D1*
X6270764Y4759540D1*
X6289014D1*
X6319337Y4765577D1*
X6337587Y4777790D1*
X6343623Y4796040D1*
Y4808113D1*
X6337587Y4826363D1*
X6319337Y4838436D1*
X6289014Y4844613D1*
X6270764D1*
X6240440Y4838436D1*
X6222190Y4826363D1*
X6216154Y4808113D1*
Y4796040D1*
X6240440Y4838436D2*
X6319337Y4765577D1*
X6216154Y4920329D2*
X6222190Y4902079D1*
X6240440Y4889865D1*
X6270764Y4883829D1*
X6289014D1*
X6319337Y4889865D1*
X6337587Y4902079D1*
X6343623Y4920329D1*
Y4932402D1*
X6337587Y4950652D1*
X6319337Y4962725D1*
X6289013Y4968902D1*
X6270764D1*
X6240440Y4962725D1*
X6222190Y4950652D1*
X6216154Y4932402D1*
Y4920329D1*
X6240440Y4962725D2*
X6319337Y4889865D1*
X6258550Y5008117D2*
X6343623D1*
X6282837D2*
X6264587Y5026367D1*
X6258550Y5038581D1*
Y5056690D1*
X6264587Y5068904D1*
X6282837Y5074940D1*
X6343623D1*
X6216013Y5193193D2*
X6216014Y5114156D1*
X6343623D1*
X6276800D2*
Y5162729D1*
X7176287Y1943248D2*
X7170110Y1955461D1*
X7152000Y1973711D1*
X7279470D1*
X7152001Y2049427D2*
X7158037Y2031177D1*
X7176287Y2018963D1*
X7206610Y2012927D1*
X7224860D1*
X7255183Y2018963D1*
X7273433Y2031177D1*
X7279470Y2049427D1*
Y2061500D1*
X7273433Y2079750D1*
X7255183Y2091823D1*
X7224860Y2098000D1*
X7206610D1*
X7176287Y2091823D1*
X7158037Y2079750D1*
X7152001Y2061500D1*
Y2049427D1*
X7176287Y2091823D2*
X7255183Y2018963D1*
X7152001Y2173715D2*
X7158037Y2155465D1*
X7176287Y2143252D1*
X7206610Y2137215D1*
X7224860D1*
X7255183Y2143252D1*
X7273433Y2155465D1*
X7279470Y2173715D1*
Y2185788D1*
X7273433Y2204038D1*
X7255183Y2216111D1*
X7224860Y2222288D1*
X7206610D1*
X7176287Y2216111D1*
X7158037Y2204038D1*
X7152001Y2185788D1*
Y2173715D1*
X7176287Y2216111D2*
X7255183Y2143252D1*
X7194397Y2261504D2*
X7279470D1*
X7218683D2*
X7200433Y2279754D1*
X7194397Y2291968D1*
Y2310077D1*
X7200433Y2322291D1*
X7218683Y2328327D1*
X7279470D1*
X7151860Y2446579D2*
Y2367543D1*
X7279470D1*
X7212647D2*
Y2416116D1*
X2876123Y9212106D2*
X2748654Y9272892D1*
Y9187819D1*
Y9384968D2*
Y9324322D1*
X2803264Y9318285D1*
X2797227Y9324321D1*
X2791050Y9342571D1*
Y9360681D1*
X2797227Y9378931D1*
X2809300Y9391144D1*
X2827550Y9397181D1*
X2839623D1*
X2857873Y9391144D1*
X2870087Y9378931D1*
X2876123Y9360681D1*
Y9342571D1*
X2870087Y9324321D1*
X2863910Y9318285D1*
X2851837Y9312108D1*
X2368123Y9212106D2*
X2240654Y9272892D1*
Y9187819D1*
Y9384968D2*
Y9324322D1*
X2295264Y9318285D1*
X2289227Y9324321D1*
X2283050Y9342571D1*
Y9360681D1*
X2289227Y9378931D1*
X2301300Y9391144D1*
X2319550Y9397181D1*
X2331623D1*
X2349873Y9391144D1*
X2362087Y9378931D1*
X2368123Y9360681D1*
Y9342571D1*
X2362087Y9324321D1*
X2355910Y9318285D1*
X2343837Y9312108D1*
X4503512Y4019346D2*
X4485402Y4013310D1*
X4479226Y4001237D1*
Y3989023D1*
X4485402Y3976950D1*
X4497476Y3970773D1*
X4521762Y3964737D1*
X4540012Y3958700D1*
X4552085Y3946487D1*
X4558122Y3934414D1*
Y3916164D1*
X4552085Y3904090D1*
X4546049Y3897914D1*
X4527799Y3891877D1*
X4503512D1*
X4485402Y3897914D1*
X4479226Y3904090D1*
X4473189Y3916164D1*
Y3934414D1*
X4479226Y3946487D1*
X4491439Y3958700D1*
X4509549Y3964737D1*
X4533835Y3970773D1*
X4546049Y3976950D1*
X4552085Y3989023D1*
Y4001237D1*
X4546049Y4013310D1*
X4527799Y4019346D1*
X4503512D1*
X4694484Y3891877D2*
Y4019487D1*
X4645910Y3891877D1*
X4597337Y4019487D1*
Y3891877D1*
X4733699Y4019487D2*
Y3891877D1*
X4818772Y4019487D2*
Y3891877D1*
X4733699Y3958700D2*
X4818772D1*
X4857988Y3976950D2*
X4924811D1*
X4857988Y3891877D1*
X4924811D1*
X516005Y3478758D2*
D66*
X530661Y3486170D1*
X552561Y3507901D1*
Y3354938D1*
X628764D2*
X701707Y3507901D1*
X599620D1*
X792566D2*
X770666Y3500658D1*
X756010Y3478758D1*
X748766Y3442370D1*
Y3420470D1*
X756010Y3384082D1*
X770666Y3362182D1*
X792566Y3354938D1*
X807054D1*
X828954Y3362182D1*
X843442Y3384082D1*
X850854Y3420470D1*
Y3442370D1*
X843442Y3478758D1*
X828954Y3500658D1*
X807054Y3507901D1*
X792566D1*
X843442Y3478758D2*
X756010Y3384082D1*
X912569Y3507901D2*
X992588D1*
X948957Y3449614D1*
X970857D1*
X985344Y3442370D1*
X992588Y3435126D1*
X1000000Y3413226D1*
Y3398738D1*
X992588Y3376838D1*
X978100Y3362182D1*
X956200Y3354938D1*
X934300D1*
X912569Y3362182D1*
X905325Y3369595D1*
X897913Y3384082D1*
X1054472Y3471514D2*
Y3478758D1*
X1061715Y3493414D1*
X1068959Y3500658D1*
X1083615Y3507901D1*
X1112759D1*
X1127247Y3500658D1*
X1134491Y3493414D1*
X1141903Y3478758D1*
Y3464270D1*
X1134491Y3449614D1*
X1120003Y3427882D1*
X1047059Y3354938D1*
X1149147D1*
X1210862Y3507901D2*
X1290881D1*
X1247250Y3449614D1*
X1269150D1*
X1283637Y3442370D1*
X1290881Y3435126D1*
X1298293Y3413226D1*
Y3398738D1*
X1290881Y3376838D1*
X1276393Y3362182D1*
X1254493Y3354938D1*
X1232593D1*
X1210862Y3362182D1*
X1203618Y3369595D1*
X1196206Y3384082D1*
X1345352Y3354938D2*
X1447440Y3507901D1*
X1545543Y3508070D2*
Y3354938D1*
X1494499Y3508070D2*
X1596586D1*
X1643645D2*
Y3354938D1*
X1731077D1*
X912517Y5629851D2*
D67*
X1167736D1*
X912517Y5544778D2*
Y5714924D1*
X1143309Y5805429D2*
X1155663Y5793355D1*
X1167736Y5805428D1*
X1155663Y5817782D1*
X1143309Y5805429D1*
X912517Y5969214D2*
X924590Y5944787D1*
X949017Y5920641D1*
X973163Y5908287D1*
X1009663Y5896214D1*
X1070590D1*
X1106809Y5908287D1*
X1131236Y5920641D1*
X1155382Y5944787D1*
X1167736Y5969214D1*
Y6017787D1*
X1155382Y6041933D1*
X1131236Y6066360D1*
X1106809Y6078433D1*
X1070590Y6090506D1*
X1009663D1*
X973163Y6078433D1*
X949017Y6066360D1*
X924590Y6041933D1*
X912517Y6017787D1*
Y5969214D1*
X1143309Y6181010D2*
X1155663Y6168937D1*
X1167736Y6181010D1*
X1155663Y6193364D1*
X1143309Y6181010D1*
X912517Y6271796D2*
X1167736D1*
Y6417515D1*
X1448157Y5543553D2*
D68*
X1652332D1*
X1448157Y5732532D2*
Y5606298D1*
X1652332D1*
Y5732532D1*
X1545415Y5606298D2*
Y5684015D1*
X1487240Y5795277D2*
X1477357Y5814819D1*
X1448382Y5844019D1*
X1652332D1*
X1448382Y5926305D2*
Y6032998D1*
X1526098Y5974822D1*
Y6004022D1*
X1535757Y6023339D1*
X1545415Y6032998D1*
X1574615Y6042881D1*
X1593932D1*
X1623132Y6032997D1*
X1642674Y6013681D1*
X1652332Y5984481D1*
Y5955281D1*
X1642674Y5926305D1*
X1632791Y5916647D1*
X1613474Y5906764D1*
X1448382Y6125167D2*
Y6231860D1*
X1526098Y6173684D1*
Y6202884D1*
X1535757Y6222201D1*
X1545415Y6231860D1*
X1574615Y6241743D1*
X1593932D1*
X1623132Y6231859D1*
X1642674Y6212543D1*
X1652332Y6183343D1*
Y6154143D1*
X1642674Y6125167D1*
X1632791Y6115509D1*
X1613474Y6105626D1*
X1496898Y6314371D2*
X1487240D1*
X1467698Y6324029D1*
X1458040Y6333688D1*
X1448382Y6353229D1*
Y6392088D1*
X1458040Y6411405D1*
X1467698Y6421063D1*
X1487240Y6430946D1*
X1506557D1*
X1526098Y6421063D1*
X1555074Y6401746D1*
X1652332Y6304488D1*
Y6440605D1*
X1923659Y5522051D2*
D66*
Y5602070D1*
X1981946Y5558439D1*
Y5580339D1*
X1989190Y5594826D1*
X1996434Y5602070D1*
X2018334Y5609483D1*
X2032822D1*
X2054722Y5602070D1*
X2069378Y5587583D1*
X2076622Y5565683D1*
Y5543783D1*
X2069378Y5522051D1*
X2061966Y5514807D1*
X2047478Y5507395D1*
X1952803Y5656541D2*
X1945390Y5671198D1*
X1923659Y5693098D1*
X2076622Y5693097D1*
Y5740156D2*
X1923659Y5842244D1*
Y5933103D2*
X1930903Y5911203D1*
X1952803Y5896547D1*
X1989190Y5889303D1*
X2011090D1*
X2047478Y5896547D1*
X2069378Y5911203D1*
X2076622Y5933103D1*
Y5947590D1*
X2069378Y5969490D1*
X2047478Y5983978D1*
X2011090Y5991390D1*
X1989190D1*
X1952803Y5983978D1*
X1930903Y5969490D1*
X1923659Y5947590D1*
Y5933103D1*
X1952803Y5983978D2*
X2047478Y5896547D1*
X1923659Y6053105D2*
Y6133125D1*
X1981946Y6089493D1*
Y6111393D1*
X1989190Y6125881D1*
X1996434Y6133125D1*
X2018334Y6140537D1*
X2032822D1*
X2054722Y6133125D1*
X2069378Y6118637D1*
X2076622Y6096737D1*
Y6074837D1*
X2069378Y6053105D1*
X2061966Y6045862D1*
X2047478Y6038449D1*
X2000140Y6187596D2*
Y6271827D1*
X1952802Y6318885D2*
X1945390Y6333542D1*
X1923659Y6355442D1*
X2076622Y6355441D1*
Y6431644D2*
X1923659Y6504588D1*
Y6402500D1*
X1056315Y2700760D2*
D69*
X1046656Y2710531D1*
X1032056Y2715360D1*
X1012627D1*
X998027Y2710531D1*
X988256Y2700760D1*
Y2691101D1*
X993198Y2681331D1*
X998027Y2676501D1*
X1007686Y2671672D1*
X1036886Y2661901D1*
X1046656Y2657072D1*
X1051486Y2652131D1*
X1056315Y2642472D1*
Y2627872D1*
X1046656Y2618214D1*
X1032056Y2613272D1*
X1012627D1*
X998027Y2618214D1*
X988256Y2627872D1*
X1087687Y2715360D2*
Y2613272D1*
X1121717D1*
X1136317Y2618214D1*
X1146087Y2627872D1*
X1150917Y2637643D1*
X1155746Y2652131D1*
Y2676501D1*
X1150917Y2691101D1*
X1146087Y2700760D1*
X1136317Y2710531D1*
X1121717Y2715360D1*
X1087687D1*
X1264948Y2613272D2*
X1225977Y2715360D1*
X1187118Y2613272D1*
X1201718Y2647301D2*
X1250348D1*
X1056315Y2494407D2*
X1046656Y2504177D1*
X1032056Y2509007D1*
X1012627D1*
X998027Y2504177D1*
X988256Y2494407D1*
Y2484748D1*
X993198Y2474977D1*
X998027Y2470148D1*
X1007686Y2465319D1*
X1036886Y2455548D1*
X1046656Y2450719D1*
X1051486Y2445777D1*
X1056315Y2436119D1*
Y2421519D1*
X1046656Y2411860D1*
X1032056Y2406919D1*
X1012627D1*
X998027Y2411860D1*
X988256Y2421519D1*
X1160575Y2484748D2*
X1155746Y2494407D1*
X1145975Y2504177D1*
X1136317Y2509007D1*
X1116887D1*
X1107117Y2504177D1*
X1097458Y2494407D1*
X1092517Y2484748D1*
X1087687Y2470148D1*
Y2445777D1*
X1092517Y2431290D1*
X1097458Y2421519D1*
X1107117Y2411860D1*
X1116887Y2406919D1*
X1136317D1*
X1145975Y2411860D1*
X1155746Y2421519D1*
X1160575Y2431290D1*
X1191948Y2509007D2*
Y2406919D1*
X1250235D1*
X1045271Y2294268D2*
X1040442Y2303927D1*
X1030671Y2313697D1*
X1021012Y2318527D1*
X1001583D1*
X991812Y2313697D1*
X982154Y2303927D1*
X977212Y2294268D1*
X972383Y2279668D1*
Y2255297D1*
X977212Y2240810D1*
X982154Y2231039D1*
X991812Y2221380D1*
X1001583Y2216439D1*
X1021012D1*
X1030671Y2221380D1*
X1040442Y2231039D1*
X1045271Y2240810D1*
Y2255297D1*
X1021012D1*
X1144702Y2318527D2*
Y2216439D1*
X1076643Y2318527D1*
Y2216439D1*
X1176074Y2318527D2*
Y2216439D1*
X1210104D1*
X1224704Y2221380D1*
X1234474Y2231039D1*
X1239304Y2240810D1*
X1244133Y2255297D1*
Y2279668D1*
X1239304Y2294268D1*
X1234474Y2303927D1*
X1224704Y2313697D1*
X1210104Y2318527D1*
X1176074D1*
X972383Y2096300D2*
X1011242Y1994212D1*
X1050100Y2096300D1*
X1139760D2*
Y1994212D1*
Y2047671D2*
X1130102Y2057441D1*
X1120331Y2062271D1*
X1105731D1*
X1096073Y2057441D1*
X1086302Y2047671D1*
X1081473Y2033071D1*
Y2023412D1*
X1086302Y2008812D1*
X1096073Y1999154D1*
X1105731Y1994212D1*
X1120331D1*
X1130102Y1999154D1*
X1139760Y2008812D1*
X1229421Y2096300D2*
Y1994212D1*
Y2047671D2*
X1219762Y2057441D1*
X1209991Y2062271D1*
X1195391D1*
X1185733Y2057441D1*
X1175962Y2047671D1*
X1171133Y2033071D1*
Y2023412D1*
X1175962Y2008812D1*
X1185733Y1999154D1*
X1195391Y1994212D1*
X1209991D1*
X1219762Y1999154D1*
X1229421Y2008812D1*
X6575670Y2047671D2*
X6619357D1*
X6633957Y2052612D1*
X6638899Y2057441D1*
X6643728Y2067100D1*
Y2076871D1*
X6638899Y2086529D1*
X6633957Y2091471D1*
X6619357Y2096300D1*
X6575670D1*
Y1994212D1*
X6609699Y2047671D2*
X6643728Y1994212D1*
X6675101Y2076758D2*
X6684872Y2081700D1*
X6699472Y2096188D1*
Y1994212D1*
X1754913Y9263093D2*
X1857001D1*
Y9297123D1*
X1852060Y9311723D1*
X1842401Y9321493D1*
X1832630Y9326323D1*
X1818143Y9331152D1*
X1793772D1*
X1779172Y9326323D1*
X1769514Y9321493D1*
X1759743Y9311723D1*
X1754913Y9297123D1*
Y9263093D1*
X1774455Y9362524D2*
X1769514Y9372295D1*
X1755026Y9386895D1*
X1857001D1*
X6489824Y9342028D2*
X6484995Y9351687D1*
X6475224Y9361457D1*
X6465566Y9366287D1*
X6446136D1*
X6436366Y9361457D1*
X6426707Y9351687D1*
X6421766Y9342028D1*
X6416936Y9327428D1*
Y9303057D1*
X6421766Y9288570D1*
X6426707Y9278799D1*
X6436366Y9269140D1*
X6446136Y9264199D1*
X6465566D1*
X6475224Y9269140D1*
X6484995Y9278799D1*
X6489824Y9288570D1*
Y9303057D1*
X6465566D1*
X6589255Y9366287D2*
Y9264199D1*
X6521197Y9366287D1*
Y9264199D1*
X6620628Y9366287D2*
Y9264199D1*
X6654657D1*
X6669257Y9269140D1*
X6679028Y9278799D1*
X6683857Y9288570D1*
X6688686Y9303057D1*
Y9327428D1*
X6683857Y9342028D1*
X6679028Y9351687D1*
X6669257Y9361457D1*
X6654657Y9366287D1*
X6620628D1*
X6505697Y8342008D2*
X6500868Y8351667D1*
X6491097Y8361437D1*
X6481439Y8366267D1*
X6462010D1*
X6452239Y8361437D1*
X6442581Y8351667D1*
X6437639Y8342008D1*
X6432810Y8327408D1*
Y8303037D1*
X6437639Y8288550D1*
X6442581Y8278779D1*
X6452239Y8269120D1*
X6462010Y8264179D1*
X6481439D1*
X6491097Y8269120D1*
X6500868Y8278779D1*
X6505697Y8288550D1*
Y8303037D1*
X6481439D1*
X6605129Y8366267D2*
Y8264179D1*
X6537070Y8366267D1*
Y8264179D1*
X6636501Y8366267D2*
Y8264179D1*
X6670530D1*
X6685130Y8269120D1*
X6694901Y8278779D1*
X6699730Y8288550D1*
X6704560Y8303037D1*
Y8327408D1*
X6699730Y8342008D1*
X6694901Y8351667D1*
X6685130Y8361437D1*
X6670530Y8366267D1*
X6636501D1*
X8591583Y9191680D2*
X8630442Y9089592D1*
X8669300Y9191680D1*
X8758960D2*
Y9089592D1*
Y9143051D2*
X8749302Y9152821D1*
X8739531Y9157651D1*
X8724931D1*
X8715273Y9152821D1*
X8705502Y9143051D1*
X8700673Y9128451D1*
Y9118792D1*
X8705502Y9104192D1*
X8715273Y9094534D1*
X8724931Y9089592D1*
X8739531D1*
X8749302Y9094534D1*
X8758960Y9104192D1*
X8848621Y9191680D2*
Y9089592D1*
Y9143051D2*
X8838962Y9152821D1*
X8829191Y9157651D1*
X8814591D1*
X8804933Y9152821D1*
X8795162Y9143051D1*
X8790333Y9128451D1*
Y9118792D1*
X8795162Y9104192D1*
X8804933Y9094534D1*
X8814591Y9089592D1*
X8829191D1*
X8838962Y9094534D1*
X8848621Y9104192D1*
X8680344Y8929321D2*
X8675515Y8938980D1*
X8665744Y8948751D1*
X8656086Y8953580D1*
X8636656D1*
X8626886Y8948751D1*
X8617227Y8938980D1*
X8612286Y8929321D1*
X8607456Y8914721D1*
Y8890351D1*
X8612286Y8875863D1*
X8617227Y8866092D1*
X8626886Y8856434D1*
X8636656Y8851492D1*
X8656086D1*
X8665744Y8856434D1*
X8675515Y8866092D1*
X8680344Y8875863D1*
X8711717Y8953580D2*
Y8851492D1*
X8770004D1*
X8801377Y8953580D2*
Y8851492D1*
X8869435Y8953580D2*
X8801377Y8885521D1*
X8825635Y8909892D2*
X8869435Y8851492D1*
X8680344Y8675348D2*
X8675515Y8685007D1*
X8665744Y8694777D1*
X8656086Y8699607D1*
X8636656D1*
X8626886Y8694777D1*
X8617227Y8685007D1*
X8612286Y8675348D1*
X8607456Y8660748D1*
Y8636377D1*
X8612286Y8621890D1*
X8617227Y8612119D1*
X8626886Y8602460D1*
X8636656Y8597519D1*
X8656086D1*
X8665744Y8602460D1*
X8675515Y8612119D1*
X8680344Y8621890D1*
Y8636377D1*
X8656086D1*
X8779775Y8699607D2*
Y8597519D1*
X8711717Y8699607D1*
Y8597519D1*
X8811148Y8699607D2*
Y8597519D1*
X8845177D1*
X8859777Y8602460D1*
X8869548Y8612119D1*
X8874377Y8621890D1*
X8879206Y8636377D1*
Y8660748D1*
X8874377Y8675348D1*
X8869548Y8685007D1*
X8859777Y8694777D1*
X8845177Y8699607D1*
X8811148D1*
X8607456Y8429760D2*
Y8327672D1*
X8641486D1*
X8656086Y8332614D1*
X8665856Y8342272D1*
X8670686Y8352043D1*
X8675515Y8366531D1*
Y8390901D1*
X8670686Y8405501D1*
X8665856Y8415160D1*
X8656086Y8424931D1*
X8641486Y8429760D1*
X8607456D1*
X8706887D2*
Y8327672D1*
X8767460Y8429760D2*
X8757689Y8424931D1*
X8748031Y8415160D1*
X8743089Y8405501D1*
X8738260Y8390901D1*
Y8366531D1*
X8743089Y8352043D1*
X8748031Y8342272D1*
X8757689Y8332614D1*
X8767460Y8327672D1*
X8786889D1*
X8796548Y8332614D1*
X8806318Y8342272D1*
X8811148Y8352043D1*
X8815977Y8366531D1*
Y8390901D1*
X8811148Y8405501D1*
X8806318Y8415160D1*
X8796548Y8424931D1*
X8786889Y8429760D1*
X8767460D1*
X8448723Y8143031D2*
X8492411D1*
X8507011Y8147972D1*
X8511952Y8152801D1*
X8516782Y8162460D1*
Y8172231D1*
X8511952Y8181889D1*
X8507011Y8186831D1*
X8492411Y8191660D1*
X8448723D1*
Y8089572D1*
X8482752Y8143031D2*
X8516782Y8089572D1*
X8611271Y8191660D2*
X8548154D1*
Y8089572D1*
X8611271D1*
X8548154Y8143031D2*
X8587013D1*
X8710702Y8177060D2*
X8701044Y8186831D1*
X8686444Y8191660D1*
X8667014D1*
X8652414Y8186831D1*
X8642644Y8177060D1*
Y8167401D1*
X8647585Y8157631D1*
X8652414Y8152801D1*
X8662073Y8147972D1*
X8691273Y8138201D1*
X8701044Y8133372D1*
X8705873Y8128431D1*
X8710702Y8118772D1*
Y8104172D1*
X8701044Y8094514D1*
X8686444Y8089572D1*
X8667014D1*
X8652414Y8094514D1*
X8642644Y8104172D1*
X8805192Y8191660D2*
X8742075D1*
Y8089572D1*
X8805192D1*
X8742075Y8143031D2*
X8780933D1*
X8870593Y8191660D2*
Y8089572D1*
X8836564Y8191660D2*
X8904623D1*
X8643768Y7891340D2*
X8634110Y7901111D1*
X8619510Y7905940D1*
X8600081D1*
X8585481Y7901111D1*
X8575710Y7891340D1*
Y7881681D1*
X8580651Y7871911D1*
X8585481Y7867081D1*
X8595139Y7862252D1*
X8624339Y7852481D1*
X8634110Y7847652D1*
X8638939Y7842711D1*
X8643768Y7833052D1*
Y7818452D1*
X8634110Y7808794D1*
X8619510Y7803852D1*
X8600081D1*
X8585481Y7808794D1*
X8575710Y7818452D1*
X8675141Y7905940D2*
X8699512Y7803852D1*
X8723770Y7905940D1*
X8748029Y7803852D1*
X8772399Y7905940D1*
X8832972D2*
X8823201Y7901111D1*
X8813543Y7891340D1*
X8808601Y7881681D1*
X8803772Y7867081D1*
Y7842711D1*
X8808601Y7828223D1*
X8813543Y7818452D1*
X8823201Y7808794D1*
X8832972Y7803852D1*
X8852401D1*
X8862060Y7808794D1*
X8871830Y7818452D1*
X8876660Y7828223D1*
X8881489Y7842711D1*
Y7867081D1*
X8876660Y7881681D1*
X8871830Y7891340D1*
X8862060Y7901111D1*
X8852401Y7905940D1*
X8832972D1*
X8607456Y7318627D2*
X8646315Y7216539D1*
X8685173Y7318627D1*
X8774834D2*
Y7216539D1*
Y7269997D2*
X8765175Y7279768D1*
X8755404Y7284597D1*
X8740804D1*
X8731146Y7279768D1*
X8721375Y7269997D1*
X8716546Y7255397D1*
Y7245739D1*
X8721375Y7231139D1*
X8731146Y7221480D1*
X8740804Y7216539D1*
X8755404D1*
X8765175Y7221480D1*
X8774834Y7231139D1*
X8864494Y7318627D2*
Y7216539D1*
Y7269997D2*
X8854835Y7279768D1*
X8845065Y7284597D1*
X8830465D1*
X8820806Y7279768D1*
X8811035Y7269997D1*
X8806206Y7255397D1*
Y7245739D1*
X8811035Y7231139D1*
X8820806Y7221480D1*
X8830465Y7216539D1*
X8845065D1*
X8854835Y7221480D1*
X8864494Y7231139D1*
X8680344Y7088015D2*
X8675515Y7097673D1*
X8665744Y7107444D1*
X8656086Y7112273D1*
X8636656D1*
X8626886Y7107444D1*
X8617227Y7097673D1*
X8612286Y7088015D1*
X8607456Y7073415D1*
Y7049044D1*
X8612286Y7034556D1*
X8617227Y7024786D1*
X8626886Y7015127D1*
X8636656Y7010186D1*
X8656086D1*
X8665744Y7015127D1*
X8675515Y7024786D1*
X8680344Y7034556D1*
Y7049044D1*
X8656086D1*
X8779775Y7112273D2*
Y7010186D1*
X8711717Y7112273D1*
Y7010186D1*
X8811148Y7112273D2*
Y7010186D1*
X8845177D1*
X8859777Y7015127D1*
X8869548Y7024786D1*
X8874377Y7034556D1*
X8879206Y7049044D1*
Y7073415D1*
X8874377Y7088015D1*
X8869548Y7097673D1*
X8859777Y7107444D1*
X8845177Y7112273D1*
X8811148D1*
X8641486Y6921793D2*
Y6819706D1*
X8607456Y6921793D2*
X8675515D1*
X8706887D2*
X8774946Y6819706D1*
Y6921793D2*
X8706887Y6819706D1*
X8806318Y6921793D2*
Y6819706D1*
X8840348D1*
X8854948Y6824647D1*
X8864718Y6834306D1*
X8869548Y6844076D1*
X8874377Y6858564D1*
Y6882935D1*
X8869548Y6897535D1*
X8864718Y6907193D1*
X8854948Y6916964D1*
X8840348Y6921793D1*
X8806318D1*
X8607456Y6666811D2*
X8651144D1*
X8665744Y6671752D1*
X8670686Y6676581D1*
X8675515Y6686240D1*
Y6696011D1*
X8670686Y6705669D1*
X8665744Y6710611D1*
X8651144Y6715440D1*
X8607456D1*
Y6613352D1*
X8641486Y6666811D2*
X8675515Y6613352D1*
X8706887Y6715440D2*
X8774946Y6613352D1*
Y6715440D2*
X8706887Y6613352D1*
X8806318Y6715440D2*
Y6613352D1*
X8840348D1*
X8854948Y6618294D1*
X8864718Y6627952D1*
X8869548Y6637723D1*
X8874377Y6652211D1*
Y6676581D1*
X8869548Y6691181D1*
X8864718Y6700840D1*
X8854948Y6710611D1*
X8840348Y6715440D1*
X8806318D1*
X8670950Y6090541D2*
X8714750D1*
X8729237Y6095371D1*
X8734179Y6100312D1*
X8739008Y6109971D1*
Y6124571D1*
X8734179Y6134229D1*
X8729237Y6139171D1*
X8714750Y6144000D1*
X8670950D1*
Y6041912D1*
X8848210D2*
X8809239Y6144000D1*
X8770381Y6041912D1*
X8784981Y6075941D2*
X8833610D1*
X8879583Y6124458D2*
X8889353Y6129400D1*
X8903953Y6143888D1*
Y6041912D1*
X8993614Y6143888D2*
X8945097D1*
X8940267Y6100200D1*
X8945097Y6105029D1*
X8959697Y6109971D1*
X8974184D1*
X8988784Y6105029D1*
X8998555Y6095371D1*
X9003384Y6080771D1*
Y6071112D1*
X8998555Y6056512D1*
X8988784Y6046741D1*
X8974184Y6041912D1*
X8959697D1*
X8945097Y6046741D1*
X8940267Y6051683D1*
X8935326Y6061341D1*
X8670950Y5900061D2*
X8714750D1*
X8729237Y5904891D1*
X8734179Y5909832D1*
X8739008Y5919491D1*
Y5934091D1*
X8734179Y5943749D1*
X8729237Y5948691D1*
X8714750Y5953520D1*
X8670950D1*
Y5851432D1*
X8848210D2*
X8809239Y5953520D1*
X8770381Y5851432D1*
X8784981Y5885461D2*
X8833610D1*
X8879583Y5933978D2*
X8889353Y5938920D1*
X8903953Y5953408D1*
Y5851432D1*
X8940267Y5929149D2*
Y5933978D1*
X8945097Y5943749D1*
X8949926Y5948578D1*
X8959697Y5953408D1*
X8979126D1*
X8988784Y5948578D1*
X8993614Y5943749D1*
X8998555Y5933978D1*
Y5924320D1*
X8993614Y5914549D1*
X8983955Y5900061D1*
X8935326Y5851432D1*
X9003384D1*
X8686823Y5693708D2*
X8730623D1*
X8745111Y5698537D1*
X8750052Y5703479D1*
X8754882Y5713137D1*
Y5727737D1*
X8750052Y5737396D1*
X8745111Y5742337D1*
X8730623Y5747167D1*
X8686823D1*
Y5645079D1*
X8864083D2*
X8825113Y5747167D1*
X8786254Y5645079D1*
X8800854Y5679108D2*
X8849483D1*
X8895456Y5727625D2*
X8905227Y5732567D1*
X8919827Y5747054D1*
Y5645079D1*
X8951199Y5727625D2*
X8960970Y5732567D1*
X8975570Y5747054D1*
Y5645079D1*
X8686823Y5487355D2*
X8730623D1*
X8745111Y5492184D1*
X8750052Y5497126D1*
X8754882Y5506784D1*
Y5521384D1*
X8750052Y5531043D1*
X8745111Y5535984D1*
X8730623Y5540813D1*
X8686823D1*
Y5438726D1*
X8864083D2*
X8825113Y5540813D1*
X8786254Y5438726D1*
X8800854Y5472755D2*
X8849483D1*
X8895456Y5521272D2*
X8905227Y5526213D1*
X8919827Y5540701D1*
Y5438726D1*
X8980399Y5540701D2*
X8965799Y5535872D1*
X8956028Y5521272D1*
X8951199Y5497013D1*
Y5482413D1*
X8956028Y5458155D1*
X8965799Y5443555D1*
X8980399Y5438726D1*
X8990058D1*
X9004658Y5443555D1*
X9014316Y5458155D1*
X9019258Y5482413D1*
Y5497013D1*
X9014316Y5521272D1*
X9004658Y5535872D1*
X8990058Y5540701D1*
X8980399D1*
X9014316Y5521272D2*
X8956028Y5458155D1*
X8686823Y5281001D2*
X8730623D1*
X8745111Y5285831D1*
X8750052Y5290772D1*
X8754882Y5300431D1*
Y5315031D1*
X8750052Y5324689D1*
X8745111Y5329631D1*
X8730623Y5334460D1*
X8686823D1*
Y5232372D1*
X8864083D2*
X8825113Y5334460D1*
X8786254Y5232372D1*
X8800854Y5266401D2*
X8849483D1*
X8958685Y5300431D2*
X8953744Y5285831D1*
X8944085Y5276060D1*
X8929485Y5271231D1*
X8924656D1*
X8910056Y5276060D1*
X8900397Y5285831D1*
X8895456Y5300431D1*
Y5305260D1*
X8900397Y5319860D1*
X8910056Y5329518D1*
X8924656Y5334348D1*
X8929485D1*
X8944085Y5329518D1*
X8953744Y5319860D1*
X8958685Y5300431D1*
Y5276060D1*
X8953744Y5251801D1*
X8944085Y5237201D1*
X8929485Y5232372D1*
X8919827D1*
X8905227Y5237201D1*
X8900397Y5246972D1*
X8686823Y5074648D2*
X8730623D1*
X8745111Y5079477D1*
X8750052Y5084419D1*
X8754882Y5094077D1*
Y5108677D1*
X8750052Y5118336D1*
X8745111Y5123277D1*
X8730623Y5128107D1*
X8686823D1*
Y5026019D1*
X8864083D2*
X8825113Y5128107D1*
X8786254Y5026019D1*
X8800854Y5060048D2*
X8849483D1*
X8919714Y5127994D2*
X8905227Y5123165D1*
X8900285Y5113507D1*
Y5103736D1*
X8905227Y5094077D1*
X8914885Y5089136D1*
X8934314Y5084307D1*
X8948914Y5079477D1*
X8958573Y5069707D1*
X8963402Y5060048D1*
Y5045448D1*
X8958573Y5035790D1*
X8953744Y5030848D1*
X8939144Y5026019D1*
X8919714D1*
X8905227Y5030848D1*
X8900285Y5035790D1*
X8895456Y5045448D1*
Y5060048D1*
X8900285Y5069707D1*
X8910056Y5079477D1*
X8924544Y5084307D1*
X8943973Y5089136D1*
X8953744Y5094077D1*
X8958573Y5103736D1*
Y5113507D1*
X8953744Y5123165D1*
X8939144Y5127994D1*
X8919714D1*
X8686823Y4900041D2*
X8730623D1*
X8745111Y4904871D1*
X8750052Y4909812D1*
X8754882Y4919471D1*
Y4934071D1*
X8750052Y4943729D1*
X8745111Y4948671D1*
X8730623Y4953500D1*
X8686823D1*
Y4851412D1*
X8864083D2*
X8825113Y4953500D1*
X8786254Y4851412D1*
X8800854Y4885441D2*
X8849483D1*
X8914885Y4851412D2*
X8963514Y4953388D1*
X8895456D1*
X8686823Y4693688D2*
X8730623D1*
X8745111Y4698517D1*
X8750052Y4703459D1*
X8754882Y4713117D1*
Y4727717D1*
X8750052Y4737376D1*
X8745111Y4742317D1*
X8730623Y4747147D1*
X8686823D1*
Y4645059D1*
X8864083D2*
X8825113Y4747147D1*
X8786254Y4645059D1*
X8800854Y4679088D2*
X8849483D1*
X8953744Y4732547D2*
X8948914Y4742205D1*
X8934314Y4747034D1*
X8924656D1*
X8910056Y4742205D1*
X8900285Y4727605D1*
X8895456Y4703347D1*
Y4679088D1*
X8900285Y4659659D1*
X8910056Y4649888D1*
X8924656Y4645059D1*
X8929485D1*
X8943973Y4649888D1*
X8953744Y4659659D1*
X8958573Y4674259D1*
Y4679088D1*
X8953744Y4693688D1*
X8943973Y4703347D1*
X8929485Y4708176D1*
X8924656D1*
X8910056Y4703347D1*
X8900285Y4693688D1*
X8895456Y4679088D1*
X8686823Y4487335D2*
X8730623D1*
X8745111Y4492164D1*
X8750052Y4497106D1*
X8754882Y4506764D1*
Y4521364D1*
X8750052Y4531023D1*
X8745111Y4535964D1*
X8730623Y4540793D1*
X8686823D1*
Y4438706D1*
X8864083D2*
X8825113Y4540793D1*
X8786254Y4438706D1*
X8800854Y4472735D2*
X8849483D1*
X8953744Y4540681D2*
X8905227D1*
X8900397Y4496993D1*
X8905227Y4501823D1*
X8919827Y4506764D1*
X8934314D1*
X8948914Y4501823D1*
X8958685Y4492164D1*
X8963514Y4477564D1*
Y4467906D1*
X8958685Y4453306D1*
X8948914Y4443535D1*
X8934314Y4438706D1*
X8919827D1*
X8905227Y4443535D1*
X8900397Y4448476D1*
X8895456Y4458135D1*
X8686823Y4280981D2*
X8730623D1*
X8745111Y4285811D1*
X8750052Y4290752D1*
X8754882Y4300411D1*
Y4315011D1*
X8750052Y4324669D1*
X8745111Y4329611D1*
X8730623Y4334440D1*
X8686823D1*
Y4232352D1*
X8864083D2*
X8825113Y4334440D1*
X8786254Y4232352D1*
X8800854Y4266381D2*
X8849483D1*
X8944085Y4232352D2*
Y4334328D1*
X8895456Y4266381D1*
X8968344D1*
X8702696Y4090501D2*
X8746496D1*
X8760984Y4095331D1*
X8765926Y4100272D1*
X8770755Y4109931D1*
Y4124531D1*
X8765926Y4134189D1*
X8760984Y4139131D1*
X8746496Y4143960D1*
X8702696D1*
Y4041872D1*
X8879957D2*
X8840986Y4143960D1*
X8802127Y4041872D1*
X8816727Y4075901D2*
X8865357D1*
X8921100Y4143848D2*
X8974446D1*
X8945358Y4104989D1*
X8959958D1*
X8969617Y4100160D1*
X8974446Y4095331D1*
X8979388Y4080731D1*
Y4071072D1*
X8974446Y4056472D1*
X8964788Y4046701D1*
X8950188Y4041872D1*
X8935588D1*
X8921100Y4046701D1*
X8916271Y4051643D1*
X8911329Y4061301D1*
X8686823Y3884148D2*
X8730623D1*
X8745111Y3888977D1*
X8750052Y3893919D1*
X8754882Y3903577D1*
Y3918177D1*
X8750052Y3927836D1*
X8745111Y3932777D1*
X8730623Y3937607D1*
X8686823D1*
Y3835519D1*
X8864083D2*
X8825113Y3937607D1*
X8786254Y3835519D1*
X8800854Y3869548D2*
X8849483D1*
X8900397Y3913236D2*
Y3918065D1*
X8905227Y3927836D1*
X8910056Y3932665D1*
X8919827Y3937494D1*
X8939256D1*
X8948914Y3932665D1*
X8953744Y3927836D1*
X8958685Y3918065D1*
Y3908407D1*
X8953744Y3898636D1*
X8944085Y3884148D1*
X8895456Y3835519D1*
X8963514D1*
X8686823Y3693668D2*
X8730623D1*
X8745111Y3698497D1*
X8750052Y3703439D1*
X8754882Y3713097D1*
Y3727697D1*
X8750052Y3737356D1*
X8745111Y3742297D1*
X8730623Y3747127D1*
X8686823D1*
Y3645039D1*
X8864083D2*
X8825113Y3747127D1*
X8786254Y3645039D1*
X8800854Y3679068D2*
X8849483D1*
X8895456Y3727585D2*
X8905227Y3732527D1*
X8919827Y3747014D1*
Y3645039D1*
X8686823Y3519061D2*
X8730623D1*
X8745111Y3523891D1*
X8750052Y3528832D1*
X8754882Y3538491D1*
Y3553091D1*
X8750052Y3562749D1*
X8745111Y3567691D1*
X8730623Y3572520D1*
X8686823D1*
Y3470432D1*
X8864083D2*
X8825113Y3572520D1*
X8786254Y3470432D1*
X8800854Y3504461D2*
X8849483D1*
X8924656Y3572408D2*
X8910056Y3567578D1*
X8900285Y3552978D1*
X8895456Y3528720D1*
Y3514120D1*
X8900285Y3489861D1*
X8910056Y3475261D1*
X8924656Y3470432D1*
X8934314D1*
X8948914Y3475261D1*
X8958573Y3489861D1*
X8963514Y3514120D1*
Y3528720D1*
X8958573Y3552978D1*
X8948914Y3567578D1*
X8934314Y3572408D1*
X8924656D1*
X8958573Y3552978D2*
X8900285Y3489861D1*
X8702696Y2979368D2*
X8746496D1*
X8760984Y2984197D1*
X8765926Y2989139D1*
X8770755Y2998797D1*
Y3013397D1*
X8765926Y3023056D1*
X8760984Y3027997D1*
X8746496Y3032827D1*
X8702696D1*
Y2930739D1*
X8802127Y3032827D2*
Y2930739D1*
X8845927D1*
X8860527Y2935680D1*
X8865357Y2940510D1*
X8870186Y2950168D1*
Y2964768D1*
X8865357Y2974539D1*
X8860527Y2979368D1*
X8845927Y2984197D1*
X8860527Y2989139D1*
X8865357Y2993968D1*
X8870186Y3003627D1*
Y3013397D1*
X8865357Y3023056D1*
X8860527Y3027997D1*
X8845927Y3032827D1*
X8802127D1*
Y2984197D2*
X8845927D1*
X8930758Y3032714D2*
X8916158Y3027885D1*
X8906388Y3013285D1*
X8901558Y2989027D1*
Y2974427D1*
X8906388Y2950168D1*
X8916158Y2935568D1*
X8930758Y2930739D1*
X8940417D1*
X8955017Y2935568D1*
X8964675Y2950168D1*
X8969617Y2974427D1*
Y2989027D1*
X8964675Y3013285D1*
X8955017Y3027885D1*
X8940417Y3032714D1*
X8930758D1*
X8964675Y3013285D2*
X8906388Y2950168D1*
X8702696Y2757141D2*
X8746496D1*
X8760984Y2761971D1*
X8765926Y2766912D1*
X8770755Y2776571D1*
Y2791171D1*
X8765926Y2800829D1*
X8760984Y2805771D1*
X8746496Y2810600D1*
X8702696D1*
Y2708512D1*
X8802127Y2810600D2*
Y2708512D1*
X8845927D1*
X8860527Y2713454D1*
X8865357Y2718283D1*
X8870186Y2727941D1*
Y2742541D1*
X8865357Y2752312D1*
X8860527Y2757141D1*
X8845927Y2761971D1*
X8860527Y2766912D1*
X8865357Y2771741D1*
X8870186Y2781400D1*
Y2791171D1*
X8865357Y2800829D1*
X8860527Y2805771D1*
X8845927Y2810600D1*
X8802127D1*
Y2761971D2*
X8845927D1*
X8901558Y2791058D2*
X8911329Y2796000D1*
X8925929Y2810488D1*
Y2708512D1*
X8718570Y2550788D2*
X8762370D1*
X8776857Y2555617D1*
X8781799Y2560559D1*
X8786628Y2570217D1*
Y2584817D1*
X8781799Y2594476D1*
X8776857Y2599417D1*
X8762370Y2604247D1*
X8718570D1*
Y2502159D1*
X8818001Y2604247D2*
Y2502159D1*
X8861801D1*
X8876401Y2507100D1*
X8881230Y2511930D1*
X8886059Y2521588D1*
Y2536188D1*
X8881230Y2545959D1*
X8876401Y2550788D1*
X8861801Y2555617D1*
X8876401Y2560559D1*
X8881230Y2565388D1*
X8886059Y2575047D1*
Y2584817D1*
X8881230Y2594476D1*
X8876401Y2599417D1*
X8861801Y2604247D1*
X8818001D1*
Y2555617D2*
X8861801D1*
X8922373Y2579876D2*
Y2584705D1*
X8927203Y2594476D1*
X8932032Y2599305D1*
X8941803Y2604134D1*
X8961232D1*
X8970890Y2599305D1*
X8975720Y2594476D1*
X8980661Y2584705D1*
Y2575047D1*
X8975720Y2565276D1*
X8966061Y2550788D1*
X8917432Y2502159D1*
X8985490D1*
X8718570Y2344435D2*
X8762370D1*
X8776857Y2349264D1*
X8781799Y2354206D1*
X8786628Y2363864D1*
Y2378464D1*
X8781799Y2388123D1*
X8776857Y2393064D1*
X8762370Y2397893D1*
X8718570D1*
Y2295806D1*
X8818001Y2397893D2*
Y2295806D1*
X8861801D1*
X8876401Y2300747D1*
X8881230Y2305576D1*
X8886059Y2315235D1*
Y2329835D1*
X8881230Y2339606D1*
X8876401Y2344435D1*
X8861801Y2349264D1*
X8876401Y2354206D1*
X8881230Y2359035D1*
X8886059Y2368693D1*
Y2378464D1*
X8881230Y2388123D1*
X8876401Y2393064D1*
X8861801Y2397893D1*
X8818001D1*
Y2349264D2*
X8861801D1*
X8927203Y2397781D2*
X8980549D1*
X8951461Y2358923D1*
X8966061D1*
X8975720Y2354093D1*
X8980549Y2349264D1*
X8985490Y2334664D1*
Y2325006D1*
X8980549Y2310406D1*
X8970890Y2300635D1*
X8956290Y2295806D1*
X8941690D1*
X8927203Y2300635D1*
X8922373Y2305576D1*
X8917432Y2315235D1*
X8718570Y2153955D2*
X8762370D1*
X8776857Y2158784D1*
X8781799Y2163726D1*
X8786628Y2173384D1*
Y2187984D1*
X8781799Y2197643D1*
X8776857Y2202584D1*
X8762370Y2207413D1*
X8718570D1*
Y2105326D1*
X8818001Y2207413D2*
Y2105326D1*
X8861801D1*
X8876401Y2110267D1*
X8881230Y2115096D1*
X8886059Y2124755D1*
Y2139355D1*
X8881230Y2149126D1*
X8876401Y2153955D1*
X8861801Y2158784D1*
X8876401Y2163726D1*
X8881230Y2168555D1*
X8886059Y2178213D1*
Y2187984D1*
X8881230Y2197643D1*
X8876401Y2202584D1*
X8861801Y2207413D1*
X8818001D1*
Y2158784D2*
X8861801D1*
X8966061Y2105326D2*
Y2207301D1*
X8917432Y2139355D1*
X8990320D1*
X8718570Y1963475D2*
X8762370D1*
X8776857Y1968304D1*
X8781799Y1973246D1*
X8786628Y1982904D1*
Y1997504D1*
X8781799Y2007163D1*
X8776857Y2012104D1*
X8762370Y2016933D1*
X8718570D1*
Y1914846D1*
X8818001Y2016933D2*
Y1914846D1*
X8861801D1*
X8876401Y1919787D1*
X8881230Y1924616D1*
X8886059Y1934275D1*
Y1948875D1*
X8881230Y1958646D1*
X8876401Y1963475D1*
X8861801Y1968304D1*
X8876401Y1973246D1*
X8881230Y1978075D1*
X8886059Y1987733D1*
Y1997504D1*
X8881230Y2007163D1*
X8876401Y2012104D1*
X8861801Y2016933D1*
X8818001D1*
Y1968304D2*
X8861801D1*
X8975720Y2016821D2*
X8927203D1*
X8922373Y1973133D1*
X8927203Y1977963D1*
X8941803Y1982904D1*
X8956290D1*
X8970890Y1977963D1*
X8980661Y1968304D1*
X8985490Y1953704D1*
Y1944046D1*
X8980661Y1929446D1*
X8970890Y1919675D1*
X8956290Y1914846D1*
X8941803D1*
X8927203Y1919675D1*
X8922373Y1924616D1*
X8917432Y1934275D1*
X8734443Y1772995D2*
X8778243D1*
X8792731Y1777824D1*
X8797672Y1782766D1*
X8802502Y1792424D1*
Y1807024D1*
X8797672Y1816683D1*
X8792731Y1821624D1*
X8778243Y1826453D1*
X8734443D1*
Y1724366D1*
X8833874Y1826453D2*
Y1724366D1*
X8877674D1*
X8892274Y1729307D1*
X8897103Y1734136D1*
X8901933Y1743795D1*
Y1758395D1*
X8897103Y1768166D1*
X8892274Y1772995D1*
X8877674Y1777824D1*
X8892274Y1782766D1*
X8897103Y1787595D1*
X8901933Y1797253D1*
Y1807024D1*
X8897103Y1816683D1*
X8892274Y1821624D1*
X8877674Y1826453D1*
X8833874D1*
Y1777824D2*
X8877674D1*
X8991593Y1811853D2*
X8986764Y1821512D1*
X8972164Y1826341D1*
X8962505D1*
X8947905Y1821512D1*
X8938134Y1806912D1*
X8933305Y1782653D1*
Y1758395D1*
X8938134Y1738966D1*
X8947905Y1729195D1*
X8962505Y1724366D1*
X8967334D1*
X8981822Y1729195D1*
X8991593Y1738966D1*
X8996422Y1753566D1*
Y1758395D1*
X8991593Y1772995D1*
X8981822Y1782653D1*
X8967334Y1787483D1*
X8962505D1*
X8947905Y1782653D1*
X8938134Y1772995D1*
X8933305Y1758395D1*
X8734443Y1566641D2*
X8778243D1*
X8792731Y1571471D1*
X8797672Y1576412D1*
X8802502Y1586071D1*
Y1600671D1*
X8797672Y1610329D1*
X8792731Y1615271D1*
X8778243Y1620100D1*
X8734443D1*
Y1518012D1*
X8833874Y1620100D2*
Y1518012D1*
X8877674D1*
X8892274Y1522954D1*
X8897103Y1527783D1*
X8901933Y1537441D1*
Y1552041D1*
X8897103Y1561812D1*
X8892274Y1566641D1*
X8877674Y1571471D1*
X8892274Y1576412D1*
X8897103Y1581241D1*
X8901933Y1590900D1*
Y1600671D1*
X8897103Y1610329D1*
X8892274Y1615271D1*
X8877674Y1620100D1*
X8833874D1*
Y1571471D2*
X8877674D1*
X8952734Y1518012D2*
X9001364Y1619988D1*
X8933305D1*
X8734443Y1360288D2*
X8778243D1*
X8792731Y1365117D1*
X8797672Y1370059D1*
X8802502Y1379717D1*
Y1394317D1*
X8797672Y1403976D1*
X8792731Y1408917D1*
X8778243Y1413747D1*
X8734443D1*
Y1311659D1*
X8833874Y1413747D2*
Y1311659D1*
X8877674D1*
X8892274Y1316600D1*
X8897103Y1321430D1*
X8901933Y1331088D1*
Y1345688D1*
X8897103Y1355459D1*
X8892274Y1360288D1*
X8877674Y1365117D1*
X8892274Y1370059D1*
X8897103Y1374888D1*
X8901933Y1384547D1*
Y1394317D1*
X8897103Y1403976D1*
X8892274Y1408917D1*
X8877674Y1413747D1*
X8833874D1*
Y1365117D2*
X8877674D1*
X8933305Y1394205D2*
X8943076Y1399147D1*
X8957676Y1413634D1*
Y1311659D1*
X8993990Y1389376D2*
Y1394205D1*
X8998819Y1403976D1*
X9003648Y1408805D1*
X9013419Y1413634D1*
X9032848D1*
X9042507Y1408805D1*
X9047336Y1403976D1*
X9052278Y1394205D1*
Y1384547D1*
X9047336Y1374776D1*
X9037678Y1360288D1*
X8989048Y1311659D1*
X9057107D1*
X8718570Y1153935D2*
X8762370D1*
X8776857Y1158764D1*
X8781799Y1163706D1*
X8786628Y1173364D1*
Y1187964D1*
X8781799Y1197623D1*
X8776857Y1202564D1*
X8762370Y1207393D1*
X8718570D1*
Y1105306D1*
X8818001Y1207393D2*
Y1105306D1*
X8861801D1*
X8876401Y1110247D1*
X8881230Y1115076D1*
X8886059Y1124735D1*
Y1139335D1*
X8881230Y1149106D1*
X8876401Y1153935D1*
X8861801Y1158764D1*
X8876401Y1163706D1*
X8881230Y1168535D1*
X8886059Y1178193D1*
Y1187964D1*
X8881230Y1197623D1*
X8876401Y1202564D1*
X8861801Y1207393D1*
X8818001D1*
Y1158764D2*
X8861801D1*
X8917432Y1187852D2*
X8927203Y1192793D1*
X8941803Y1207281D1*
Y1105306D1*
X8982946Y1207281D2*
X9036292D1*
X9007204Y1168423D1*
X9021804D1*
X9031463Y1163593D1*
X9036292Y1158764D1*
X9041234Y1144164D1*
Y1134506D1*
X9036292Y1119906D1*
X9026634Y1110135D1*
X9012034Y1105306D1*
X8997434D1*
X8982946Y1110135D1*
X8978117Y1115076D1*
X8973175Y1124735D1*
X8718570Y947581D2*
X8762370D1*
X8776857Y952411D1*
X8781799Y957352D1*
X8786628Y967011D1*
Y981611D1*
X8781799Y991269D1*
X8776857Y996211D1*
X8762370Y1001040D1*
X8718570D1*
Y898952D1*
X8818001Y1001040D2*
Y898952D1*
X8861801D1*
X8876401Y903894D1*
X8881230Y908723D1*
X8886059Y918381D1*
Y932981D1*
X8881230Y942752D1*
X8876401Y947581D1*
X8861801Y952411D1*
X8876401Y957352D1*
X8881230Y962181D1*
X8886059Y971840D1*
Y981611D1*
X8881230Y991269D1*
X8876401Y996211D1*
X8861801Y1001040D1*
X8818001D1*
Y952411D2*
X8861801D1*
X8917432Y981498D2*
X8927203Y986440D1*
X8941803Y1000928D1*
Y898952D1*
X9021804D2*
Y1000928D1*
X8973175Y932981D1*
X9046063D1*
X8718570Y757101D2*
X8762370D1*
X8776857Y761931D1*
X8781799Y766872D1*
X8786628Y776531D1*
Y791131D1*
X8781799Y800789D1*
X8776857Y805731D1*
X8762370Y810560D1*
X8718570D1*
Y708472D1*
X8818001Y810560D2*
Y708472D1*
X8861801D1*
X8876401Y713414D1*
X8881230Y718243D1*
X8886059Y727901D1*
Y742501D1*
X8881230Y752272D1*
X8876401Y757101D1*
X8861801Y761931D1*
X8876401Y766872D1*
X8881230Y771701D1*
X8886059Y781360D1*
Y791131D1*
X8881230Y800789D1*
X8876401Y805731D1*
X8861801Y810560D1*
X8818001D1*
Y761931D2*
X8861801D1*
X8917432Y791018D2*
X8927203Y795960D1*
X8941803Y810448D1*
Y708472D1*
X9031463Y810448D2*
X8982946D1*
X8978117Y766760D1*
X8982946Y771589D1*
X8997546Y776531D1*
X9012034D1*
X9026634Y771589D1*
X9036404Y761931D1*
X9041234Y747331D1*
Y737672D1*
X9036404Y723072D1*
X9026634Y713301D1*
X9012034Y708472D1*
X8997546D1*
X8982946Y713301D1*
X8978117Y718243D1*
X8973175Y727901D1*
X8718570Y582495D2*
X8762370D1*
X8776857Y587324D1*
X8781799Y592266D1*
X8786628Y601924D1*
Y616524D1*
X8781799Y626183D1*
X8776857Y631124D1*
X8762370Y635953D1*
X8718570D1*
Y533866D1*
X8890889Y611695D2*
X8886059Y621353D1*
X8876289Y631124D1*
X8866630Y635953D1*
X8847201D1*
X8837430Y631124D1*
X8827772Y621353D1*
X8822830Y611695D1*
X8818001Y597095D1*
Y572724D1*
X8822830Y558236D1*
X8827772Y548466D1*
X8837430Y538807D1*
X8847201Y533866D1*
X8866630D1*
X8876289Y538807D1*
X8886059Y548466D1*
X8890889Y558236D1*
X8922261Y616412D2*
X8932032Y621353D1*
X8946632Y635841D1*
Y533866D1*
X9036292Y621353D2*
X9031463Y631012D1*
X9016863Y635841D1*
X9007204D1*
X8992604Y631012D1*
X8982834Y616412D1*
X8978004Y592153D1*
Y567895D1*
X8982834Y548466D1*
X8992604Y538695D1*
X9007204Y533866D1*
X9012034D1*
X9026521Y538695D1*
X9036292Y548466D1*
X9041121Y563066D1*
Y567895D1*
X9036292Y582495D1*
X9026521Y592153D1*
X9012034Y596983D1*
X9007204D1*
X8992604Y592153D1*
X8982834Y582495D1*
X8978004Y567895D1*
X1972402Y7667841D2*
X2011260Y7565753D1*
X2050119Y7667841D1*
X2081491D2*
X2086321Y7663012D1*
X2091262Y7667841D1*
X2086321Y7672783D1*
X2081491Y7667841D1*
X2086321Y7633812D2*
Y7565753D1*
X2122635Y7633812D2*
Y7565753D1*
Y7614383D2*
X2137235Y7628983D1*
X2147006Y7633812D1*
X2161493D1*
X2171264Y7628983D1*
X2176093Y7614383D1*
Y7565753D1*
X1940656Y7890067D2*
X1979515Y7787979D1*
X2018373Y7890067D1*
X2049746Y7856037D2*
Y7807408D1*
X2054575Y7792920D1*
X2064346Y7787979D1*
X2078946D1*
X2088604Y7792920D1*
X2103204Y7807408D1*
Y7856037D2*
Y7787979D1*
X2149177Y7890067D2*
Y7807408D1*
X2154006Y7792920D1*
X2163777Y7787979D1*
X2173435D1*
X2134577Y7856037D2*
X2168606D1*
X2013544Y8088035D2*
X2008715Y8097693D1*
X1998944Y8107464D1*
X1989286Y8112293D1*
X1969856D1*
X1960086Y8107464D1*
X1950427Y8097693D1*
X1945486Y8088035D1*
X1940656Y8073435D1*
Y8049064D1*
X1945486Y8034576D1*
X1950427Y8024806D1*
X1960086Y8015147D1*
X1969856Y8010206D1*
X1989286D1*
X1998944Y8015147D1*
X2008715Y8024806D1*
X2013544Y8034576D1*
Y8049064D1*
X1989286D1*
X2112975Y8112293D2*
Y8010206D1*
X2044917Y8112293D1*
Y8010206D1*
X2144348Y8112293D2*
Y8010206D1*
X2178377D1*
X2192977Y8015147D1*
X2202748Y8024806D1*
X2207577Y8034576D1*
X2212406Y8049064D1*
Y8073435D1*
X2207577Y8088035D1*
X2202748Y8097693D1*
X2192977Y8107464D1*
X2178377Y8112293D1*
X2144348D1*
M02*
