G04 DipTrace 3.0.0.2*
G04 Grupp7layout.GTL*
%MOMM*%
G04 #@! TF.FileFunction,Copper,L1,Top*
G04 #@! TF.Part,Single*
G04 #@! TA.AperFunction,Conductor*
%ADD10C,0.25*%
%ADD13C,0.33*%
%ADD14C,0.4*%
G04 #@! TA.AperFunction,CopperBalancing*
%ADD15C,0.635*%
%ADD17R,1.5X1.3*%
%ADD18R,1.0X1.1*%
%ADD19R,0.8X0.8*%
G04 #@! TA.AperFunction,ComponentPad*
%ADD20R,1.7X1.7*%
%ADD21C,1.7*%
%ADD22R,1.75X1.75*%
%ADD23C,1.75*%
%ADD24R,1.1X1.0*%
%ADD26R,0.3X1.6*%
%ADD27R,1.6X0.3*%
%ADD29R,2.15X0.95*%
%ADD30R,2.15X3.25*%
%ADD32R,2.05X5.55*%
G04 #@! TA.AperFunction,ViaPad*
%ADD33C,0.8*%
%FSLAX35Y35*%
G04*
G71*
G90*
G75*
G01*
G04 Top*
%LPD*%
X2032000Y9207500D2*
D13*
X1603373D1*
X1587500Y9223373D1*
X2349500Y8064500D2*
Y8445497D1*
X2365377Y8461373D1*
X3365500Y7937500D2*
X3254373D1*
X3175000Y8016873D1*
X3810000Y7937500D2*
Y8255000D1*
X3794127Y8270873D1*
X6096000Y7831000D2*
Y7524750D1*
X6546000Y9159000D2*
X7049373D1*
X7366000Y8842373D1*
X6546000Y8509000D2*
X7032627D1*
X7366000Y8842373D1*
X8159750D1*
X8366123Y8636000D1*
X9080500D1*
X8175627Y7016750D2*
X9029750D1*
X9080500Y7067500D1*
X6477000Y4826500D2*
Y4699000D1*
X6397627Y4619627D1*
X6527000Y4205500D2*
D10*
Y4347377D1*
X6397627Y4476750D1*
Y4619627D1*
X825500Y9398000D2*
X635000D1*
X587373Y9350373D1*
Y8778877D1*
X1111250Y8255000D1*
X7048500Y4826500D2*
Y4714873D1*
X7032627Y4699000D1*
X7172000Y4010500D2*
X7249000D1*
X7172000D2*
X7328377D1*
X7445377Y4127500D1*
X7493000D1*
X6873873Y3063873D2*
X6858003D1*
X6827000Y3094877D1*
Y3365500D1*
X7413623Y2619873D2*
X7523187D1*
X7603327Y2539733D1*
X7096127Y2604000D2*
Y2508247D1*
X7127873Y2476500D1*
X7540093D1*
X7603327Y2539733D1*
X6332000Y3710500D2*
X5933000D1*
X5810250Y3587750D1*
X5746750D1*
X5730873Y3571873D1*
X6332000Y3560500D2*
X6132250D1*
X6064250Y3492500D1*
Y3175000D1*
X4730750Y4021000D2*
X4957627D1*
X5127627Y4191000D1*
X4730750Y1862000D2*
Y1793873D1*
X4968873Y1555750D1*
X825500Y2267000D2*
X3543250D1*
X3587750Y2222500D1*
Y2016127D1*
X3571873Y2000250D1*
X7412847Y2079887D2*
Y1761940D1*
X7172000Y3910500D2*
X7450623D1*
X7572373Y4032250D1*
D13*
Y6683373D1*
X7747000Y6858000D1*
X9071000D1*
X9080500Y6867500D1*
X7172000Y3960500D2*
D10*
X7389500D1*
X7429500Y4000500D1*
X7699373D2*
Y6429373D1*
X7937500Y6667500D1*
X9080500D1*
X825500Y2467000D2*
D13*
X835000Y2476500D1*
X6332000Y3660500D2*
D10*
X6041750D1*
X5842000Y3460750D1*
Y2397127D1*
X3937000D2*
D13*
X895373D1*
X825500Y2467000D1*
X6927000Y3365500D2*
D10*
Y3201250D1*
X7000873Y3127377D1*
X7461247D1*
X7524750Y3063873D1*
X9128127Y3222623D2*
D13*
Y3476627D1*
X9144000Y3492500D1*
X4730750Y3556000D2*
X4492627Y3794123D1*
Y4111627D1*
X4556127Y4175127D1*
X4714877D1*
X4730750Y4191000D1*
X6677000Y3365500D2*
D10*
Y3041627D1*
X6619873Y2984500D1*
X6429377D1*
X5064127Y3667127D2*
X5016500D1*
X5000627Y3683000D1*
X4857750D1*
X4730750Y3556000D1*
X6332000Y4060500D2*
X6242377D1*
X6207127Y4095750D1*
X5746750D1*
X5143500Y4699000D1*
Y4889500D1*
Y5207000D2*
Y9207500D1*
X5334000Y9398000D1*
X8509000D1*
X9017000Y8890000D1*
X9080500D1*
X6577000Y4205500D2*
Y4456127D1*
X6508750Y4524377D1*
Y4619623D1*
Y5207000D2*
D13*
X6604000D1*
Y7556500D1*
X6921500Y7874000D1*
X7429500Y8382000D2*
X9080500D1*
X6332000Y3610500D2*
D10*
X6071127D1*
X5953127Y3492500D1*
D13*
Y2667000D1*
X3937000D2*
X825500D1*
Y9144000D2*
D14*
X809623D1*
Y8747127D1*
X1936750Y7620000D1*
X2334000D1*
X2349500Y7604500D1*
D13*
X3222500D1*
X3365500Y7747500D1*
X6727000Y3365500D2*
D10*
Y1898500D1*
X6720500Y1905000D1*
X4730750Y2601000D2*
D13*
X4728253D1*
X4492627Y2365373D1*
Y2079623D1*
X4540250Y2032000D1*
X4730750D1*
X5238750D1*
X5778500D2*
X5810250D1*
X5937250Y1905000D1*
X6550500D1*
X6977000Y3365500D2*
D10*
Y3246503D1*
X7032627Y3190877D1*
X7604123D1*
X7651750Y3143250D1*
X8921750Y3190877D2*
D13*
Y3619497D1*
X9001127Y3698873D1*
X9137627D1*
X9144000Y3692500D1*
X7027000Y3365500D2*
D10*
Y3260000D1*
X7048500Y3238500D1*
X7762873D1*
X8842373Y3270250D2*
D13*
Y3841750D1*
X8905873Y3905250D1*
X9131250D1*
X9144000Y3892500D1*
X7172000Y3510500D2*
D10*
X7363873D1*
X7540623Y3333750D1*
X7620000D1*
X8763000Y3349623D2*
D13*
Y3905250D1*
X8953500Y4095750D1*
X9140750D1*
X9144000Y4092500D1*
X7172000Y3560500D2*
D10*
X7425000D1*
X7572373Y3413127D1*
X7731127D1*
X8683623Y3429000D2*
D13*
Y4127500D1*
X8858250Y4302127D1*
X9134373D1*
X9144000Y4292500D1*
X7172000Y3610500D2*
D10*
X7454373D1*
X7572373Y3492500D1*
X7810500D1*
X8604250Y3508377D2*
D13*
Y4238627D1*
X8858250Y4492627D1*
X9143873D1*
X9144000Y4492500D1*
X7172000Y3660500D2*
D10*
X7483750D1*
X7604123Y3540127D1*
X7747003D1*
X7810503Y3603627D1*
X8524873D2*
D13*
Y4460873D1*
X8747127Y4683127D1*
X9134627D1*
X9144000Y4692500D1*
X7172000Y3710500D2*
D10*
X7513123D1*
X7635873Y3587750D1*
X7667627D1*
X7826373Y3746497D1*
Y4143373D1*
X8239123D2*
D13*
Y4667250D1*
X8461373Y4889500D1*
X9141000D1*
X9144000Y4892500D1*
X6827000Y4205500D2*
D10*
Y4620373D1*
X6873877Y4667250D1*
X7969250Y5143500D2*
X9093000D1*
X9144000Y5092500D1*
X6777000Y4205500D2*
Y4697377D1*
X6889750Y4810127D1*
X7064373Y5175250D2*
Y5397500D1*
X7112000Y5445127D1*
X7985123D2*
X8937623D1*
X9090250Y5292500D1*
X9144000D1*
X6727000Y4205500D2*
Y4774377D1*
X6873873Y4921250D1*
X6937373Y5175250D2*
Y5587997D1*
X6969127Y5619750D1*
X7112000D1*
X7985123D2*
X9016750D1*
X9144000Y5492500D1*
X6677000Y4205500D2*
Y4883127D1*
X6794500Y5000627D1*
Y5175250D2*
Y5730873D1*
X6842127Y5778500D1*
X7112000D1*
X7985123D2*
X9058000D1*
X9144000Y5692500D1*
X6627000Y4205500D2*
Y4960127D1*
X6667500Y5000627D1*
Y5159373D2*
Y5842000D1*
X6715127Y5889627D1*
X7112000D1*
X7985123D2*
X9141127D1*
X9144000Y5892500D1*
X6332000Y4010500D2*
X5689123D1*
X5667373Y4032250D1*
Y4445000D2*
X6096000D1*
X7810500D2*
Y5969000D1*
X7934000Y6092500D1*
X9144000D1*
X7172000Y3760500D2*
X7574247D1*
X7635873Y3698873D1*
X8429623D2*
D13*
Y3333750D1*
X8778873Y2984500D1*
X9131000D1*
X9144000Y2971500D1*
X7172000Y3810500D2*
D10*
X7667123D1*
X7699373Y3778250D1*
X8350250D2*
D13*
Y3000377D1*
X8620127Y2730500D1*
X9103000D1*
X9144000Y2771500D1*
X7172000Y3860500D2*
D10*
X7744123D1*
X7731123Y3873500D1*
X8255000D2*
D13*
Y2841623D1*
X8540750Y2555873D1*
X9128373D1*
X9144000Y2571500D1*
X6332000Y3960500D2*
D10*
X5294000D1*
X5191127Y3857627D1*
D13*
Y2508250D1*
X6842127Y2460627D2*
Y2317750D1*
X6889990Y2269887D1*
X7079507D1*
X8302623D2*
Y2317750D1*
X8413750Y2428877D1*
X9086623D1*
X9144000Y2371500D1*
X6332000Y3910500D2*
D10*
X5371000D1*
X5302250Y3841750D1*
D13*
Y2190750D1*
X8445500D2*
X9163250D1*
X9144000Y2171500D1*
X6332000Y3860500D2*
D10*
X5448000D1*
X5397500Y3810000D1*
Y1777997D1*
X5508623Y1666873D1*
X6762750D1*
X6921500Y1825623D1*
Y2047877D1*
X6953030Y2079407D1*
X7063633D1*
X8318500Y2063750D2*
D13*
X9051750D1*
X9144000Y1971500D1*
X6332000Y3810500D2*
D10*
X5525000D1*
X5476873Y3762373D1*
Y1793877D1*
X5524500Y1746250D1*
X6635750D1*
X7000873Y1730377D2*
Y1905000D1*
X7048293Y1952420D1*
X7111253D1*
X8318500Y1968500D2*
D13*
X8947000D1*
X9144000Y1771500D1*
X6332000Y3760500D2*
D10*
X5602000D1*
X5572127Y3730627D1*
Y1873250D1*
X5556250Y1555750D2*
X6969127D1*
X7112000Y1698623D1*
Y1841500D1*
X7159427Y1888927D1*
X7222367D1*
X8318500Y1873053D2*
D13*
X8842447D1*
X9144000Y1571500D1*
X7027000Y4205500D2*
D10*
Y4254500D1*
Y4205500D2*
Y4296500D1*
X7048500Y4318000D1*
X7127873D1*
X7175497Y4270377D1*
X8159750D2*
D13*
Y1666873D1*
X8477250Y1349373D1*
X9121873D1*
X9144000Y1371500D1*
X6977000Y4205500D2*
D10*
Y4325873D1*
X7016753Y4365627D1*
X7207250D1*
X8080373D2*
D13*
Y1381127D1*
X8302627Y1158873D1*
X9131373D1*
X9144000Y1171500D1*
X6927000Y4205500D2*
D10*
Y4339373D1*
X7302500Y4714873D1*
X8001000D2*
D13*
Y1143000D1*
X8175627Y968373D1*
X9140873D1*
X9144000Y971500D1*
X6877000Y4205500D2*
D10*
Y4432250D1*
X7239000Y4794250D1*
X7905750D2*
D13*
Y952500D1*
X8096250Y762000D1*
X9134500D1*
X9144000Y771500D1*
Y571500D2*
X6683377D1*
X6524627Y2095500D2*
Y2889250D1*
Y3111500D2*
D10*
X6527000Y3113873D1*
Y3365500D1*
X6096000Y8001000D2*
D13*
Y8509000D1*
Y8001000D2*
X8953500D1*
X9080500Y8128000D1*
X6096000Y9159000D2*
Y8509000D1*
X6777000Y3365500D2*
D10*
Y2986123D1*
X6826250Y2936873D1*
X7777933Y2365127D2*
D13*
Y1412727D1*
X7730457Y1365250D1*
X4270377D1*
X4095750Y1539877D1*
Y3444873D1*
Y3984627D2*
Y4873623D1*
Y5508623D2*
Y7635877D1*
X4460873Y8001000D1*
X5318127D2*
X6096000D1*
X2984500Y9207500D2*
X2476500D1*
X2413000D1*
X1841500Y8636000D1*
Y8001000D1*
X2032000Y7810500D1*
X2325500D1*
X2349500Y7834500D1*
X2929500D2*
Y8009500D1*
X3111500Y8191500D1*
X3429000D1*
X3556000Y8064500D1*
Y7810500D1*
X3619500Y7747000D1*
X3809500D1*
X3810000Y7747500D1*
X3841347D1*
Y5556653D1*
X4350280Y5047720D1*
X6477000D1*
Y5016500D1*
Y5079467D1*
X7048500D1*
Y5016500D1*
X7302500Y5270500D1*
Y7048500D1*
X7493000Y7239000D1*
X9052000D1*
X9080500Y7267500D1*
X6477000Y5016500D2*
D10*
X6413500D1*
X6286500Y4889500D1*
Y4508500D1*
X6477000Y4318000D1*
Y4205500D1*
X7048500Y5016500D2*
X7143750D1*
X7429500Y4730750D1*
Y4222750D1*
X7267250Y4060500D1*
X7172000D1*
X6877000Y3365500D2*
X6873873D1*
X3810000Y7747500D2*
D13*
X4064500D1*
X4254500Y7937500D1*
Y9207500D1*
X4572000Y9525000D1*
X8699500D1*
X9080500Y9144000D1*
X7096127Y2794000D2*
X7413623D1*
Y2809873D1*
X2984500Y9377500D2*
X2476500D1*
X2052000D1*
X2032000Y9357500D1*
X2476500Y9207500D2*
Y9377500D1*
X7096127Y2794000D2*
D10*
Y3063873D1*
X7080250Y3079750D1*
X6985000D1*
X6873873Y3190877D1*
Y3362373D1*
X2349500Y7834500D2*
D13*
X2929500D1*
X7096127Y2794000D2*
D10*
X6873873D1*
X6222053D2*
X6159500Y2856553D1*
Y3444873D1*
X6225127Y3510500D1*
X6332000D1*
X3810000Y7747500D2*
Y7730713D1*
X3730233Y7650947D1*
D13*
Y2841327D1*
Y2158773D2*
X3698487D1*
Y1952420D1*
X3603247Y1857180D1*
Y1443910D1*
X3429337Y1270000D1*
X1622500D1*
X825500Y2067000D1*
X3730233Y2158773D2*
X3761980D1*
Y1936547D1*
X3841347Y1857180D1*
Y1484530D1*
X4055877Y1270000D1*
X7762193D1*
X7857300Y1365107D1*
Y2746087D1*
X7762060Y2841327D1*
X7413623D1*
Y2809873D1*
X6222053Y2794000D2*
D10*
Y2936273D1*
X6476320Y3190540D1*
Y3364820D1*
X6477000Y3365500D1*
X7413623Y2809873D2*
Y2777833D1*
X7666820D1*
X7698567Y2746087D1*
Y2317507D1*
X7603327Y2222267D1*
X7460467D1*
X7412847Y2269887D1*
D33*
X7429500Y4000500D3*
X7699373D3*
X5842000Y2397127D3*
X3937000D3*
X7524750Y3063873D3*
X9128127Y3222623D3*
X6429377Y2984500D3*
X5064127Y3667127D3*
X5143500Y4889500D3*
Y5207000D3*
X6508750Y4619623D3*
Y5207000D3*
X6921500Y7874000D3*
X7429500Y8382000D3*
X5953127Y2667000D3*
X3937000D3*
X5238750Y2032000D3*
X5778500D3*
X7651750Y3143250D3*
X8921750Y3190877D3*
X7762873Y3238500D3*
X8842373Y3270250D3*
X7620000Y3333750D3*
X8763000Y3349623D3*
X7731127Y3413127D3*
X8683623Y3429000D3*
X7731127Y3413127D3*
X7810500Y3492500D3*
X8604250Y3508377D3*
X7810503Y3603627D3*
X8524873D3*
X7826373Y4143373D3*
X8239123D3*
X6873877Y4667250D3*
X7969250Y5143500D3*
X6889750Y4810127D3*
X7064373Y5175250D3*
X7112000Y5445127D3*
X7985123D3*
X6873873Y4921250D3*
X6937373Y5175250D3*
X7112000Y5619750D3*
X7985123D3*
X6794500Y5000627D3*
Y5175250D3*
X7112000Y5778500D3*
X7985123D3*
X6667500Y5000627D3*
Y5159373D3*
X7112000Y5889627D3*
X7985123D3*
X5667373Y4032250D3*
Y4445000D3*
X6096000D3*
X7810500D3*
X7635873Y3698873D3*
X8429623D3*
X7699373Y3778250D3*
X8350250D3*
X7731123Y3873500D3*
X8255000D3*
X5191127Y2508250D3*
X6842127Y2460627D3*
X7079507Y2269887D3*
X8302623D3*
X5302250Y2190750D3*
X8445500D3*
X7063633Y2079407D3*
X8318500Y2063750D3*
X6635750Y1746250D3*
X7000873Y1730377D3*
X7111253Y1952420D3*
X8318500Y1968500D3*
X5572127Y1873250D3*
X5556250Y1555750D3*
X7222367Y1888927D3*
X8318500Y1873053D3*
X7175497Y4270377D3*
X8159750D3*
X7207250Y4365627D3*
X8080373D3*
X7302500Y4714873D3*
X8001000D3*
X7239000Y4794250D3*
X7905750D3*
X6683377Y571500D3*
X6524627Y2095500D3*
Y2889250D3*
Y3111500D3*
X6826250Y2936873D3*
X7777933Y2365127D3*
X4095750Y3444873D3*
Y3984627D3*
Y4873623D3*
Y5508623D3*
X4460873Y8001000D3*
X5318127D3*
X6873873Y2794000D3*
X6222053D3*
X3730233Y2841327D3*
Y2158773D3*
D3*
X6222053Y2794000D3*
X1587500Y9223373D3*
X2365377Y8461373D3*
X3175000Y8016873D3*
X3794127Y8270873D3*
X6096000Y7524750D3*
X7366000Y8842373D3*
X8175627Y7016750D3*
X6397627Y4619627D3*
X1111250Y8255000D3*
X7032627Y4699000D3*
X7493000Y4127500D3*
X6873873Y3063873D3*
X7603327Y2539733D3*
X6064250Y3175000D3*
X5730873Y3571873D3*
X5127627Y4191000D3*
X4968873Y1555750D3*
X3571873Y2000250D3*
X7412847Y1761940D3*
X1238026Y9405083D2*
D15*
X1918369D1*
X3108176D2*
X4327276D1*
X4576861D2*
X5221982D1*
X8621017D2*
X8694638D1*
X8944223D2*
X9461847D1*
X1227484Y9341917D2*
X1918369D1*
X3108176D2*
X4264149D1*
X4513733D2*
X5158730D1*
X8684269D2*
X8757766D1*
X9007350D2*
X9461847D1*
X1180603Y9278750D2*
X1489248D1*
X2145630D2*
X2352823D1*
X3108176D2*
X4200897D1*
X4450605D2*
X5095602D1*
X8747397D2*
X8820894D1*
X9239150D2*
X9461847D1*
X1220291Y9215583D2*
X1474117D1*
X2145630D2*
X2296269D1*
X3108176D2*
X4164806D1*
X4387353D2*
X5057775D1*
X8810525D2*
X8884146D1*
X9239150D2*
X9461847D1*
X1237902Y9152417D2*
X1500658D1*
X2145630D2*
X2233141D1*
X3108176D2*
X4164434D1*
X4344565D2*
X5057402D1*
X8873777D2*
X8921849D1*
X9239150D2*
X9461847D1*
X1227980Y9089250D2*
X2169889D1*
X2600176D2*
X2860823D1*
X3108176D2*
X4164434D1*
X4344565D2*
X5057402D1*
X9239150D2*
X9461847D1*
X928216Y9026083D2*
X976783D1*
X1182216D2*
X2106761D1*
X2356346D2*
X4164434D1*
X4344565D2*
X5057402D1*
X9239150D2*
X9461847D1*
X903287Y8962917D2*
X2043633D1*
X2293218D2*
X4164434D1*
X4344565D2*
X5057402D1*
X9220547D2*
X9461847D1*
X903287Y8899750D2*
X1980505D1*
X2230090D2*
X4164434D1*
X4344565D2*
X5057402D1*
X9238778D2*
X9461847D1*
X903287Y8836583D2*
X1917253D1*
X2166838D2*
X4164434D1*
X4344565D2*
X5057402D1*
X9229476D2*
X9461847D1*
X913085Y8773417D2*
X1854125D1*
X2103710D2*
X4164434D1*
X4344565D2*
X5057402D1*
X9184828D2*
X9461847D1*
X976213Y8710250D2*
X1790997D1*
X2040582D2*
X4164434D1*
X4344565D2*
X5057402D1*
X9219803D2*
X9461847D1*
X538100Y8647083D2*
X600000D1*
X1039465D2*
X1752178D1*
X1977330D2*
X4164434D1*
X4344565D2*
X5057402D1*
X9238778D2*
X9461847D1*
X538100Y8583917D2*
X663252D1*
X1102593D2*
X1751434D1*
X1931565D2*
X4164434D1*
X4344565D2*
X5057402D1*
X9229973D2*
X9461847D1*
X538100Y8520750D2*
X726380D1*
X1165721D2*
X1751434D1*
X1931565D2*
X2269604D1*
X2461145D2*
X4164434D1*
X4344565D2*
X5057402D1*
X9186440D2*
X9461847D1*
X538100Y8457583D2*
X789508D1*
X1228973D2*
X1751434D1*
X1931565D2*
X2251744D1*
X2479005D2*
X4164434D1*
X4344565D2*
X5057402D1*
X9219058D2*
X9461847D1*
X538100Y8394417D2*
X852636D1*
X1292100D2*
X1751434D1*
X1931565D2*
X2259434D1*
X2455564D2*
X4164434D1*
X4344565D2*
X5057402D1*
X9238654D2*
X9461847D1*
X538100Y8331250D2*
X915888D1*
X1355228D2*
X1751434D1*
X1931565D2*
X2259434D1*
X2439565D2*
X3699098D1*
X3889151D2*
X4164434D1*
X4344565D2*
X5057402D1*
X9230469D2*
X9461847D1*
X538100Y8268083D2*
X979016D1*
X1418356D2*
X1751434D1*
X1931565D2*
X2259434D1*
X2439565D2*
X3071291D1*
X3469208D2*
X3680494D1*
X3907755D2*
X4164434D1*
X4344565D2*
X5057402D1*
X9187929D2*
X9461847D1*
X538100Y8204917D2*
X1010022D1*
X1481608D2*
X1751434D1*
X1931565D2*
X2259434D1*
X2439565D2*
X3000102D1*
X3540397D2*
X3703191D1*
X3900065D2*
X4164434D1*
X4344565D2*
X5057402D1*
X9218314D2*
X9461847D1*
X538100Y8141750D2*
X1285230D1*
X1544736D2*
X1751434D1*
X1931565D2*
X2168400D1*
X2530599D2*
X2936974D1*
X3603525D2*
X3719934D1*
X3900065D2*
X4164434D1*
X4344565D2*
X5057402D1*
X9238530D2*
X9461847D1*
X538100Y8078583D2*
X1348358D1*
X1607864D2*
X1751434D1*
X1931565D2*
X2168400D1*
X2530599D2*
X2873722D1*
X3644949D2*
X3719934D1*
X3900065D2*
X4164434D1*
X4344565D2*
X4380358D1*
X4541391D2*
X5057402D1*
X9230841D2*
X9461847D1*
X538100Y8015417D2*
X1411609D1*
X1671116D2*
X1751434D1*
X1951905D2*
X2168400D1*
X2530599D2*
X2748334D1*
X3958604D2*
X4164434D1*
X4573513D2*
X5057402D1*
X9189417D2*
X9461847D1*
X538100Y7952250D2*
X1474737D1*
X1734244D2*
X1767061D1*
X2015033D2*
X2168400D1*
X2530599D2*
X2748334D1*
X3958604D2*
X4144466D1*
X4562847D2*
X5057402D1*
X9217446D2*
X9461847D1*
X538100Y7889083D2*
X1537865D1*
X1797372D2*
X1828576D1*
X3958604D2*
X4081338D1*
X4473798D2*
X5057402D1*
X7034014D2*
X8922593D1*
X9238406D2*
X9461847D1*
X538100Y7825917D2*
X1601117D1*
X1860624D2*
X1891828D1*
X4410546D2*
X5057402D1*
X7023720D2*
X8929662D1*
X9231337D2*
X9461847D1*
X538100Y7762750D2*
X1664245D1*
X1923752D2*
X1954956D1*
X4347418D2*
X5057402D1*
X6935043D2*
X8970094D1*
X9190905D2*
X9461847D1*
X538100Y7699583D2*
X1727373D1*
X2530599D2*
X2748334D1*
X3514104D2*
X3542084D1*
X4284290D2*
X5057402D1*
X6871915D2*
X9461847D1*
X538100Y7636417D2*
X1790625D1*
X3514104D2*
X3640187D1*
X4221038D2*
X5057402D1*
X6808663D2*
X9461847D1*
X538100Y7573250D2*
X1853753D1*
X3316039D2*
X3640187D1*
X4185815D2*
X5057402D1*
X6745535D2*
X9461847D1*
X538100Y7510083D2*
X2168400D1*
X2530599D2*
X3640187D1*
X4185815D2*
X5057402D1*
X6694065D2*
X9461847D1*
X538100Y7446917D2*
X3640187D1*
X4185815D2*
X5057402D1*
X6694065D2*
X9461847D1*
X538100Y7383750D2*
X3640187D1*
X4185815D2*
X5057402D1*
X6694065D2*
X8971954D1*
X9189045D2*
X9461847D1*
X538100Y7320583D2*
X3640187D1*
X4185815D2*
X5057402D1*
X6694065D2*
X7467674D1*
X9232205D2*
X9461847D1*
X538100Y7257417D2*
X3640187D1*
X4185815D2*
X5057402D1*
X6694065D2*
X7386563D1*
X9241259D2*
X9461847D1*
X538100Y7194250D2*
X3640187D1*
X4185815D2*
X5057402D1*
X6694065D2*
X7323435D1*
X9223151D2*
X9461847D1*
X538100Y7131083D2*
X3640187D1*
X4185815D2*
X5057402D1*
X6694065D2*
X7260307D1*
X9227988D2*
X9461847D1*
X538100Y7067917D2*
X3640187D1*
X4185815D2*
X5057402D1*
X6694065D2*
X7214666D1*
X9241631D2*
X9461847D1*
X538100Y7004750D2*
X3640187D1*
X4185815D2*
X5057402D1*
X6694065D2*
X7212434D1*
X9228360D2*
X9461847D1*
X538100Y6941583D2*
X3640187D1*
X4185815D2*
X5057402D1*
X6694065D2*
X7212434D1*
X9222779D2*
X9461847D1*
X538100Y6878417D2*
X3640187D1*
X4185815D2*
X5057402D1*
X6694065D2*
X7212434D1*
X9241259D2*
X9461847D1*
X538100Y6815250D2*
X3640187D1*
X4185815D2*
X5057402D1*
X6694065D2*
X7212434D1*
X9241631D2*
X9461847D1*
X538100Y6752083D2*
X3640187D1*
X4185815D2*
X5057402D1*
X6694065D2*
X7212434D1*
X9241631D2*
X9461847D1*
X538100Y6688917D2*
X3640187D1*
X4185815D2*
X5057402D1*
X6694065D2*
X7212434D1*
X9241631D2*
X9461847D1*
X538100Y6625750D2*
X3640187D1*
X4185815D2*
X5057402D1*
X6694065D2*
X7212434D1*
X9241631D2*
X9461847D1*
X538100Y6562583D2*
X3640187D1*
X4185815D2*
X5057402D1*
X6694065D2*
X7212434D1*
X7951787D2*
X8919368D1*
X9241631D2*
X9461847D1*
X538100Y6499417D2*
X3640187D1*
X4185815D2*
X5057402D1*
X6694065D2*
X7212434D1*
X7888535D2*
X9461847D1*
X538100Y6436250D2*
X3640187D1*
X4185815D2*
X5057402D1*
X6694065D2*
X7212434D1*
X7825407D2*
X9461847D1*
X538100Y6373083D2*
X3640187D1*
X4185815D2*
X5057402D1*
X6694065D2*
X7212434D1*
X7785472D2*
X9461847D1*
X538100Y6309917D2*
X3640187D1*
X4185815D2*
X5057402D1*
X6694065D2*
X7212434D1*
X7785472D2*
X9461847D1*
X538100Y6246750D2*
X3640187D1*
X4185815D2*
X5057402D1*
X6694065D2*
X7212434D1*
X7785472D2*
X9124751D1*
X9163291D2*
X9461847D1*
X538100Y6183583D2*
X3640187D1*
X4185815D2*
X5057402D1*
X6694065D2*
X7212434D1*
X7785472D2*
X9012510D1*
X9275489D2*
X9461847D1*
X538100Y6120417D2*
X3640187D1*
X4185815D2*
X5057402D1*
X6694065D2*
X7212434D1*
X7785472D2*
X7842721D1*
X9302650D2*
X9461847D1*
X538100Y6057250D2*
X3640187D1*
X4185815D2*
X5057402D1*
X6694065D2*
X7212434D1*
X9301038D2*
X9461847D1*
X538100Y5994083D2*
X3640187D1*
X4185815D2*
X5057402D1*
X6694065D2*
X7081217D1*
X7142782D2*
X7212434D1*
X9269784D2*
X9461847D1*
X538100Y5930917D2*
X3640187D1*
X4185815D2*
X5057402D1*
X9300294D2*
X9461847D1*
X538100Y5867750D2*
X3640187D1*
X4185815D2*
X5057402D1*
X9303146D2*
X9461847D1*
X538100Y5804583D2*
X3640187D1*
X4185815D2*
X5057402D1*
X9277722D2*
X9461847D1*
X538100Y5741417D2*
X3640187D1*
X4185815D2*
X5057402D1*
X9297193D2*
X9461847D1*
X538100Y5678250D2*
X3640187D1*
X4185815D2*
X5057402D1*
X9304511D2*
X9461847D1*
X538100Y5615083D2*
X3640187D1*
X4185815D2*
X5057402D1*
X9284419D2*
X9461847D1*
X538100Y5551917D2*
X3640187D1*
X4200326D2*
X5057402D1*
X9293225D2*
X9461847D1*
X538100Y5488750D2*
X3640187D1*
X4207519D2*
X5057402D1*
X9305131D2*
X9461847D1*
X538100Y5425583D2*
X3640187D1*
X4170064D2*
X5057402D1*
X9289876D2*
X9461847D1*
X538100Y5362417D2*
X3640187D1*
X4160391D2*
X5057402D1*
X9288388D2*
X9461847D1*
X538100Y5299250D2*
X3640187D1*
X4223518D2*
X5057402D1*
X9305007D2*
X9461847D1*
X538100Y5236083D2*
X3640187D1*
X4286770D2*
X5033838D1*
X9294465D2*
X9461847D1*
X538100Y5172917D2*
X3640187D1*
X4349898D2*
X5035450D1*
X9282558D2*
X9461847D1*
X538100Y5109750D2*
X3640187D1*
X9304139D2*
X9461847D1*
X538100Y5046583D2*
X3640187D1*
X9298185D2*
X9461847D1*
X538100Y4983417D2*
X3640187D1*
X9275613D2*
X9461847D1*
X538100Y4920250D2*
X3640187D1*
X9302650D2*
X9461847D1*
X538100Y4857083D2*
X3640187D1*
X9301038D2*
X9461847D1*
X538100Y4793917D2*
X3640187D1*
X9269660D2*
X9461847D1*
X538100Y4730750D2*
X3640187D1*
X9300294D2*
X9461847D1*
X538100Y4667583D2*
X3640187D1*
X9303146D2*
X9461847D1*
X538100Y4604417D2*
X3640187D1*
X9277598D2*
X9461847D1*
X538100Y4541250D2*
X3640187D1*
X9297317D2*
X9461847D1*
X538100Y4478083D2*
X3640187D1*
X9304511D2*
X9461847D1*
X538100Y4414917D2*
X3640187D1*
X9284295D2*
X9461847D1*
X538100Y4351750D2*
X3640187D1*
X9293349D2*
X9461847D1*
X538100Y4288583D2*
X3640187D1*
X9305131D2*
X9461847D1*
X538100Y4225417D2*
X3640187D1*
X9289876D2*
X9461847D1*
X538100Y4162250D2*
X3640187D1*
X9288512D2*
X9461847D1*
X538100Y4099083D2*
X3640187D1*
X9305007D2*
X9461847D1*
X538100Y4035917D2*
X3640187D1*
X9294465D2*
X9461847D1*
X538100Y3972750D2*
X3640187D1*
X9282683D2*
X9461847D1*
X538100Y3909583D2*
X3640187D1*
X9304139D2*
X9461847D1*
X538100Y3846417D2*
X3640187D1*
X9298061D2*
X9461847D1*
X538100Y3783250D2*
X3640187D1*
X9275737D2*
X9461847D1*
X538100Y3720083D2*
X3640187D1*
X9302650D2*
X9461847D1*
X538100Y3656917D2*
X3640187D1*
X9301038D2*
X9461847D1*
X538100Y3593750D2*
X3640187D1*
X9305131D2*
X9461847D1*
X538100Y3530583D2*
X3640187D1*
X9305131D2*
X9461847D1*
X538100Y3467417D2*
X3640187D1*
X9305131D2*
X9461847D1*
X538100Y3404250D2*
X3640187D1*
X9305131D2*
X9461847D1*
X538100Y3341083D2*
X3640187D1*
X9305131D2*
X9461847D1*
X538100Y3277917D2*
X3640187D1*
X9226376D2*
X9461847D1*
X538100Y3214750D2*
X3640187D1*
X9241507D2*
X9461847D1*
X538100Y3151583D2*
X3640187D1*
X9214842D2*
X9461847D1*
X538100Y3088417D2*
X3640187D1*
X9251801D2*
X9461847D1*
X538100Y3025250D2*
X3640187D1*
X9295457D2*
X9461847D1*
X538100Y2962083D2*
X3640187D1*
X9304883D2*
X9461847D1*
X538100Y2898917D2*
X3633365D1*
X9287023D2*
X9461847D1*
X538100Y2835750D2*
X3616746D1*
X9291116D2*
X9461847D1*
X538100Y2772583D2*
X664368D1*
X986631D2*
X3641551D1*
X9305131D2*
X9461847D1*
X538100Y2709417D2*
X664368D1*
X9292108D2*
X9461847D1*
X538100Y2646250D2*
X664368D1*
X9285907D2*
X9461847D1*
X538100Y2583083D2*
X664368D1*
X9304759D2*
X9461847D1*
X538100Y2519917D2*
X664368D1*
X9296325D2*
X9461847D1*
X538100Y2456750D2*
X664740D1*
X9279582D2*
X9461847D1*
X538100Y2393583D2*
X682848D1*
X9303518D2*
X9461847D1*
X538100Y2330417D2*
X677887D1*
X9299550D2*
X9461847D1*
X538100Y2267250D2*
X664368D1*
X9272017D2*
X9461847D1*
X538100Y2204083D2*
X677763D1*
X9301658D2*
X9461847D1*
X538100Y2140917D2*
X683096D1*
X9302030D2*
X9461847D1*
X538100Y2077750D2*
X664740D1*
X9273505D2*
X9461847D1*
X538100Y2014583D2*
X673546D1*
X9299054D2*
X9461847D1*
X538100Y1951417D2*
X716210D1*
X9303891D2*
X9461847D1*
X538100Y1888250D2*
X879425D1*
X9280822D2*
X9461847D1*
X538100Y1825083D2*
X942677D1*
X3695923D2*
X3748583D1*
X9295581D2*
X9461847D1*
X538100Y1761917D2*
X1005805D1*
X3693318D2*
X3751188D1*
X9304883D2*
X9461847D1*
X538100Y1698750D2*
X1068933D1*
X3693318D2*
X3751188D1*
X9287023D2*
X9461847D1*
X538100Y1635583D2*
X1132061D1*
X3693318D2*
X3751188D1*
X9291240D2*
X9461847D1*
X538100Y1572417D2*
X1195313D1*
X3693318D2*
X3751188D1*
X9305131D2*
X9461847D1*
X538100Y1509250D2*
X1258441D1*
X3693318D2*
X3751188D1*
X9292108D2*
X9461847D1*
X538100Y1446083D2*
X1321568D1*
X3693318D2*
X3760613D1*
X9286031D2*
X9461847D1*
X538100Y1382917D2*
X1384820D1*
X3667025D2*
X3818160D1*
X9304759D2*
X9461847D1*
X538100Y1319750D2*
X1447948D1*
X3603897D2*
X3881288D1*
X9296201D2*
X9461847D1*
X538100Y1256583D2*
X1511076D1*
X3540769D2*
X3944540D1*
X9279706D2*
X9461847D1*
X538100Y1193417D2*
X1582266D1*
X3469580D2*
X4015606D1*
X9303518D2*
X9461847D1*
X538100Y1130250D2*
X7815684D1*
X9299550D2*
X9461847D1*
X538100Y1067083D2*
X7815684D1*
X9272141D2*
X9461847D1*
X538100Y1003917D2*
X7815684D1*
X9301658D2*
X9461847D1*
X538100Y940750D2*
X7816428D1*
X9302030D2*
X9461847D1*
X538100Y877583D2*
X7855867D1*
X9273381D2*
X9461847D1*
X538100Y814417D2*
X7918995D1*
X9299054D2*
X9461847D1*
X538100Y751250D2*
X7982247D1*
X9303767D2*
X9461847D1*
X538100Y688083D2*
X8050460D1*
X9305131D2*
X9461847D1*
X538100Y624917D2*
X6584007D1*
X9305131D2*
X9461847D1*
X538100Y561750D2*
X6570240D1*
X9305131D2*
X9461847D1*
X3507790Y7740264D2*
Y7615210D1*
X3351645D1*
X3276917Y7540786D1*
X3260540Y7529843D1*
X3242060Y7523025D1*
X3222500Y7520710D1*
X3221653Y7520743D1*
X2524372Y7520710D1*
X2524291Y7489709D1*
X2174711D1*
Y7532746D1*
X1929901Y7532979D1*
X1916372Y7535121D1*
X1903345Y7539354D1*
X1891141Y7545573D1*
X1880059Y7553624D1*
X1695421Y7737882D1*
X1212820Y8220483D1*
X1206846Y8206291D1*
X1198049Y8191937D1*
X1187115Y8179135D1*
X1174313Y8168201D1*
X1159959Y8159404D1*
X1144404Y8152961D1*
X1128034Y8149031D1*
X1111250Y8147710D1*
X1094466Y8149031D1*
X1078096Y8152961D1*
X1062541Y8159404D1*
X1048187Y8168201D1*
X1035385Y8179135D1*
X1024451Y8191937D1*
X1015654Y8206291D1*
X1009211Y8221846D1*
X1005281Y8238216D1*
X1004186Y8249246D1*
X531745Y8721664D1*
X531750Y531750D1*
X6583722D1*
X6579051Y546454D1*
X6576417Y563082D1*
Y579918D1*
X6579051Y596546D1*
X6584254Y612558D1*
X6591897Y627559D1*
X6601793Y641179D1*
X6613697Y653084D1*
X6627318Y662980D1*
X6642319Y670623D1*
X6658330Y675826D1*
X6674959Y678459D1*
X6691795D1*
X6708423Y675826D1*
X6724435Y670623D1*
X6739436Y662980D1*
X6750291Y655264D1*
X8989096Y655290D1*
X8989210Y678275D1*
X8089676Y678468D1*
X8070357Y682311D1*
X8052470Y690557D1*
X8037001Y702751D1*
X8036426Y703374D1*
X7842036Y898083D1*
X7831093Y914460D1*
X7824275Y932940D1*
X7821960Y952500D1*
X7821993Y953347D1*
X7821442Y1210751D1*
X7805974Y1198557D1*
X7788086Y1190311D1*
X7768767Y1186468D1*
X7285943Y1186210D1*
X4049303Y1186468D1*
X4029984Y1190311D1*
X4012096Y1198557D1*
X3996628Y1210751D1*
X3996052Y1211374D1*
X3777632Y1430113D1*
X3766689Y1446490D1*
X3759871Y1464970D1*
X3757556Y1484530D1*
X3757590Y1485377D1*
X3757556Y1822494D1*
X3722200Y1857829D1*
X3686963Y1822399D1*
X3686779Y1437336D1*
X3682936Y1418017D1*
X3674690Y1400130D1*
X3662495Y1384661D1*
X3661872Y1384086D1*
X3483754Y1206285D1*
X3467377Y1195342D1*
X3448897Y1188525D1*
X3429337Y1186210D1*
X3428489Y1186243D1*
X1615926Y1186468D1*
X1596607Y1190311D1*
X1578720Y1198557D1*
X1563251Y1210751D1*
X1562676Y1211374D1*
X858249Y1915754D1*
X837645Y1912687D1*
X813355D1*
X789365Y1916487D1*
X766264Y1923993D1*
X744622Y1935020D1*
X724972Y1949297D1*
X707797Y1966472D1*
X693520Y1986122D1*
X682493Y2007764D1*
X674987Y2030865D1*
X671187Y2054855D1*
Y2079145D1*
X674987Y2103135D1*
X682493Y2126236D1*
X693520Y2147878D1*
X707356Y2166969D1*
X693520Y2186122D1*
X682493Y2207764D1*
X674987Y2230865D1*
X671187Y2254855D1*
Y2279145D1*
X674987Y2303135D1*
X682493Y2326236D1*
X693520Y2347878D1*
X707356Y2366969D1*
X693520Y2386122D1*
X682493Y2407764D1*
X674987Y2430865D1*
X671187Y2454855D1*
Y2479145D1*
X674987Y2503135D1*
X677551Y2512228D1*
X670710Y2512210D1*
Y2821790D1*
X980290D1*
Y2750724D1*
X3672706Y2750790D1*
X3660554Y2759743D1*
X3648649Y2771647D1*
X3638754Y2785268D1*
X3631110Y2800269D1*
X3625908Y2816280D1*
X3623274Y2832909D1*
Y2849745D1*
X3625908Y2866373D1*
X3631110Y2882385D1*
X3638754Y2897386D1*
X3646469Y2908241D1*
X3646702Y7657521D1*
X3647381Y7663263D1*
X3612926Y7663468D1*
X3593607Y7667311D1*
X3575720Y7675557D1*
X3560251Y7687751D1*
X3507722Y7740281D1*
X3952171Y7879790D2*
X3952290Y7831293D1*
X4029894Y7831290D1*
X4170737Y7972234D1*
X4170968Y9214074D1*
X4174811Y9233393D1*
X4183057Y9251280D1*
X4195251Y9266749D1*
X4195874Y9267324D1*
X4396869Y9468366D1*
X3101790Y9468040D1*
Y9085210D1*
X2867210D1*
Y9123781D1*
X2593702Y9123710D1*
X2593790Y9085210D1*
X2409119D1*
X1925277Y8601280D1*
X1925290Y8035603D1*
X2066761Y7894237D1*
X2174751Y7894290D1*
X2174711Y7949289D1*
X2524291D1*
Y7918160D1*
X2754685Y7918290D1*
X2754711Y8064289D1*
X2866208D1*
X3004955Y8203452D1*
X3057083Y8255215D1*
X3073460Y8266158D1*
X3091940Y8272975D1*
X3111500Y8275290D1*
X3112347Y8275257D1*
X3435574Y8275032D1*
X3454893Y8271189D1*
X3472780Y8262943D1*
X3488249Y8250749D1*
X3488824Y8250126D1*
X3619715Y8118917D1*
X3630658Y8102540D1*
X3637475Y8084060D1*
X3639790Y8064500D1*
X3639757Y8063653D1*
X3639790Y7845103D1*
X3667710Y7837460D1*
Y8069790D1*
X3726125D1*
X3726210Y8187903D1*
X3712543Y8201194D1*
X3702647Y8214814D1*
X3695004Y8229815D1*
X3689801Y8245827D1*
X3687167Y8262455D1*
Y8279291D1*
X3689801Y8295920D1*
X3695004Y8311931D1*
X3702647Y8326932D1*
X3712543Y8340553D1*
X3724447Y8352457D1*
X3738068Y8362353D1*
X3753069Y8369996D1*
X3769080Y8375199D1*
X3785709Y8377833D1*
X3802545D1*
X3819173Y8375199D1*
X3835185Y8369996D1*
X3850186Y8362353D1*
X3863806Y8352457D1*
X3875711Y8340553D1*
X3885606Y8326932D1*
X3893250Y8311931D1*
X3898452Y8295920D1*
X3901086Y8279291D1*
Y8262455D1*
X3898452Y8245827D1*
X3893762Y8231205D1*
X3893790Y8069833D1*
X3952290Y8069790D1*
Y7847540D1*
X9046653Y9296289D2*
X9232791D1*
Y8991709D1*
X9193723D1*
X9203705Y8979514D1*
X9216191Y8959138D1*
X9225336Y8937060D1*
X9230915Y8913823D1*
X9232790Y8890000D1*
X9230915Y8866177D1*
X9225336Y8842940D1*
X9216191Y8820862D1*
X9203705Y8800486D1*
X9188185Y8782315D1*
X9170014Y8766795D1*
X9164460Y8763084D1*
X9179404Y8751802D1*
X9196302Y8734904D1*
X9210349Y8715571D1*
X9221198Y8694279D1*
X9228582Y8671551D1*
X9232321Y8647949D1*
Y8624051D1*
X9228582Y8600449D1*
X9221198Y8577721D1*
X9210349Y8556429D1*
X9196302Y8537096D1*
X9179404Y8520198D1*
X9164460Y8509084D1*
X9179404Y8497802D1*
X9196302Y8480904D1*
X9210349Y8461571D1*
X9221198Y8440279D1*
X9228582Y8417551D1*
X9232321Y8393949D1*
Y8370051D1*
X9228582Y8346449D1*
X9221198Y8323721D1*
X9210349Y8302429D1*
X9196302Y8283096D1*
X9179404Y8266198D1*
X9164460Y8255084D1*
X9179404Y8243802D1*
X9196302Y8226904D1*
X9210349Y8207571D1*
X9221198Y8186279D1*
X9228582Y8163551D1*
X9232321Y8139949D1*
Y8116051D1*
X9228582Y8092449D1*
X9221198Y8069721D1*
X9210349Y8048429D1*
X9196302Y8029096D1*
X9179404Y8012198D1*
X9164460Y8001084D1*
X9179404Y7989802D1*
X9196302Y7972904D1*
X9210349Y7953571D1*
X9221198Y7932279D1*
X9228582Y7909551D1*
X9232321Y7885949D1*
Y7862051D1*
X9228582Y7838449D1*
X9221198Y7815721D1*
X9210349Y7794429D1*
X9196302Y7775096D1*
X9179404Y7758198D1*
X9160071Y7744151D1*
X9138779Y7733302D1*
X9116051Y7725918D1*
X9092449Y7722179D1*
X9068551D1*
X9044949Y7725918D1*
X9022221Y7733302D1*
X9000929Y7744151D1*
X8981596Y7758198D1*
X8964698Y7775096D1*
X8950651Y7794429D1*
X8939802Y7815721D1*
X8932418Y7838449D1*
X8928679Y7862051D1*
Y7885949D1*
X8932418Y7909551D1*
X8934586Y7917239D1*
X7019603Y7917210D1*
X7025826Y7899046D1*
X7028459Y7882418D1*
Y7865582D1*
X7025826Y7848954D1*
X7020623Y7832942D1*
X7012980Y7817941D1*
X7003084Y7804321D1*
X6991179Y7792416D1*
X6977559Y7782520D1*
X6962558Y7774877D1*
X6946546Y7769674D1*
X6933415Y7767455D1*
X6687750Y7521753D1*
X6687790Y5964659D1*
X6702645Y5968434D1*
X6715127Y5969417D1*
X7040192D1*
X7055941Y5981106D1*
X7070942Y5988750D1*
X7086954Y5993952D1*
X7103582Y5996586D1*
X7120418D1*
X7137046Y5993952D1*
X7153058Y5988750D1*
X7168059Y5981106D1*
X7181679Y5971211D1*
X7193584Y5959306D1*
X7203480Y5945686D1*
X7211123Y5930685D1*
X7216326Y5914673D1*
X7218747Y5899842D1*
X7218968Y7055074D1*
X7222811Y7074393D1*
X7231057Y7092280D1*
X7243251Y7107749D1*
X7243874Y7108324D1*
X7438583Y7302715D1*
X7454960Y7313658D1*
X7473440Y7320475D1*
X7493000Y7322790D1*
X7493847Y7322757D1*
X8936013Y7322790D1*
X8942581Y7337773D1*
X8955272Y7358483D1*
X8971047Y7376953D1*
X8989517Y7392728D1*
X9010227Y7405419D1*
X9032667Y7414714D1*
X9056286Y7420384D1*
X9080500Y7422290D1*
X9104714Y7420384D1*
X9128333Y7414714D1*
X9150773Y7405419D1*
X9171483Y7392728D1*
X9189953Y7376953D1*
X9205728Y7358483D1*
X9218419Y7337773D1*
X9227714Y7315333D1*
X9233384Y7291714D1*
X9235290Y7267500D1*
X9233384Y7243286D1*
X9227714Y7219667D1*
X9218419Y7197227D1*
X9205728Y7176517D1*
X9198644Y7167531D1*
X9212480Y7148378D1*
X9223507Y7126736D1*
X9231013Y7103635D1*
X9234813Y7079645D1*
Y7055355D1*
X9231013Y7031365D1*
X9223507Y7008264D1*
X9212480Y6986622D1*
X9198644Y6967531D1*
X9212480Y6948378D1*
X9223507Y6926736D1*
X9231013Y6903635D1*
X9234813Y6879645D1*
Y6855355D1*
X9231013Y6831365D1*
X9228449Y6822272D1*
X9235290Y6822290D1*
Y6512710D1*
X8925710D1*
Y6587744D1*
X7970614Y6587710D1*
X7779148Y6396308D1*
X7779164Y6050482D1*
X7882180Y6153173D1*
X7897776Y6163594D1*
X7915373Y6170086D1*
X7934000Y6172290D1*
X7934856Y6172257D1*
X9011392Y6172290D1*
X9026297Y6193028D1*
X9043472Y6210203D1*
X9063122Y6224480D1*
X9084764Y6235507D1*
X9107865Y6243013D1*
X9131855Y6246813D1*
X9156145D1*
X9180135Y6243013D1*
X9203236Y6235507D1*
X9224878Y6224480D1*
X9244528Y6210203D1*
X9261703Y6193028D1*
X9275980Y6173378D1*
X9287007Y6151736D1*
X9294513Y6128635D1*
X9298313Y6104645D1*
Y6080355D1*
X9294513Y6056365D1*
X9287007Y6033264D1*
X9275980Y6011622D1*
X9262144Y5992531D1*
X9275980Y5973378D1*
X9287007Y5951736D1*
X9294513Y5928635D1*
X9298313Y5904645D1*
Y5880355D1*
X9294513Y5856365D1*
X9287007Y5833264D1*
X9275980Y5811622D1*
X9262144Y5792531D1*
X9275980Y5773378D1*
X9287007Y5751736D1*
X9294513Y5728635D1*
X9298313Y5704645D1*
Y5680355D1*
X9294513Y5656365D1*
X9287007Y5633264D1*
X9275980Y5611622D1*
X9262144Y5592531D1*
X9275980Y5573378D1*
X9287007Y5551736D1*
X9294513Y5528635D1*
X9298313Y5504645D1*
Y5480355D1*
X9294513Y5456365D1*
X9287007Y5433264D1*
X9275980Y5411622D1*
X9262144Y5392531D1*
X9275980Y5373378D1*
X9287007Y5351736D1*
X9294513Y5328635D1*
X9298313Y5304645D1*
Y5280355D1*
X9294513Y5256365D1*
X9287007Y5233264D1*
X9275980Y5211622D1*
X9262144Y5192531D1*
X9275980Y5173378D1*
X9287007Y5151736D1*
X9294513Y5128635D1*
X9298313Y5104645D1*
Y5080355D1*
X9294513Y5056365D1*
X9287007Y5033264D1*
X9275980Y5011622D1*
X9262144Y4992531D1*
X9275980Y4973378D1*
X9287007Y4951736D1*
X9294513Y4928635D1*
X9298313Y4904645D1*
Y4880355D1*
X9294513Y4856365D1*
X9287007Y4833264D1*
X9275980Y4811622D1*
X9262144Y4792531D1*
X9275980Y4773378D1*
X9287007Y4751736D1*
X9294513Y4728635D1*
X9298313Y4704645D1*
Y4680355D1*
X9294513Y4656365D1*
X9287007Y4633264D1*
X9275980Y4611622D1*
X9262144Y4592531D1*
X9275980Y4573378D1*
X9287007Y4551736D1*
X9294513Y4528635D1*
X9298313Y4504645D1*
Y4480355D1*
X9294513Y4456365D1*
X9287007Y4433264D1*
X9275980Y4411622D1*
X9262144Y4392531D1*
X9275980Y4373378D1*
X9287007Y4351736D1*
X9294513Y4328635D1*
X9298313Y4304645D1*
Y4280355D1*
X9294513Y4256365D1*
X9287007Y4233264D1*
X9275980Y4211622D1*
X9262144Y4192531D1*
X9275980Y4173378D1*
X9287007Y4151736D1*
X9294513Y4128635D1*
X9298313Y4104645D1*
Y4080355D1*
X9294513Y4056365D1*
X9287007Y4033264D1*
X9275980Y4011622D1*
X9262144Y3992531D1*
X9275980Y3973378D1*
X9287007Y3951736D1*
X9294513Y3928635D1*
X9298313Y3904645D1*
Y3880355D1*
X9294513Y3856365D1*
X9287007Y3833264D1*
X9275980Y3811622D1*
X9262144Y3792531D1*
X9275980Y3773378D1*
X9287007Y3751736D1*
X9294513Y3728635D1*
X9298313Y3704645D1*
Y3680355D1*
X9294513Y3656365D1*
X9291949Y3647272D1*
X9298790Y3647290D1*
Y3337710D1*
X9211850D1*
X9211917Y3289723D1*
X9223723Y3271332D1*
X9230166Y3255778D1*
X9234096Y3239407D1*
X9235417Y3222623D1*
X9234096Y3205839D1*
X9230166Y3189469D1*
X9223723Y3173915D1*
X9214926Y3159560D1*
X9203992Y3146758D1*
X9191190Y3135824D1*
X9176835Y3127027D1*
X9170350Y3124038D1*
X9191833Y3118714D1*
X9214273Y3109419D1*
X9234983Y3096728D1*
X9253453Y3080953D1*
X9269228Y3062483D1*
X9281919Y3041773D1*
X9291214Y3019333D1*
X9296884Y2995714D1*
X9298790Y2971500D1*
X9296884Y2947286D1*
X9291214Y2923667D1*
X9281919Y2901227D1*
X9269228Y2880517D1*
X9262144Y2871531D1*
X9275980Y2852378D1*
X9287007Y2830736D1*
X9294513Y2807635D1*
X9298313Y2783645D1*
Y2759355D1*
X9294513Y2735365D1*
X9287007Y2712264D1*
X9275980Y2690622D1*
X9262144Y2671531D1*
X9275980Y2652378D1*
X9287007Y2630736D1*
X9294513Y2607635D1*
X9298313Y2583645D1*
Y2559355D1*
X9294513Y2535365D1*
X9287007Y2512264D1*
X9275980Y2490622D1*
X9262144Y2471531D1*
X9275980Y2452378D1*
X9287007Y2430736D1*
X9294513Y2407635D1*
X9298313Y2383645D1*
Y2359355D1*
X9294513Y2335365D1*
X9287007Y2312264D1*
X9275980Y2290622D1*
X9262144Y2271531D1*
X9275980Y2252378D1*
X9287007Y2230736D1*
X9294513Y2207635D1*
X9298313Y2183645D1*
Y2159355D1*
X9294513Y2135365D1*
X9287007Y2112264D1*
X9275980Y2090622D1*
X9262144Y2071531D1*
X9275980Y2052378D1*
X9287007Y2030736D1*
X9294513Y2007635D1*
X9298313Y1983645D1*
Y1959355D1*
X9294513Y1935365D1*
X9287007Y1912264D1*
X9275980Y1890622D1*
X9262144Y1871531D1*
X9275980Y1852378D1*
X9287007Y1830736D1*
X9294513Y1807635D1*
X9298313Y1783645D1*
Y1759355D1*
X9294513Y1735365D1*
X9287007Y1712264D1*
X9275980Y1690622D1*
X9262144Y1671531D1*
X9275980Y1652378D1*
X9287007Y1630736D1*
X9294513Y1607635D1*
X9298313Y1583645D1*
Y1559355D1*
X9294513Y1535365D1*
X9287007Y1512264D1*
X9275980Y1490622D1*
X9262144Y1471531D1*
X9275980Y1452378D1*
X9287007Y1430736D1*
X9294513Y1407635D1*
X9298313Y1383645D1*
Y1359355D1*
X9294513Y1335365D1*
X9287007Y1312264D1*
X9275980Y1290622D1*
X9262144Y1271531D1*
X9275980Y1252378D1*
X9287007Y1230736D1*
X9294513Y1207635D1*
X9298313Y1183645D1*
Y1159355D1*
X9294513Y1135365D1*
X9287007Y1112264D1*
X9275980Y1090622D1*
X9262144Y1071531D1*
X9275980Y1052378D1*
X9287007Y1030736D1*
X9294513Y1007635D1*
X9298313Y983645D1*
Y959355D1*
X9294513Y935365D1*
X9287007Y912264D1*
X9275980Y890622D1*
X9262144Y871531D1*
X9275980Y852378D1*
X9287007Y830736D1*
X9294513Y807635D1*
X9298313Y783645D1*
Y759355D1*
X9294513Y735365D1*
X9291949Y726272D1*
X9298790Y726290D1*
Y531697D1*
X9468250Y531750D1*
Y9468250D1*
X8874798D1*
X9046660Y9296337D1*
X8928211Y9091548D2*
Y9177868D1*
X8664760Y9441243D1*
X8578577Y9441210D1*
X8928226Y9091614D1*
X952416Y9060040D2*
X941302Y9045096D1*
X924404Y9028198D1*
X905071Y9014151D1*
X896880Y9009564D1*
X896914Y8783216D1*
X1972919Y7707278D1*
X2174751Y7707290D1*
X2174711Y7719289D1*
X2524291D1*
Y7688160D1*
X2754685Y7688290D1*
X2754711Y7750685D1*
X2524315Y7750710D1*
X2524291Y7719709D1*
X2174711D1*
Y7726779D1*
X2025426Y7726968D1*
X2006107Y7730811D1*
X1988220Y7739057D1*
X1972751Y7751251D1*
X1972176Y7751874D1*
X1777785Y7946583D1*
X1766842Y7962960D1*
X1760025Y7981440D1*
X1757710Y8001000D1*
X1757743Y8001847D1*
X1757968Y8642574D1*
X1761811Y8661893D1*
X1770057Y8679780D1*
X1782251Y8695249D1*
X1782874Y8695824D1*
X2359208Y9271708D1*
X2359210Y9293781D1*
X2139280Y9293710D1*
X2139291Y9100209D1*
X1924711D1*
Y9123650D1*
X1627312Y9123710D1*
X1612546Y9119048D1*
X1595918Y9116414D1*
X1579082D1*
X1562454Y9119048D1*
X1546442Y9124250D1*
X1531441Y9131894D1*
X1517821Y9141789D1*
X1505916Y9153694D1*
X1496020Y9167314D1*
X1488377Y9182315D1*
X1483174Y9198327D1*
X1480541Y9214955D1*
Y9231791D1*
X1483174Y9248420D1*
X1488377Y9264431D1*
X1496020Y9279432D1*
X1505916Y9293053D1*
X1517821Y9304957D1*
X1531441Y9314853D1*
X1546442Y9322496D1*
X1562454Y9327699D1*
X1579082Y9330333D1*
X1595918D1*
X1612546Y9327699D1*
X1628558Y9322496D1*
X1643559Y9314853D1*
X1657179Y9304957D1*
X1670490Y9291269D1*
X1924718Y9291290D1*
X1924711Y9464789D1*
X2139291D1*
Y9461193D1*
X2359206Y9461290D1*
X2356250Y9468250D1*
X1214614D1*
X1224336Y9445060D1*
X1229915Y9421823D1*
X1231790Y9398000D1*
X1229915Y9374177D1*
X1224336Y9350940D1*
X1215191Y9328862D1*
X1202705Y9308486D1*
X1187185Y9290315D1*
X1169014Y9274795D1*
X1163460Y9271084D1*
X1178404Y9259802D1*
X1195302Y9242904D1*
X1209349Y9223571D1*
X1220198Y9202279D1*
X1227582Y9179551D1*
X1231321Y9155949D1*
Y9132051D1*
X1227582Y9108449D1*
X1220198Y9085721D1*
X1209349Y9064429D1*
X1195302Y9045096D1*
X1178404Y9028198D1*
X1159071Y9014151D1*
X1137779Y9003302D1*
X1115051Y8995918D1*
X1091449Y8992179D1*
X1067551D1*
X1043949Y8995918D1*
X1021221Y9003302D1*
X999929Y9014151D1*
X980596Y9028198D1*
X963698Y9045096D1*
X952584Y9060040D1*
X2206461Y8179289D2*
X2265620D1*
X2265710Y8421563D1*
X2261051Y8436327D1*
X2258417Y8452955D1*
Y8469791D1*
X2261051Y8486420D1*
X2266254Y8502431D1*
X2273897Y8517432D1*
X2283793Y8531053D1*
X2295697Y8542957D1*
X2309318Y8552853D1*
X2324319Y8560496D1*
X2340330Y8565699D1*
X2356959Y8568333D1*
X2373795D1*
X2390423Y8565699D1*
X2406435Y8560496D1*
X2421436Y8552853D1*
X2435056Y8542957D1*
X2446961Y8531053D1*
X2456856Y8517432D1*
X2464500Y8502431D1*
X2469702Y8486420D1*
X2472336Y8469791D1*
Y8452955D1*
X2469702Y8436327D1*
X2464500Y8420315D1*
X2456856Y8405314D1*
X2446961Y8391694D1*
X2433273Y8378384D1*
X2433290Y8179218D1*
X2524291Y8179289D1*
Y7949709D1*
X2174711D1*
Y8179289D1*
X2206461D1*
X5063710Y5278810D2*
X5063956Y9213760D1*
X5067615Y9232157D1*
X5075468Y9249190D1*
X5087080Y9263920D1*
X5087709Y9264502D1*
X5264317Y9441157D1*
X4606603Y9441210D1*
X4338250Y9172753D1*
X4338290Y7996907D1*
X4354231Y8012854D1*
X4358834Y8034154D1*
X4365277Y8049709D1*
X4374074Y8064063D1*
X4385008Y8076865D1*
X4397810Y8087799D1*
X4412165Y8096596D1*
X4427719Y8103039D1*
X4444089Y8106969D1*
X4460873Y8108290D1*
X4477657Y8106969D1*
X4494028Y8103039D1*
X4509582Y8096596D1*
X4523937Y8087799D1*
X4536739Y8076865D1*
X4547673Y8064063D1*
X4556469Y8049709D1*
X4562912Y8034154D1*
X4566842Y8017784D1*
X4568163Y8001000D1*
X4566842Y7984216D1*
X4562912Y7967846D1*
X4556469Y7952291D1*
X4547673Y7937937D1*
X4536739Y7925135D1*
X4523937Y7914201D1*
X4509582Y7905404D1*
X4494028Y7898961D1*
X4472788Y7894455D1*
X4179591Y7601221D1*
X4179540Y5575723D1*
X4191346Y5557332D1*
X4197789Y5541778D1*
X4201719Y5525407D1*
X4203040Y5508623D1*
X4201719Y5491839D1*
X4197789Y5475469D1*
X4191346Y5459915D1*
X4182549Y5445560D1*
X4171615Y5432758D1*
X4158813Y5421824D1*
X4144459Y5413027D1*
X4128904Y5406584D1*
X4113599Y5402866D1*
X4384950Y5131547D1*
X5067259Y5131510D1*
X5056701Y5143937D1*
X5047904Y5158291D1*
X5041461Y5173846D1*
X5037531Y5190216D1*
X5036210Y5207000D1*
X5037531Y5223784D1*
X5041461Y5240154D1*
X5047904Y5255709D1*
X5056701Y5270063D1*
X5063725Y5278637D1*
D17*
X7048500Y5016500D3*
Y4826500D3*
X3365500Y7747500D3*
Y7937500D3*
D18*
X4730750Y2032000D3*
Y1862000D3*
Y4191000D3*
Y4021000D3*
D17*
X3810000Y7747500D3*
Y7937500D3*
D18*
X6096000Y8001000D3*
Y7831000D3*
D17*
X7096127Y2794000D3*
Y2604000D3*
X7413623Y2809873D3*
Y2619873D3*
X6477000Y5016500D3*
Y4826500D3*
X7412847Y2269887D3*
Y2079887D3*
D19*
X2032000Y9357500D3*
Y9207500D3*
D20*
X9080500Y9144000D3*
D21*
Y8890000D3*
Y8636000D3*
Y8382000D3*
Y8128000D3*
Y7874000D3*
D20*
X825500Y9398000D3*
D21*
Y9144000D3*
X1079500D3*
Y9398000D3*
D22*
X9144000Y3492500D3*
D23*
Y3692500D3*
Y3892500D3*
Y4092500D3*
Y4292500D3*
Y4492500D3*
Y4692500D3*
Y4892500D3*
Y5092500D3*
Y5292500D3*
Y5492500D3*
Y5692500D3*
Y5892500D3*
Y6092500D3*
D22*
Y571500D3*
D23*
Y771500D3*
Y971500D3*
Y1171500D3*
Y1371500D3*
Y1571500D3*
Y1771500D3*
Y1971500D3*
Y2171500D3*
Y2371500D3*
Y2571500D3*
Y2771500D3*
Y2971500D3*
D22*
X9080500Y6667500D3*
D23*
Y6867500D3*
Y7067500D3*
Y7267500D3*
D22*
X825500Y2667000D3*
D23*
Y2467000D3*
Y2267000D3*
Y2067000D3*
D24*
X6550500Y1905000D3*
X6720500D3*
D18*
X2984500Y9377500D3*
Y9207500D3*
X2476500Y9377500D3*
Y9207500D3*
D20*
X6096000Y8509000D3*
D21*
X6546000D3*
Y9159000D3*
X6096000D3*
D26*
X6477000Y3365500D3*
X6527000D3*
X6577000D3*
X6627000D3*
X6677000D3*
X6727000D3*
X6777000D3*
X6827000D3*
X6877000D3*
X6927000D3*
X6977000D3*
X7027000D3*
D27*
X7172000Y3510500D3*
Y3560500D3*
Y3610500D3*
Y3660500D3*
Y3710500D3*
Y3760500D3*
Y3810500D3*
Y3860500D3*
Y3910500D3*
Y3960500D3*
Y4010500D3*
Y4060500D3*
D26*
X7027000Y4205500D3*
X6977000D3*
X6927000D3*
X6877000D3*
X6827000D3*
X6777000D3*
X6727000D3*
X6677000D3*
X6627000D3*
X6577000D3*
X6527000D3*
X6477000D3*
D27*
X6332000Y4060500D3*
Y4010500D3*
Y3960500D3*
Y3910500D3*
Y3860500D3*
Y3810500D3*
Y3760500D3*
Y3710500D3*
Y3660500D3*
Y3610500D3*
Y3560500D3*
Y3510500D3*
D29*
X2349500Y8064500D3*
Y7834500D3*
Y7604500D3*
D30*
X2929500Y7834500D3*
D32*
X4730750Y3556000D3*
Y2601000D3*
M02*
