M48
METRIC,0000.00
T01C0.4
T02C1.0
T03C1.1
T04C1.15
%
T01
X+001588Y+009223
X+001111Y+008255
X+002365Y+008461
X+003175Y+008017
X+003794Y+008271
X+004461Y+008001
X+005318Y+008001
X+006096Y+007525
X+006922Y+007874
X+007429Y+008382
X+007366Y+008842
X+008176Y+007017
X+007985Y+005890
X+007985Y+005778
X+007985Y+005620
X+007985Y+005445
X+007969Y+005143
X+007906Y+004794
X+008001Y+004715
X+007811Y+004445
X+008080Y+004366
X+008160Y+004270
X+008239Y+004143
X+008255Y+003874
X+008350Y+003778
X+008430Y+003699
X+008525Y+003604
X+008604Y+003508
X+008684Y+003429
X+008763Y+003350
X+008842Y+003270
X+008922Y+003191
X+009128Y+003223
X+008446Y+002191
X+008303Y+002270
X+008318Y+002064
X+008318Y+001968
X+008318Y+001873
X+007778Y+002365
X+007603Y+002540
X+007525Y+003064
X+007652Y+003143
X+007763Y+003238
X+007620Y+003334
X+007731Y+003413
X+007811Y+003492
X+007811Y+003604
X+007636Y+003699
X+007699Y+003778
X+007731Y+003874
X+007699Y+004000
X+007826Y+004143
X+007493Y+004127
X+007429Y+004000
X+007175Y+004270
X+007207Y+004366
X+007302Y+004715
X+007239Y+004794
X+007033Y+004699
X+006874Y+004667
X+006890Y+004810
X+006874Y+004921
X+006795Y+005001
X+006667Y+005001
X+006667Y+005159
X+006795Y+005175
X+006937Y+005175
X+007064Y+005175
X+007112Y+005445
X+007112Y+005620
X+007112Y+005778
X+007112Y+005890
X+006509Y+005207
X+006509Y+004620
X+006398Y+004620
X+006096Y+004445
X+005667Y+004445
X+005667Y+004032
X+005731Y+003572
X+006064Y+003175
X+006429Y+002985
X+006525Y+002889
X+006525Y+003112
X+006826Y+002937
X+006874Y+003064
X+006874Y+002794
X+006842Y+002461
X+007080Y+002270
X+007064Y+002079
X+007111Y+001952
X+007222Y+001889
X+007413Y+001762
X+007001Y+001730
X+006636Y+001746
X+006525Y+002096
X+005842Y+002397
X+005953Y+002667
X+006222Y+002794
X+005778Y+002032
X+005572Y+001873
X+005556Y+001556
X+005239Y+002032
X+005302Y+002191
X+005191Y+002508
X+004969Y+001556
X+003937Y+002397
X+003937Y+002667
X+003730Y+002841
X+003730Y+002159
X+003572Y+002000
X+004096Y+003445
X+004096Y+003985
X+004096Y+004874
X+004096Y+005509
X+005143Y+005207
X+005143Y+004889
X+005128Y+004191
X+005064Y+003667
X+006683Y+000572
T02
X+006096Y+008509
X+006546Y+008509
X+006546Y+009159
X+006096Y+009159
T03
X+009080Y+009144
X+009080Y+008890
X+009080Y+008636
X+009080Y+008382
X+009080Y+008128
X+009080Y+007874
X+001079Y+009144
X+000825Y+009144
X+000825Y+009398
X+001079Y+009398
T04
X+009144Y+003492
X+009144Y+003692
X+009144Y+003892
X+009144Y+004092
X+009144Y+004292
X+009144Y+004492
X+009144Y+004692
X+009144Y+004892
X+009144Y+005092
X+009144Y+005292
X+009144Y+005492
X+009144Y+005692
X+009144Y+005892
X+009144Y+006092
X+009081Y+006667
X+009081Y+006867
X+009081Y+007067
X+009081Y+007267
X+009144Y+002972
X+009144Y+002772
X+009144Y+002572
X+009144Y+002372
X+009144Y+002172
X+009144Y+001972
X+009144Y+001772
X+009144Y+001572
X+009144Y+001372
X+009144Y+001172
X+009144Y+000972
X+009144Y+000772
X+009144Y+000572
X+000825Y+002067
X+000825Y+002267
X+000825Y+002467
X+000825Y+002667
T00
M30
